KleiBldIta.ufo
<glyph name="exclam" format="1">
  <advance width="354"/>
  <unicode hex="0021"/>
  <outline>
    <contour>
      <point x="132.6" y="129.9" type="curve" smooth="yes"/>
      <point x="166.326" y="129.9"/>
      <point x="189.031" y="103.554"/>
      <point x="189.031" y="70.6924" type="curve" smooth="yes"/>
      <point x="189.031" y="20.291"/>
      <point x="143.059" y="-18"/>
      <point x="102" y="-18" type="curve" smooth="yes"/>
      <point x="67.4463" y="-18"/>
      <point x="45.5" y="8.10645"/>
      <point x="45.5" y="40.6396" type="curve" smooth="yes"/>
      <point x="45.5" y="91.167"/>
      <point x="89.9531" y="129.9"/>
    </contour>
    <contour>
      <point x="353.744" y="726.493" type="curve" smooth="yes"/>
      <point x="353.744" y="718.45"/>
      <point x="352.579" y="711.533"/>
      <point x="350.374" y="703.292" type="curve" smooth="yes"/>
      <point x="201.008" y="215.176" type="line" smooth="yes"/>
      <point x="195.022" y="194.133"/>
      <point x="176.891" y="174.618"/>
      <point x="150.829" y="174.618" type="curve" smooth="yes"/>
      <point x="126.852" y="174.618"/>
      <point x="108.012" y="190.996"/>
      <point x="108.012" y="213.587" type="curve" smooth="yes"/>
      <point x="108.012" y="218.018"/>
      <point x="108.651" y="222.689"/>
      <point x="109.498" y="226.592" type="curve" smooth="yes"/>
      <point x="202.063" y="715.416" type="line" smooth="yes"/>
      <point x="208.713" y="750.712"/>
      <point x="245.672" y="778.21"/>
      <point x="285.471" y="778.21" type="curve" smooth="yes"/>
      <point x="322.764" y="778.21"/>
      <point x="353.744" y="758.919"/>
    </contour>
  </outline>
</glyph>
<glyph name="quotedbl" format="1">
  <advance width="307"/>
  <unicode hex="0022"/>
  <outline>
    <contour>
      <point x="229.249" y="699.005" type="curve" smooth="yes"/>
      <point x="234.253" y="699.005" type="line" smooth="yes"/>
      <point x="255.048" y="699.005"/>
      <point x="269.741" y="685.46"/>
      <point x="269.741" y="667.125" type="curve" smooth="yes"/>
      <point x="269.741" y="659.618"/>
      <point x="266.405" y="650.894"/>
      <point x="264.207" y="644.527" type="curve" smooth="yes"/>
      <point x="214.93" y="507.655" type="line"/>
      <point x="211.771" y="495.401"/>
      <point x="202.55" y="489.85"/>
      <point x="191.72" y="489.85" type="curve" smooth="yes"/>
      <point x="175.458" y="489.85" type="line" smooth="yes"/>
      <point x="164.782" y="489.85"/>
      <point x="158.054" y="497.536"/>
      <point x="158.054" y="506.076" type="curve" smooth="yes"/>
      <point x="158.054" y="507.519"/>
      <point x="158.231" y="509.205"/>
      <point x="158.454" y="510.457" type="curve"/>
      <point x="177.654" y="653.577" type="line"/>
      <point x="181.803" y="679.176"/>
      <point x="207.947" y="699.005"/>
    </contour>
    <contour>
      <point x="106.249" y="699.005" type="curve" smooth="yes"/>
      <point x="111.253" y="699.005" type="line" smooth="yes"/>
      <point x="132.048" y="699.005"/>
      <point x="146.741" y="685.46"/>
      <point x="146.741" y="667.125" type="curve" smooth="yes"/>
      <point x="146.741" y="659.618"/>
      <point x="143.405" y="650.894"/>
      <point x="141.207" y="644.527" type="curve" smooth="yes"/>
      <point x="91.9297" y="507.655" type="line"/>
      <point x="88.7715" y="495.401"/>
      <point x="79.5498" y="489.85"/>
      <point x="68.7197" y="489.85" type="curve" smooth="yes"/>
      <point x="52.458" y="489.85" type="line" smooth="yes"/>
      <point x="41.7822" y="489.85"/>
      <point x="35.0537" y="497.536"/>
      <point x="35.0537" y="506.076" type="curve" smooth="yes"/>
      <point x="35.0537" y="507.519"/>
      <point x="35.2314" y="509.205"/>
      <point x="35.4541" y="510.457" type="curve"/>
      <point x="54.6543" y="653.577" type="line"/>
      <point x="58.8027" y="679.176"/>
      <point x="84.9473" y="699.005"/>
    </contour>
  </outline>
</glyph>
<glyph name="numbersign" format="1">
  <advance width="741"/>
  <unicode hex="0023"/>
  <outline>
    <contour>
      <point x="398.154" y="737" type="curve" smooth="yes"/>
      <point x="457.154" y="737" type="line" smooth="yes"/>
      <point x="460.797" y="737"/>
      <point x="472.346" y="736.147"/>
      <point x="472.346" y="725.083" type="curve" smooth="yes"/>
      <point x="472.346" y="722.484"/>
      <point x="471.763" y="719.812"/>
      <point x="470.523" y="717.096" type="curve" smooth="yes"/>
      <point x="392.04" y="545" type="line"/>
      <point x="487.653" y="545" type="line"/>
      <point x="568.465" y="722.201" type="line"/>
      <point x="572.549" y="732.428"/>
      <point x="579.162" y="737"/>
      <point x="588.154" y="737" type="curve" smooth="yes"/>
      <point x="646.154" y="737" type="line" smooth="yes"/>
      <point x="650.301" y="737"/>
      <point x="661.309" y="735.646"/>
      <point x="661.309" y="724.72" type="curve" smooth="yes"/>
      <point x="661.309" y="722.629"/>
      <point x="660.905" y="720.125"/>
      <point x="659.523" y="717.096" type="curve" smooth="yes"/>
      <point x="581.04" y="545" type="line"/>
      <point x="684.154" y="545" type="line" smooth="yes"/>
      <point x="686.629" y="545"/>
      <point x="698.309" y="544.618"/>
      <point x="698.309" y="534.469" type="curve" smooth="yes"/>
      <point x="698.309" y="529.117"/>
      <point x="697.62" y="525.207"/>
      <point x="696.375" y="522.789" type="curve" smooth="yes"/>
      <point x="688.396" y="501.829" type="line"/>
      <point x="684.915" y="494.868"/>
      <point x="677.612" y="486"/>
      <point x="667.154" y="486" type="curve" smooth="yes"/>
      <point x="560.656" y="486" type="line"/>
      <point x="464.038" y="286" type="line"/>
      <point x="577.154" y="286" type="line" smooth="yes"/>
      <point x="582.483" y="286"/>
      <point x="591.309" y="283.406"/>
      <point x="591.309" y="274.469" type="curve" smooth="yes"/>
      <point x="591.309" y="270.162"/>
      <point x="589.497" y="267.971"/>
      <point x="588.379" y="265.799" type="curve" smooth="yes"/>
      <point x="578.397" y="240.834" type="line"/>
      <point x="574.38" y="232.8"/>
      <point x="566.23" y="227"/>
      <point x="557.154" y="227" type="curve" smooth="yes"/>
      <point x="440.656" y="227" type="line"/>
      <point x="341.523" y="17.0967" type="line" smooth="yes"/>
      <point x="339.06" y="11.6904"/>
      <point x="334.731" y="3"/>
      <point x="324.154" y="3" type="curve" smooth="yes"/>
      <point x="264.154" y="3" type="line" smooth="yes"/>
      <point x="258.344" y="3"/>
      <point x="248.909" y="5.7041"/>
      <point x="248.909" y="15.2451" type="curve" smooth="yes"/>
      <point x="248.909" y="17.8857"/>
      <point x="249.525" y="20.1406"/>
      <point x="250.785" y="22.9033" type="curve" smooth="yes"/>
      <point x="347.271" y="227" type="line"/>
      <point x="250.677" y="227" type="line"/>
      <point x="152.535" y="17.1221" type="line" smooth="yes"/>
      <point x="149.691" y="10.8154"/>
      <point x="144.316" y="3"/>
      <point x="134.154" y="3" type="curve" smooth="yes"/>
      <point x="73.1543" y="3" type="line" smooth="yes"/>
      <point x="67.0342" y="3"/>
      <point x="58" y="6.2168"/>
      <point x="58" y="16" type="curve" smooth="yes"/>
      <point x="58" y="19.1504"/>
      <point x="58.8828" y="20.9258"/>
      <point x="59.7852" y="22.9033" type="curve" smooth="yes"/>
      <point x="156.271" y="227" type="line"/>
      <point x="68.1543" y="227" type="line" smooth="yes"/>
      <point x="63.2119" y="227"/>
      <point x="53" y="229.187"/>
      <point x="53" y="239.501" type="curve" smooth="yes"/>
      <point x="53" y="244.056"/>
      <point x="54.9287" y="247.26"/>
      <point x="55.9316" y="249.206" type="curve" smooth="yes"/>
      <point x="64.9121" y="272.168" type="line"/>
      <point x="68.9277" y="280.198"/>
      <point x="77.0781" y="286"/>
      <point x="86.1543" y="286" type="curve" smooth="yes"/>
      <point x="179.632" y="286" type="line"/>
      <point x="275.318" y="486" type="line"/>
      <point x="177.154" y="486" type="line" smooth="yes"/>
      <point x="172.771" y="486"/>
      <point x="161.963" y="487.611"/>
      <point x="161.963" y="498.165" type="curve" smooth="yes"/>
      <point x="161.963" y="502.924"/>
      <point x="163.979" y="506.355"/>
      <point x="164.932" y="508.206" type="curve" smooth="yes"/>
      <point x="171.912" y="531.168" type="line"/>
      <point x="175.928" y="539.198"/>
      <point x="184.078" y="545"/>
      <point x="193.154" y="545" type="curve" smooth="yes"/>
      <point x="296.653" y="545" type="line"/>
      <point x="377.362" y="721.977" type="line"/>
      <point x="381.985" y="733.186"/>
      <point x="389.43" y="737"/>
    </contour>
    <contour>
      <point x="370.656" y="486" type="line"/>
      <point x="274.038" y="286" type="line"/>
      <point x="369.652" y="286" type="line"/>
      <point x="466.271" y="486" type="line"/>
    </contour>
  </outline>
</glyph>
<glyph name="percent" format="1">
  <advance width="828"/>
  <unicode hex="0025"/>
  <outline>
    <contour>
      <point x="429.086" y="122.696" type="curve" smooth="yes"/>
      <point x="429.086" y="272.091"/>
      <point x="552.254" y="381.812"/>
      <point x="652.832" y="381.812" type="curve" smooth="yes"/>
      <point x="717.147" y="381.812"/>
      <point x="762.194" y="340.406"/>
      <point x="762.194" y="270.213" type="curve" smooth="yes"/>
      <point x="762.194" y="121.831"/>
      <point x="651.679" y="3.60547"/>
      <point x="549.206" y="3.60547" type="curve" smooth="yes"/>
      <point x="480.671" y="3.60547"/>
      <point x="429.086" y="47.6777"/>
    </contour>
    <contour>
      <point x="643.956" y="351.478" type="curve" smooth="yes"/>
      <point x="593.315" y="351.478"/>
      <point x="527.062" y="217.782"/>
      <point x="527.062" y="124.479" type="curve" smooth="yes"/>
      <point x="527.062" y="79.7549"/>
      <point x="538.373" y="33.8369"/>
      <point x="562.966" y="33.8369" type="curve" smooth="yes"/>
      <point x="614.14" y="33.8369"/>
      <point x="679.575" y="166.531"/>
      <point x="679.575" y="261.793" type="curve" smooth="yes"/>
      <point x="679.575" y="304.778"/>
      <point x="674.17" y="351.478"/>
    </contour>
    <contour>
      <point x="277.949" y="635.848" type="curve" smooth="yes"/>
      <point x="303.725" y="635.848"/>
      <point x="326.078" y="628.948"/>
      <point x="341.422" y="618.037" type="curve"/>
      <point x="403.363" y="609.769"/>
      <point x="438.351" y="600.688"/>
      <point x="468.695" y="600.688" type="curve" smooth="yes"/>
      <point x="611.63" y="600.688"/>
      <point x="591.947" y="662.998"/>
      <point x="663.546" y="662.998" type="curve" smooth="yes"/>
      <point x="669.801" y="662.998"/>
      <point x="676.947" y="662.906"/>
      <point x="681.946" y="657.892" type="curve" smooth="yes"/>
      <point x="702.688" y="647.354" type="line" smooth="yes"/>
      <point x="704.562" y="645.514"/>
      <point x="708.572" y="642.306"/>
      <point x="708.572" y="636.563" type="curve" smooth="yes"/>
      <point x="708.572" y="631.077"/>
      <point x="705.575" y="627.307"/>
      <point x="703.782" y="625.147" type="curve" smooth="yes"/>
      <point x="165.329" y="-8.60742" type="line" smooth="yes"/>
      <point x="162.229" y="-12.4287"/>
      <point x="157.792" y="-13.9043"/>
      <point x="154.124" y="-13.9043" type="curve" smooth="yes"/>
      <point x="147.872" y="-13.9043"/>
      <point x="129.739" y="-4.58008"/>
      <point x="127.006" y="-2.76172" type="curve"/>
      <point x="122.749" y="0.901367" type="line"/>
      <point x="122.436" y="1.11719" type="line" smooth="yes"/>
      <point x="118.559" y="3.77832"/>
      <point x="116.453" y="8.00195"/>
      <point x="116.453" y="12.0381" type="curve" smooth="yes"/>
      <point x="116.453" y="17.1279"/>
      <point x="118.964" y="21.085"/>
      <point x="121.358" y="23.9668" type="curve" smooth="yes"/>
      <point x="608.455" y="604.985" type="line"/>
      <point x="577.371" y="587.382"/>
      <point x="538.781" y="568.94"/>
      <point x="463.794" y="568.94" type="curve" smooth="yes"/>
      <point x="431.031" y="568.94"/>
      <point x="410.988" y="575.032"/>
      <point x="381.729" y="580.715" type="curve"/>
      <point x="387.221" y="564.479"/>
      <point x="390.24" y="549.689"/>
      <point x="390.24" y="530.774" type="curve" smooth="yes"/>
      <point x="390.24" y="382.392"/>
      <point x="276.397" y="264.167"/>
      <point x="173.752" y="264.167" type="curve" smooth="yes"/>
      <point x="107.618" y="264.167"/>
      <point x="57.9766" y="307.208"/>
      <point x="57.9766" y="380.43" type="curve" smooth="yes"/>
      <point x="57.9766" y="526.157"/>
      <point x="174.752" y="635.848"/>
    </contour>
    <contour>
      <point x="226.188" y="596.515" type="curve"/>
      <point x="186.243" y="567.555"/>
      <point x="153.595" y="460.423"/>
      <point x="153.595" y="384.203" type="curve" smooth="yes"/>
      <point x="153.595" y="340.038"/>
      <point x="163.77" y="294.374"/>
      <point x="188.021" y="294.374" type="curve" smooth="yes"/>
      <point x="239.193" y="294.374"/>
      <point x="306.862" y="417.064"/>
      <point x="306.862" y="522.329" type="curve" smooth="yes"/>
      <point x="306.862" y="551.372"/>
      <point x="296.668" y="589.408"/>
      <point x="282.427" y="600.867" type="curve"/>
      <point x="274.066" y="601.374"/>
      <point x="267.755" y="601.554"/>
      <point x="260.377" y="601.554" type="curve" smooth="yes"/>
      <point x="243.184" y="601.554"/>
      <point x="244.908" y="599.936"/>
    </contour>
  </outline>
</glyph>
<glyph name="ampersand" format="1">
  <advance width="1023"/>
  <unicode hex="0026"/>
  <outline>
    <contour>
      <point x="204.952" y="302.628" type="curve" smooth="yes"/>
      <point x="204.952" y="282.15"/>
      <point x="213.049" y="238.35"/>
      <point x="219.344" y="227.137" type="curve"/>
      <point x="254.776" y="251.033"/>
      <point x="450.812" y="447.44"/>
      <point x="450.812" y="615.608" type="curve" smooth="yes"/>
      <point x="450.812" y="666.236"/>
      <point x="465.587" y="710.734"/>
      <point x="494.92" y="710.734" type="curve" smooth="yes"/>
      <point x="521.685" y="710.734"/>
      <point x="534.233" y="674.09"/>
      <point x="534.233" y="653.694" type="curve" smooth="yes"/>
      <point x="534.233" y="420.688"/>
      <point x="256.067" y="198.828"/>
      <point x="251.945" y="173.3" type="curve"/>
      <point x="252.314" y="153.804"/>
      <point x="313.648" y="78.5264"/>
      <point x="440.099" y="78.5264" type="curve" smooth="yes"/>
      <point x="589.615" y="78.5264"/>
      <point x="717.502" y="177.98"/>
      <point x="717.502" y="346.214" type="curve" smooth="yes"/>
      <point x="717.502" y="376.292"/>
      <point x="702.668" y="399.107"/>
      <point x="645.959" y="425.921" type="curve"/>
      <point x="643.477" y="415.576"/>
      <point x="639.483" y="398.747"/>
      <point x="629.011" y="383.817" type="curve" smooth="yes"/>
      <point x="617.982" y="368.095"/>
      <point x="593.024" y="351.909"/>
      <point x="573.668" y="351.909" type="curve" smooth="yes"/>
      <point x="566.814" y="351.909"/>
      <point x="555.205" y="354.837"/>
      <point x="555.205" y="367.393" type="curve" smooth="yes"/>
      <point x="555.205" y="414.433"/>
      <point x="627.41" y="476.485"/>
      <point x="669.048" y="476.485" type="curve" smooth="yes"/>
      <point x="743.098" y="476.485"/>
      <point x="769.786" y="398.28"/>
      <point x="853.888" y="398.28" type="curve" smooth="yes"/>
      <point x="869.599" y="398.28"/>
      <point x="883.902" y="404.802"/>
      <point x="898.271" y="411.665" type="curve" smooth="yes"/>
      <point x="904.183" y="414.489" type="line"/>
      <point x="915.775" y="393.851" type="line"/>
      <point x="911.845" y="390.098" type="line" smooth="yes"/>
      <point x="902.433" y="381.109"/>
      <point x="876.82" y="323.402"/>
      <point x="844.834" y="323.402" type="curve" smooth="yes"/>
      <point x="814.865" y="323.402"/>
      <point x="795.517" y="340.292"/>
      <point x="783.87" y="344.788" type="curve"/>
      <point x="781.556" y="183.226"/>
      <point x="677.625" y="-17.4961"/>
      <point x="449.812" y="-17.4961" type="curve" smooth="yes"/>
      <point x="215.067" y="-17.4961"/>
      <point x="113.594" y="115.714"/>
      <point x="113.594" y="265.622" type="curve" smooth="yes"/>
      <point x="113.594" y="390.418"/>
      <point x="194.498" y="518.69"/>
      <point x="325.183" y="518.69" type="curve" smooth="yes"/>
      <point x="353.236" y="518.69"/>
      <point x="387.9" y="496.951"/>
      <point x="387.9" y="467.079" type="curve" smooth="yes"/>
      <point x="387.9" y="443.14"/>
      <point x="372.67" y="415.048"/>
      <point x="340.662" y="415.048" type="curve" smooth="yes"/>
      <point x="320.865" y="415.048"/>
      <point x="313.043" y="430.459"/>
      <point x="307.165" y="444.492" type="curve" smooth="yes"/>
      <point x="301.899" y="457.073"/>
      <point x="297.898" y="461.088"/>
      <point x="286.113" y="461.088" type="curve" smooth="yes"/>
      <point x="235.269" y="461.088"/>
      <point x="204.952" y="372.462"/>
    </contour>
  </outline>
</glyph>
<glyph name="asterisk" format="1">
  <advance width="418"/>
  <unicode hex="002A"/>
  <outline>
    <contour>
      <point x="217.865" y="673.788" type="line" smooth="yes"/>
      <point x="220.925" y="689.087"/>
      <point x="235.636" y="701.479"/>
      <point x="252.047" y="701.479" type="curve" smooth="yes"/>
      <point x="255.695" y="701.479" type="line" smooth="yes"/>
      <point x="271.459" y="701.479"/>
      <point x="285.718" y="688.956"/>
      <point x="285.718" y="671.414" type="curve" smooth="yes"/>
      <point x="285.718" y="669.555"/>
      <point x="285.583" y="667.865"/>
      <point x="285.209" y="665.619" type="curve" smooth="yes"/>
      <point x="266.175" y="568.719" type="line"/>
      <point x="355.151" y="611.912" type="line" smooth="yes"/>
      <point x="358.211" y="613.442"/>
      <point x="363.803" y="616.356"/>
      <point x="371.219" y="616.356" type="curve" smooth="yes"/>
      <point x="384.119" y="616.356"/>
      <point x="403.182" y="607.128"/>
      <point x="403.182" y="585.761" type="curve" smooth="yes"/>
      <point x="403.182" y="570.404"/>
      <point x="394.992" y="558.483"/>
      <point x="382.987" y="551.64" type="curve" smooth="yes"/>
      <point x="286.294" y="492.657" type="line"/>
      <point x="352.601" y="436.481" type="line" smooth="yes"/>
      <point x="355.424" y="434.089"/>
      <point x="363.812" y="426.742"/>
      <point x="363.812" y="414.129" type="curve" smooth="yes"/>
      <point x="363.812" y="401.946"/>
      <point x="357.957" y="392.946"/>
      <point x="352.769" y="387.634" type="curve" smooth="yes"/>
      <point x="348.308" y="383.068"/>
      <point x="339.106" y="374.281"/>
      <point x="325.009" y="374.281" type="curve" smooth="yes"/>
      <point x="322.781" y="374.281"/>
      <point x="316.11" y="374.329"/>
      <point x="309.336" y="378.65" type="curve" smooth="yes"/>
      <point x="235.131" y="425.954" type="line"/>
      <point x="205.791" y="317.396" type="line"/>
      <point x="205.426" y="316.044" type="line"/>
      <point x="205.06" y="314.691" type="line"/>
      <point x="204.133" y="313.64" type="line"/>
      <point x="203.369" y="312.773" type="line" smooth="yes"/>
      <point x="202.128" y="311.124"/>
      <point x="187.756" y="290.375"/>
      <point x="170.573" y="290.375" type="curve" smooth="yes"/>
      <point x="166.925" y="290.375" type="line" smooth="yes"/>
      <point x="151.161" y="290.375"/>
      <point x="136.902" y="302.897"/>
      <point x="136.902" y="320.439" type="curve" smooth="yes"/>
      <point x="136.902" y="322.299"/>
      <point x="137.043" y="324.026"/>
      <point x="137.4" y="326.164" type="curve" smooth="yes"/>
      <point x="155.542" y="422.061" type="line"/>
      <point x="63.8338" y="377.517" type="line" smooth="yes"/>
      <point x="58.4498" y="374.903"/>
      <point x="53.1321" y="374.281"/>
      <point x="48.9707" y="374.281" type="curve" smooth="yes"/>
      <point x="28.8498" y="374.281"/>
      <point x="19.4385" y="392.849"/>
      <point x="19.4385" y="405.94" type="curve" smooth="yes"/>
      <point x="19.4385" y="409.039"/>
      <point x="19.6901" y="413.63"/>
      <point x="20.9801" y="418.662" type="curve" smooth="yes"/>
      <point x="24.5148" y="432.457"/>
      <point x="36.8241" y="438.061"/>
      <point x="37.3954" y="438.374" type="curve" smooth="yes"/>
      <point x="136.022" y="497.94" type="line"/>
      <point x="70.071" y="552.907" type="line" smooth="yes"/>
      <point x="64.9324" y="557.199"/>
      <point x="58.5371" y="565.073"/>
      <point x="58.5371" y="576.436" type="curve" smooth="yes"/>
      <point x="58.5371" y="599.09"/>
      <point x="77.1431" y="616.356"/>
      <point x="96.3955" y="616.356" type="curve" smooth="yes"/>
      <point x="99.5684" y="616.356"/>
      <point x="105.366" y="616.067"/>
      <point x="111.465" y="613.019" type="curve" smooth="yes"/>
      <point x="112.35" y="612.576" type="line"/>
      <point x="112.851" y="612.261" type="line"/>
      <point x="188.608" y="564.562" type="line"/>
    </contour>
  </outline>
</glyph>
<glyph name="plus" format="1">
  <advance width="415"/>
  <unicode hex="002B"/>
  <outline>
    <contour>
      <point x="209.856" y="143.602" type="line" smooth="yes"/>
      <point x="207.395" y="131.288"/>
      <point x="180.787" y="129.675"/>
      <point x="170.963" y="129.675" type="curve" smooth="yes"/>
      <point x="163.908" y="129.675"/>
      <point x="132.896" y="131.776"/>
      <point x="132.896" y="143.415" type="curve" smooth="yes"/>
      <point x="132.896" y="146.789"/>
      <point x="134.938" y="153.667"/>
      <point x="135.158" y="154.484" type="curve" smooth="yes"/>
      <point x="145.615" y="193.174"/>
      <point x="151.61" y="222.026"/>
      <point x="160.649" y="261.275" type="curve"/>
      <point x="67.8145" y="261.275" type="line"/>
      <point x="58.8643" y="264.856"/>
      <point x="57.2402" y="274.258"/>
      <point x="57.2402" y="281.979" type="curve" smooth="yes"/>
      <point x="57.2402" y="294.6"/>
      <point x="66.6426" y="336.475"/>
      <point x="82.6621" y="336.475" type="curve" smooth="yes"/>
      <point x="174.513" y="336.475" type="line" smooth="yes"/>
      <point x="176.59" y="336.475"/>
      <point x="177.243" y="337.815"/>
      <point x="178.269" y="340.826" type="curve"/>
      <point x="202.284" y="444.478" type="line"/>
      <point x="205.999" y="445.716" type="line" smooth="yes"/>
      <point x="215.725" y="448.957"/>
      <point x="234.742" y="451.325"/>
      <point x="243.412" y="451.325" type="curve" smooth="yes"/>
      <point x="252.122" y="451.325"/>
      <point x="269.721" y="448.793"/>
      <point x="275.913" y="445.078" type="curve" smooth="yes"/>
      <point x="280.287" y="442.454" type="line"/>
      <point x="255.93" y="337.287" type="line" smooth="yes"/>
      <point x="255.93" y="337.287"/>
      <point x="340.02" y="336.475"/>
      <point x="349.362" y="336.475" type="curve" smooth="yes"/>
      <point x="358.092" y="336.475"/>
      <point x="359.133" y="324.15"/>
      <point x="359.133" y="321.104" type="curve" smooth="yes"/>
      <point x="359.133" y="312.882"/>
      <point x="353.256" y="261.275"/>
      <point x="335.862" y="261.275" type="curve" smooth="yes"/>
      <point x="239.763" y="261.275" type="line" smooth="yes"/>
      <point x="238.359" y="261.275"/>
      <point x="237.42" y="260.339"/>
      <point x="237.206" y="259.451" type="curve" smooth="yes"/>
    </contour>
  </outline>
</glyph>
<glyph name="comma" format="1">
  <advance width="190"/>
  <unicode hex="002C"/>
  <outline>
    <contour>
      <point x="109.093" y="129.941" type="curve" smooth="yes"/>
      <point x="142.981" y="129.941"/>
      <point x="163.811" y="103.783"/>
      <point x="163.811" y="74.9629" type="curve" smooth="yes"/>
      <point x="163.811" y="-26.6846"/>
      <point x="81.5645" y="-87.3105"/>
      <point x="12.4805" y="-87.3105" type="curve" smooth="yes"/>
      <point x="-11.3564" y="-87.3105" type="line"/>
      <point x="-22.9502" y="-58.6621" type="line"/>
      <point x="-10.4639" y="-58.6621" type="line" smooth="yes"/>
      <point x="7.44629" y="-58.6621"/>
      <point x="51.126" y="-37.0391"/>
      <point x="51.126" y="-19.2705" type="curve" smooth="yes"/>
      <point x="51.126" y="3.93945"/>
      <point x="21.4297" y="11.8975"/>
      <point x="21.4297" y="45.0107" type="curve" smooth="yes"/>
      <point x="21.4297" y="93.7705"/>
      <point x="68.1104" y="129.941"/>
    </contour>
  </outline>
</glyph>
<glyph name="hyphen" format="1">
  <advance width="408"/>
  <unicode hex="002D"/>
  <outline>
    <contour>
      <point x="74.0381" y="268.401" type="line" smooth="yes"/>
      <point x="67.4629" y="271.03"/>
      <point x="65.7158" y="280.995"/>
      <point x="65.7158" y="287.604" type="curve" smooth="yes"/>
      <point x="65.7158" y="300.228"/>
      <point x="70.1182" y="328.1"/>
      <point x="87.1377" y="328.1" type="curve" smooth="yes"/>
      <point x="333.888" y="328.1" type="line" smooth="yes"/>
      <point x="343.419" y="328.1"/>
      <point x="343.658" y="316.159"/>
      <point x="343.658" y="313.729" type="curve" smooth="yes"/>
      <point x="343.658" y="305.635"/>
      <point x="341.892" y="267.9"/>
      <point x="323.388" y="267.9" type="curve" smooth="yes"/>
      <point x="75.29" y="267.9" type="line"/>
    </contour>
  </outline>
</glyph>
<glyph name="period" format="1">
  <advance width="212"/>
  <unicode hex="002E"/>
  <outline>
    <contour>
      <point x="101.313" y="98" type="curve" smooth="yes"/>
      <point x="127.766" y="98"/>
      <point x="145.573" y="77.336"/>
      <point x="145.573" y="51.5625" type="curve" smooth="yes"/>
      <point x="145.573" y="12.0324"/>
      <point x="109.517" y="-18"/>
      <point x="77.3135" y="-18" type="curve" smooth="yes"/>
      <point x="50.2137" y="-18"/>
      <point x="33" y="2.47535"/>
      <point x="33" y="27.9922" type="curve" smooth="yes"/>
      <point x="33" y="67.6213"/>
      <point x="67.8646" y="98"/>
    </contour>
  </outline>
</glyph>
<glyph name="slash" format="1">
  <advance width="612"/>
  <unicode hex="002F"/>
  <outline>
    <contour>
      <point x="31.168" y="-112.334" type="line" smooth="yes"/>
      <point x="198.047" y="180.491"/>
      <point x="327.111" y="428.127"/>
      <point x="459.365" y="697.881" type="curve" smooth="yes"/>
      <point x="460.159" y="699.5" type="line"/>
      <point x="461.636" y="700.534" type="line" smooth="yes"/>
      <point x="483.221" y="715.644"/>
      <point x="521.047" y="722.8"/>
      <point x="535" y="722.8" type="curve" smooth="yes"/>
      <point x="548.043" y="722.8"/>
      <point x="578.553" y="714.983"/>
      <point x="578.553" y="701.265" type="curve" smooth="yes"/>
      <point x="578.553" y="698.676"/>
      <point x="578.211" y="696.001"/>
      <point x="577.57" y="693.226" type="curve" smooth="yes"/>
      <point x="577.345" y="692.247" type="line"/>
      <point x="576.853" y="691.371" type="line" smooth="yes"/>
      <point x="430.55" y="430.931"/>
      <point x="171.601" y="-69.1055"/>
      <point x="166.648" y="-78.6709" type="curve"/>
      <point x="146.599" y="-133.387"/>
      <point x="73.0029" y="-110.088"/>
      <point x="39.6699" y="-122.368" type="curve" smooth="yes"/>
      <point x="21.6709" y="-129" type="line"/>
    </contour>
  </outline>
</glyph>
<glyph name="zero" format="1">
  <advance width="520"/>
  <unicode hex="0030"/>
  <outline>
    <contour>
      <point x="401.47" y="428.136" type="curve" smooth="yes"/>
      <point x="401.47" y="518.337"/>
      <point x="394.478" y="595"/>
      <point x="355.777" y="595" type="curve" smooth="yes"/>
      <point x="288.146" y="595"/>
      <point x="152.397" y="387.136"/>
      <point x="152.397" y="207.288" type="curve" smooth="yes"/>
      <point x="152.397" y="126.17"/>
      <point x="167.099" y="39"/>
      <point x="211.092" y="39" type="curve" smooth="yes"/>
      <point x="286.177" y="39"/>
      <point x="401.47" y="238.084"/>
    </contour>
    <contour>
      <point x="197.301" y="-7" type="curve" smooth="yes"/>
      <point x="79.2969" y="-7"/>
      <point x="29.2607" y="87.4092"/>
      <point x="29.2607" y="207.386" type="curve" smooth="yes"/>
      <point x="29.2607" y="423.041"/>
      <point x="179.901" y="640"/>
      <point x="361.568" y="640" type="curve" smooth="yes"/>
      <point x="479.938" y="640"/>
      <point x="522.646" y="547.38"/>
      <point x="522.646" y="428.465" type="curve" smooth="yes"/>
      <point x="522.646" y="212.991"/>
      <point x="383.588" y="-7"/>
    </contour>
  </outline>
</glyph>
<glyph name="one" format="1">
  <advance width="365"/>
  <unicode hex="0031"/>
  <outline>
    <contour>
      <point x="208.186" y="43.8516" type="curve"/>
      <point x="208.325" y="38.874"/>
      <point x="209.78" y="32"/>
      <point x="221.839" y="32" type="curve" smooth="yes"/>
      <point x="237.458" y="32" type="line"/>
      <point x="231.658" y="0" type="line"/>
      <point x="30" y="0" type="line"/>
      <point x="38.7998" y="32" type="line"/>
      <point x="48.8389" y="32" type="line" smooth="yes"/>
      <point x="63.876" y="32"/>
      <point x="73.9033" y="42.3926"/>
      <point x="76.168" y="52.1621" type="curve"/>
      <point x="190.183" y="517.707" type="line" smooth="yes"/>
      <point x="191.775" y="524.277"/>
      <point x="194.497" y="536.205"/>
      <point x="194.497" y="537.403" type="curve" smooth="yes"/>
      <point x="194.497" y="539.375"/>
      <point x="193.936" y="543.138"/>
      <point x="193.44" y="544.634" type="curve"/>
      <point x="182.902" y="544.311"/>
      <point x="163.479" y="541.862"/>
      <point x="163.069" y="541.812" type="curve"/>
      <point x="144.889" y="540.306" type="line"/>
      <point x="154.793" y="572.99" type="line"/>
      <point x="160.998" y="575.401" type="line" smooth="yes"/>
      <point x="197.11" y="589.436"/>
      <point x="277.549" y="618.262"/>
      <point x="313.317" y="638.246" type="curve"/>
      <point x="315.596" y="639.574"/>
      <point x="322.766" y="645"/>
      <point x="329.839" y="645" type="curve" smooth="yes"/>
      <point x="334.113" y="645"/>
      <point x="347.03" y="644.565"/>
      <point x="347.03" y="633.958" type="curve" smooth="yes"/>
      <point x="347.03" y="633.893" type="line"/>
      <point x="209.732" y="50.3467" type="line"/>
      <point x="209.418" y="48.8838"/>
      <point x="208.395" y="44.8223"/>
    </contour>
  </outline>
</glyph>
<glyph name="two" format="1">
  <advance width="639"/>
  <unicode hex="0032"/>
  <outline>
    <contour>
      <point x="404.447" y="585" type="curve" smooth="yes"/>
      <point x="353.983" y="585"/>
      <point x="302.621" y="556.938"/>
      <point x="260.772" y="517.816" type="curve" smooth="yes"/>
      <point x="250.907" y="508.594" type="line"/>
      <point x="222.245" y="531.778" type="line"/>
      <point x="229.64" y="540.854" type="line"/>
      <point x="230.564" y="542.002"/>
      <point x="310.725" y="642"/>
      <point x="447.383" y="642" type="curve" smooth="yes"/>
      <point x="531.146" y="642"/>
      <point x="605.543" y="614.683"/>
      <point x="605.543" y="538.044" type="curve" smooth="yes"/>
      <point x="605.543" y="441.58"/>
      <point x="537.291" y="386.089"/>
      <point x="421.572" y="276.432" type="curve"/>
      <point x="339.046" y="200.61"/>
      <point x="231.775" y="113.015"/>
      <point x="185.043" y="70" type="curve"/>
      <point x="398.779" y="70" type="line" smooth="yes"/>
      <point x="445.138" y="70"/>
      <point x="470.886" y="86.3496"/>
      <point x="486.214" y="114.1" type="curve" smooth="yes"/>
      <point x="490.727" y="122.591" type="line"/>
      <point x="520.821" y="115.387" type="line"/>
      <point x="457.465" y="0" type="line"/>
      <point x="26" y="0" type="line"/>
      <point x="30.0918" y="15.6621" type="line" smooth="yes"/>
      <point x="33.0322" y="26.9199"/>
      <point x="38.0254" y="47.9385"/>
      <point x="38.0254" y="47.9385" type="curve" smooth="yes"/>
      <point x="38.877" y="51.5234" type="line"/>
      <point x="41.6055" y="54.1123" type="line" smooth="yes"/>
      <point x="167.042" y="171.585"/>
      <point x="272.32" y="273.873"/>
      <point x="349.13" y="347.528" type="curve" smooth="yes"/>
      <point x="410.752" y="407.088"/>
      <point x="472.78" y="457.246"/>
      <point x="472.78" y="520.322" type="curve" smooth="yes"/>
      <point x="472.78" y="549.537"/>
      <point x="448.164" y="585"/>
    </contour>
  </outline>
</glyph>
<glyph name="three" format="1">
  <advance width="577"/>
  <unicode hex="0033"/>
  <outline>
    <contour>
      <point x="199.675" y="505.293" type="curve" smooth="yes"/>
      <point x="195.246" y="501.184" type="line"/>
      <point x="170.255" y="524.404" type="line"/>
      <point x="174.496" y="528.686" type="line" smooth="yes"/>
      <point x="177.154" y="531.369"/>
      <point x="277.623" y="640"/>
      <point x="397.041" y="640" type="curve" smooth="yes"/>
      <point x="483.8" y="640"/>
      <point x="541.197" y="609.54"/>
      <point x="541.197" y="555.838" type="curve" smooth="yes"/>
      <point x="541.197" y="467.757"/>
      <point x="440.736" y="425.395"/>
      <point x="372.999" y="381.132" type="curve"/>
      <point x="439.736" y="365.217"/>
      <point x="511.702" y="310.454"/>
      <point x="511.702" y="236.157" type="curve" smooth="yes"/>
      <point x="511.702" y="73.3066"/>
      <point x="348.315" y="-7"/>
      <point x="183.669" y="-7" type="curve" smooth="yes"/>
      <point x="130.927" y="-7"/>
      <point x="50" y="13.3408"/>
      <point x="50" y="57.918" type="curve" smooth="yes"/>
      <point x="50" y="66.5625"/>
      <point x="53.1855" y="72.9082"/>
      <point x="54.0449" y="74.9424" type="curve" smooth="yes"/>
      <point x="60.4492" y="90.1279"/>
      <point x="79.3877" y="97.6387"/>
      <point x="94.8867" y="97.6387" type="curve" smooth="yes"/>
      <point x="110.651" y="97.6387"/>
      <point x="123.996" y="84.8008"/>
      <point x="135.242" y="71.4844" type="curve" smooth="yes"/>
      <point x="149.728" y="54.3291"/>
      <point x="185.438" y="29"/>
      <point x="213.587" y="29" type="curve" smooth="yes"/>
      <point x="314.179" y="29"/>
      <point x="386.884" y="118.452"/>
      <point x="386.884" y="208.988" type="curve" smooth="yes"/>
      <point x="386.884" y="239.25"/>
      <point x="361.095" y="274.004"/>
      <point x="336.969" y="286.781" type="curve" smooth="yes"/>
      <point x="315.509" y="298.146"/>
      <point x="296.221" y="305.011"/>
      <point x="270.611" y="305.011" type="curve" smooth="yes"/>
      <point x="235.599" y="305.011"/>
      <point x="204.509" y="282.499"/>
      <point x="185.669" y="282.499" type="curve" smooth="yes"/>
      <point x="174.022" y="282.499"/>
      <point x="164.257" y="289.196"/>
      <point x="164.257" y="300.117" type="curve" smooth="yes"/>
      <point x="164.257" y="309.518"/>
      <point x="171.097" y="315.707"/>
      <point x="175.688" y="318.34" type="curve"/>
      <point x="184.255" y="323.186"/>
      <point x="393.496" y="449.662"/>
      <point x="393.496" y="531.066" type="curve" smooth="yes"/>
      <point x="393.496" y="558.968"/>
      <point x="374.755" y="579"/>
      <point x="341.285" y="579" type="curve" smooth="yes"/>
      <point x="304.528" y="579"/>
      <point x="251.048" y="547.243"/>
    </contour>
  </outline>
</glyph>
<glyph name="four" format="1">
  <advance width="549"/>
  <unicode hex="0034"/>
  <outline>
    <contour>
      <point x="182.226" y="324.732" type="curve"/>
      <point x="230.745" y="324.097"/>
      <point x="278.229" y="322.549"/>
      <point x="306.389" y="322.11" type="curve"/>
      <point x="320.626" y="374.562"/>
      <point x="342.947" y="447.111"/>
      <point x="345.346" y="461.953" type="curve"/>
      <point x="311.619" y="429.469"/>
      <point x="295.465" y="422.985"/>
      <point x="259.683" y="390.441" type="curve" smooth="yes"/>
      <point x="232.425" y="365.651"/>
      <point x="203.652" y="343.838"/>
    </contour>
    <contour>
      <point x="56" y="283.901" type="curve" smooth="yes"/>
      <point x="56" y="294.369"/>
      <point x="62.8779" y="300.997"/>
      <point x="66.043" y="304.056" type="curve" smooth="yes"/>
      <point x="177.486" y="411.633"/>
      <point x="322.817" y="511.66"/>
      <point x="428.442" y="618.178" type="curve"/>
      <point x="428.442" y="618.178"/>
      <point x="453.126" y="642"/>
      <point x="460.196" y="642" type="curve" smooth="yes"/>
      <point x="463.667" y="642"/>
      <point x="475.814" y="641.6"/>
      <point x="478.646" y="640.793" type="curve" smooth="yes"/>
      <point x="486.888" y="638.486"/>
      <point x="496.364" y="632.304"/>
      <point x="496.364" y="624.777" type="curve" smooth="yes"/>
      <point x="496.364" y="623.429"/>
      <point x="496.194" y="622.089"/>
      <point x="495.877" y="620.781" type="curve" smooth="yes"/>
      <point x="425.675" y="331.273" type="line"/>
      <point x="436.287" y="331.594"/>
      <point x="447.15" y="332.021"/>
      <point x="457.644" y="332.635" type="curve" smooth="yes"/>
      <point x="472.872" y="333.524"/>
      <point x="477.201" y="334.812"/>
      <point x="487.969" y="336.65" type="curve" smooth="yes"/>
      <point x="499.57" y="338.633" type="line"/>
      <point x="494.384" y="328.254" type="line" smooth="yes"/>
      <point x="489.909" y="319.301"/>
      <point x="484.712" y="312.628"/>
      <point x="484.712" y="302.606" type="curve" smooth="yes"/>
      <point x="484.712" y="294.025"/>
      <point x="486.034" y="285.854"/>
      <point x="488.067" y="281.231" type="curve" smooth="yes"/>
      <point x="491.688" y="273.007" type="line"/>
      <point x="413.585" y="273.007" type="line"/>
      <point x="353.467" y="12.0781" type="line"/>
      <point x="352.199" y="6.15527"/>
      <point x="348.35" y="0"/>
      <point x="338.856" y="0" type="curve" smooth="yes"/>
      <point x="256.298" y="0" type="line" smooth="yes"/>
      <point x="255.469" y="0"/>
      <point x="254.636" y="0.00976562"/>
      <point x="253.802" y="0.0283203" type="curve" smooth="yes"/>
      <point x="251.637" y="0.0771484"/>
      <point x="239.322" y="0.0791016"/>
      <point x="237.184" y="0.166992" type="curve" smooth="yes"/>
      <point x="233.634" y="0.3125"/>
      <point x="232.652" y="2.12793"/>
      <point x="232.652" y="4.84082" type="curve" smooth="yes"/>
      <point x="232.652" y="6.59766"/>
      <point x="233.064" y="8.73047"/>
      <point x="233.457" y="11.0303" type="curve" smooth="yes"/>
      <point x="234.036" y="14.4199"/>
      <point x="235.778" y="19.9385"/>
      <point x="235.975" y="20.7891" type="curve" smooth="yes"/>
      <point x="254.86" y="101.696"/>
      <point x="274.845" y="184.71"/>
      <point x="293.558" y="265" type="curve"/>
      <point x="74.1963" y="265" type="line" smooth="yes"/>
      <point x="61.7637" y="265"/>
      <point x="56" y="275.991"/>
    </contour>
  </outline>
</glyph>
<glyph name="five" format="1">
  <advance width="520"/>
  <unicode hex="0035"/>
  <outline>
    <contour>
      <point x="226.687" y="611.098" type="line"/>
      <point x="413.393" y="611.098" type="line" smooth="yes"/>
      <point x="430.423" y="611.098"/>
      <point x="449.241" y="611.976"/>
      <point x="461.54" y="614.683" type="curve" smooth="yes"/>
      <point x="464.548" y="615.359"/>
      <point x="476.155" y="617"/>
      <point x="481.393" y="617" type="curve" smooth="yes"/>
      <point x="488.521" y="617"/>
      <point x="497.546" y="614.553"/>
      <point x="497.546" y="604.151" type="curve" smooth="yes"/>
      <point x="497.546" y="592.392"/>
      <point x="479.912" y="573.785"/>
      <point x="471.494" y="560.602" type="curve" smooth="yes"/>
      <point x="467.694" y="554.653" type="line"/>
      <point x="285.308" y="554.653" type="line"/>
      <point x="221" y="409" type="line"/>
      <point x="265.243" y="425.191"/>
      <point x="287.519" y="431"/>
      <point x="335.607" y="431" type="curve" smooth="yes"/>
      <point x="417.735" y="431"/>
      <point x="455.55" y="351.094"/>
      <point x="455.55" y="258.247" type="curve" smooth="yes"/>
      <point x="455.55" y="101.903"/>
      <point x="344.716" y="-11.9697"/>
      <point x="217.592" y="-11.9697" type="curve" smooth="yes"/>
      <point x="154.99" y="-11.9697"/>
      <point x="98.6055" y="27.7812"/>
      <point x="54.1367" y="81.3135" type="curve" smooth="yes"/>
      <point x="49.3701" y="87.0488"/>
      <point x="47.3604" y="94.6221"/>
      <point x="47.3604" y="101.248" type="curve" smooth="yes"/>
      <point x="47.3604" y="116.404"/>
      <point x="58.2617" y="129.03"/>
      <point x="70.0361" y="129.03" type="curve" smooth="yes"/>
      <point x="78.2021" y="129.03"/>
      <point x="82.2402" y="123.408"/>
      <point x="84.4727" y="120.611" type="curve"/>
      <point x="110.771" y="87.9199"/>
      <point x="144.89" y="54.5303"/>
      <point x="197.421" y="54.5303" type="curve" smooth="yes"/>
      <point x="303.252" y="54.5303"/>
      <point x="351.816" y="142.521"/>
      <point x="351.816" y="217.349" type="curve" smooth="yes"/>
      <point x="351.816" y="292.007"/>
      <point x="323.858" y="335"/>
      <point x="255.691" y="335" type="curve" smooth="yes"/>
      <point x="182.115" y="335"/>
      <point x="138.873" y="299.798"/>
      <point x="75.7559" y="264.975" type="curve"/>
    </contour>
  </outline>
</glyph>
<glyph name="six" format="1">
  <advance width="586"/>
  <unicode hex="0036"/>
  <outline>
    <contour>
      <point x="513.955" y="597.133" type="curve" smooth="yes"/>
      <point x="320.975" y="543.071"/>
      <point x="170.747" y="396.028"/>
      <point x="170.747" y="171.436" type="curve" smooth="yes"/>
      <point x="170.747" y="97.0381"/>
      <point x="204.208" y="33"/>
      <point x="244.637" y="33" type="curve" smooth="yes"/>
      <point x="323.968" y="33"/>
      <point x="402.649" y="116.793"/>
      <point x="402.649" y="250.353" type="curve" smooth="yes"/>
      <point x="402.649" y="311.661"/>
      <point x="361.766" y="344.66"/>
      <point x="330.401" y="344.66" type="curve" smooth="yes"/>
      <point x="303.231" y="344.66"/>
      <point x="280.141" y="333.767"/>
      <point x="255.408" y="314.19" type="curve" smooth="yes"/>
      <point x="254.954" y="313.831" type="line"/>
      <point x="254.479" y="313.518" type="line" smooth="yes"/>
      <point x="249.78" y="310.419"/>
      <point x="243.41" y="307.079"/>
      <point x="238.399" y="307.079" type="curve" smooth="yes"/>
      <point x="230.12" y="307.079"/>
      <point x="220.054" y="313.228"/>
      <point x="220.054" y="325.606" type="curve" smooth="yes"/>
      <point x="220.054" y="333.527"/>
      <point x="227.997" y="341.142"/>
      <point x="231.88" y="346.442" type="curve"/>
      <point x="254.503" y="374.474"/>
      <point x="298.677" y="412.309"/>
      <point x="375.493" y="412.309" type="curve" smooth="yes"/>
      <point x="477.22" y="412.309"/>
      <point x="535.31" y="373.396"/>
      <point x="535.31" y="271.431" type="curve" smooth="yes"/>
      <point x="535.31" y="120.531"/>
      <point x="416.286" y="-8"/>
      <point x="226.749" y="-8" type="curve" smooth="yes"/>
      <point x="109.931" y="-8"/>
      <point x="37.2529" y="79.3828"/>
      <point x="37.2529" y="185.563" type="curve" smooth="yes"/>
      <point x="37.2529" y="457.488"/>
      <point x="317.104" y="598.637"/>
      <point x="517.948" y="636.732" type="curve"/>
      <point x="529.437" y="639.126" type="line"/>
      <point x="531.067" y="633.947" type="line" smooth="yes"/>
      <point x="532.178" y="630.421"/>
      <point x="532.77" y="626.701"/>
      <point x="532.77" y="623.022" type="curve" smooth="yes"/>
      <point x="532.77" y="611.735"/>
      <point x="527.198" y="600.843"/>
    </contour>
  </outline>
</glyph>
<glyph name="seven" format="1">
  <advance width="520"/>
  <unicode hex="0037"/>
  <outline>
    <contour>
      <point x="34.0811" y="7.95215" type="line" smooth="yes"/>
      <point x="95.4346" y="166.287"/>
      <point x="282.867" y="399.012"/>
      <point x="427.607" y="546" type="curve"/>
      <point x="161.709" y="546" type="line" smooth="yes"/>
      <point x="145.581" y="546"/>
      <point x="138.497" y="527.55"/>
      <point x="137.475" y="526.381" type="curve"/>
      <point x="133.58" y="522" type="line"/>
      <point x="127.742" y="522" type="line" smooth="yes"/>
      <point x="116.881" y="522"/>
      <point x="113.925" y="534.345"/>
      <point x="113.925" y="534.345" type="curve" smooth="yes"/>
      <point x="113.396" y="536.186" type="line"/>
      <point x="115.301" y="541.599" type="line"/>
      <point x="142.128" y="604.908" type="line"/>
      <point x="142.596" y="605.688" type="line" smooth="yes"/>
      <point x="146.721" y="612.565"/>
      <point x="153.401" y="622"/>
      <point x="164.886" y="622" type="curve" smooth="yes"/>
      <point x="556.742" y="622" type="line" smooth="yes"/>
      <point x="568.861" y="622"/>
      <point x="576.988" y="612.626"/>
      <point x="576.988" y="602.45" type="curve" smooth="yes"/>
      <point x="576.988" y="588.893"/>
      <point x="565.83" y="578.947"/>
      <point x="563.899" y="576.595" type="curve"/>
      <point x="410.25" y="395.072"/>
      <point x="225.517" y="163.467"/>
      <point x="163.222" y="3.90137" type="curve" smooth="yes"/>
      <point x="161.766" y="0" type="line"/>
      <point x="31" y="0" type="line"/>
    </contour>
  </outline>
</glyph>
<glyph name="eight" format="1">
  <advance width="596"/>
  <unicode hex="0038"/>
  <outline>
    <contour>
      <point x="311.051" y="298.533" type="curve"/>
      <point x="218.956" y="236.259"/>
      <point x="183.038" y="204.816"/>
      <point x="183.038" y="131.481" type="curve" smooth="yes"/>
      <point x="183.038" y="69.7236"/>
      <point x="222.33" y="32"/>
      <point x="254.481" y="32" type="curve" smooth="yes"/>
      <point x="319.488" y="32"/>
      <point x="379.769" y="102.189"/>
      <point x="379.769" y="178.485" type="curve" smooth="yes"/>
      <point x="379.769" y="231.188"/>
      <point x="360.482" y="260.499"/>
    </contour>
    <contour>
      <point x="394.47" y="607" type="curve" smooth="yes"/>
      <point x="337.789" y="607"/>
      <point x="295.681" y="555.618"/>
      <point x="295.681" y="497.454" type="curve" smooth="yes"/>
      <point x="295.681" y="456.809"/>
      <point x="308.568" y="436.24"/>
      <point x="345.349" y="407.955" type="curve"/>
      <point x="400.612" y="447.746"/>
      <point x="445.978" y="491.14"/>
      <point x="445.978" y="536.715" type="curve" smooth="yes"/>
      <point x="445.978" y="585.467"/>
      <point x="427.333" y="607"/>
    </contour>
    <contour>
      <point x="408.574" y="643" type="curve" smooth="yes"/>
      <point x="480.387" y="643"/>
      <point x="561.329" y="597.554"/>
      <point x="561.329" y="532.452" type="curve" smooth="yes"/>
      <point x="561.329" y="448.643"/>
      <point x="466.998" y="399.168"/>
      <point x="412.186" y="363.708" type="curve"/>
      <point x="464.836" y="316.574"/>
      <point x="508.286" y="267.016"/>
      <point x="508.286" y="194.616" type="curve" smooth="yes"/>
      <point x="508.286" y="87.9463"/>
      <point x="378.295" y="-8"/>
      <point x="236.444" y="-8" type="curve" smooth="yes"/>
      <point x="153.018" y="-8"/>
      <point x="52" y="39.6729"/>
      <point x="52" y="123.052" type="curve" smooth="yes"/>
      <point x="52" y="227.342"/>
      <point x="141.649" y="282.42"/>
      <point x="235.379" y="341.364" type="curve"/>
      <point x="197.188" y="372.051"/>
      <point x="162.442" y="405.29"/>
      <point x="162.442" y="464.972" type="curve" smooth="yes"/>
      <point x="162.442" y="550.57"/>
      <point x="244.755" y="643"/>
    </contour>
  </outline>
</glyph>
<glyph name="nine" format="1">
  <advance width="520"/>
  <unicode hex="0039"/>
  <outline>
    <contour>
      <point x="54.4463" y="-6.58984" type="line"/>
      <point x="53.916" y="-5.18848"/>
      <point x="52" y="-0.00683594"/>
      <point x="52" y="6.95703" type="curve" smooth="yes"/>
      <point x="52" y="19.1992"/>
      <point x="58.7354" y="30.7598"/>
      <point x="72.9062" y="34.6426" type="curve"/>
      <point x="256.912" y="90.2656"/>
      <point x="419.191" y="243.771"/>
      <point x="419.191" y="467.656" type="curve" smooth="yes"/>
      <point x="419.191" y="537.86"/>
      <point x="374.799" y="600"/>
      <point x="324.87" y="600" type="curve" smooth="yes"/>
      <point x="269.772" y="600"/>
      <point x="184.575" y="529.176"/>
      <point x="184.575" y="399.665" type="curve" smooth="yes"/>
      <point x="184.575" y="332.392"/>
      <point x="210" y="310"/>
      <point x="246.966" y="310" type="curve" smooth="yes"/>
      <point x="291.991" y="310"/>
      <point x="303.991" y="327.105"/>
      <point x="326.558" y="346.046" type="curve" smooth="yes"/>
      <point x="332.488" y="351.021"/>
      <point x="338.477" y="352.76"/>
      <point x="344.338" y="352.76" type="curve" smooth="yes"/>
      <point x="353.08" y="352.76"/>
      <point x="361.896" y="345.847"/>
      <point x="361.896" y="336.352" type="curve" smooth="yes"/>
      <point x="361.896" y="327.823"/>
      <point x="357.221" y="321.119"/>
      <point x="354.052" y="317.485" type="curve" smooth="yes"/>
      <point x="353.729" y="317.116" type="line"/>
      <point x="353.327" y="316.729" type="line" smooth="yes"/>
      <point x="324.092" y="288.69"/>
      <point x="288.702" y="239.96"/>
      <point x="202.042" y="239.96" type="curve" smooth="yes"/>
      <point x="142.464" y="239.96"/>
      <point x="70.7148" y="279.288"/>
      <point x="70.7148" y="379.707" type="curve" smooth="yes"/>
      <point x="70.7148" y="549.38"/>
      <point x="200.679" y="641"/>
      <point x="331.691" y="641" type="curve" smooth="yes"/>
      <point x="440.587" y="641"/>
      <point x="520.011" y="573.251"/>
      <point x="520.011" y="462.29" type="curve" smooth="yes"/>
      <point x="520.011" y="155.118"/>
      <point x="261.273" y="30.8545"/>
      <point x="69.9336" y="-14.5879" type="curve"/>
      <point x="58.3721" y="-17.6045" type="line"/>
    </contour>
  </outline>
</glyph>
<glyph name="colon" format="1">
  <advance width="294"/>
  <unicode hex="003A"/>
  <outline>
    <contour>
      <point x="122.6" y="129.9" type="curve" smooth="yes"/>
      <point x="156.326" y="129.9"/>
      <point x="179.031" y="103.554"/>
      <point x="179.031" y="70.6924" type="curve" smooth="yes"/>
      <point x="179.031" y="20.291"/>
      <point x="133.059" y="-18"/>
      <point x="92" y="-18" type="curve" smooth="yes"/>
      <point x="57.4463" y="-18"/>
      <point x="35.5" y="8.10645"/>
      <point x="35.5" y="40.6396" type="curve" smooth="yes"/>
      <point x="35.5" y="91.167"/>
      <point x="79.9531" y="129.9"/>
    </contour>
    <contour>
      <point x="199.6" y="463.9" type="curve" smooth="yes"/>
      <point x="233.326" y="463.9"/>
      <point x="256.031" y="437.554"/>
      <point x="256.031" y="404.692" type="curve" smooth="yes"/>
      <point x="256.031" y="354.291"/>
      <point x="210.059" y="316"/>
      <point x="169" y="316" type="curve" smooth="yes"/>
      <point x="134.446" y="316"/>
      <point x="112.5" y="342.106"/>
      <point x="112.5" y="374.64" type="curve" smooth="yes"/>
      <point x="112.5" y="425.167"/>
      <point x="156.953" y="463.9"/>
    </contour>
  </outline>
</glyph>
<glyph name="semicolon" format="1">
  <advance width="325"/>
  <unicode hex="003B"/>
  <outline>
    <contour>
      <point x="151.093" y="129.941" type="curve" smooth="yes"/>
      <point x="184.981" y="129.941"/>
      <point x="205.811" y="103.783"/>
      <point x="205.811" y="74.9629" type="curve" smooth="yes"/>
      <point x="205.811" y="-26.6846"/>
      <point x="123.564" y="-87.3105"/>
      <point x="54.4805" y="-87.3105" type="curve" smooth="yes"/>
      <point x="30.6436" y="-87.3105" type="line"/>
      <point x="19.0498" y="-58.6621" type="line"/>
      <point x="31.5361" y="-58.6621" type="line" smooth="yes"/>
      <point x="49.4463" y="-58.6621"/>
      <point x="93.126" y="-37.0391"/>
      <point x="93.126" y="-19.2705" type="curve" smooth="yes"/>
      <point x="93.126" y="3.93945"/>
      <point x="63.4297" y="11.8975"/>
      <point x="63.4297" y="45.0107" type="curve" smooth="yes"/>
      <point x="63.4297" y="93.7705"/>
      <point x="110.11" y="129.941"/>
    </contour>
    <contour>
      <point x="228.6" y="463.9" type="curve" smooth="yes"/>
      <point x="262.326" y="463.9"/>
      <point x="285.031" y="437.554"/>
      <point x="285.031" y="404.692" type="curve" smooth="yes"/>
      <point x="285.031" y="354.291"/>
      <point x="239.059" y="316"/>
      <point x="198" y="316" type="curve" smooth="yes"/>
      <point x="163.446" y="316"/>
      <point x="141.5" y="342.106"/>
      <point x="141.5" y="374.64" type="curve" smooth="yes"/>
      <point x="141.5" y="425.167"/>
      <point x="185.953" y="463.9"/>
    </contour>
  </outline>
</glyph>
<glyph name="question" format="1">
  <advance width="598"/>
  <unicode hex="003F"/>
  <outline>
    <contour>
      <point x="210.6" y="129.9" type="curve" smooth="yes"/>
      <point x="244.326" y="129.9"/>
      <point x="267.031" y="103.554"/>
      <point x="267.031" y="70.6924" type="curve" smooth="yes"/>
      <point x="267.031" y="20.291"/>
      <point x="221.059" y="-18"/>
      <point x="180" y="-18" type="curve" smooth="yes"/>
      <point x="145.446" y="-18"/>
      <point x="123.5" y="8.10645"/>
      <point x="123.5" y="40.6396" type="curve" smooth="yes"/>
      <point x="123.5" y="91.167"/>
      <point x="167.953" y="129.9"/>
    </contour>
    <contour>
      <point x="185.932" y="333.521" type="curve" smooth="yes"/>
      <point x="187" y="338" type="line" smooth="yes"/>
      <point x="199.523" y="394.92"/>
      <point x="257.268" y="445.512"/>
      <point x="298.762" y="478.91" type="curve"/>
      <point x="374.169" y="539.018"/>
      <point x="418.215" y="554.013"/>
      <point x="418.215" y="633.542" type="curve" smooth="yes"/>
      <point x="418.215" y="697.137"/>
      <point x="387.057" y="740.575"/>
      <point x="352.214" y="740.575" type="curve" smooth="yes"/>
      <point x="306.461" y="740.575"/>
      <point x="272.771" y="685.045"/>
      <point x="263.074" y="663.713" type="curve"/>
      <point x="250.612" y="634.257"/>
      <point x="208.612" y="606.575"/>
      <point x="182.313" y="606.575" type="curve" smooth="yes"/>
      <point x="157.526" y="606.575"/>
      <point x="127.209" y="634.979"/>
      <point x="127.209" y="656.311" type="curve" smooth="yes"/>
      <point x="127.209" y="730.309"/>
      <point x="251.417" y="776.375"/>
      <point x="347.764" y="776.375" type="curve" smooth="yes"/>
      <point x="444.241" y="776.375"/>
      <point x="548.136" y="725.972"/>
      <point x="548.136" y="626.959" type="curve" smooth="yes"/>
      <point x="548.136" y="516.524"/>
      <point x="465.575" y="491.084"/>
      <point x="399.479" y="444.49" type="curve" smooth="yes"/>
      <point x="357.26" y="414.938"/>
      <point x="315.575" y="386.834"/>
      <point x="297.696" y="345.694" type="curve" smooth="yes"/>
      <point x="270.479" y="283.066"/>
      <point x="256.697" y="205.399"/>
      <point x="254.641" y="197.163" type="curve"/>
      <point x="175.062" y="205.167" type="line"/>
      <point x="179.957" y="250.479"/>
      <point x="185.913" y="332.776"/>
    </contour>
  </outline>
</glyph>
<glyph name="A" format="1">
  <advance width="725"/>
  <unicode hex="0041"/>
  <outline>
    <contour>
      <point x="681.881" y="30" type="line"/>
      <point x="681.881" y="30"/>
      <point x="682.239" y="27.9473"/>
      <point x="682.239" y="25.0059" type="curve" smooth="yes"/>
      <point x="682.239" y="21.9619"/>
      <point x="681.855" y="17.9639"/>
      <point x="680.292" y="14.3047" type="curve" smooth="yes"/>
      <point x="676.936" y="6.44727"/>
      <point x="666.9" y="0"/>
      <point x="666.9" y="0" type="curve"/>
      <point x="429.9" y="0" type="line"/>
      <point x="429.9" y="0"/>
      <point x="429.101" y="2.6875"/>
      <point x="429.101" y="6.43457" type="curve" smooth="yes"/>
      <point x="429.101" y="9.34082"/>
      <point x="429.582" y="12.8848"/>
      <point x="431.292" y="16.3047" type="curve" smooth="yes"/>
      <point x="435.292" y="24.3047"/>
      <point x="442.9" y="30"/>
      <point x="442.9" y="30" type="curve"/>
      <point x="448.435" y="30" type="line" smooth="yes"/>
      <point x="455.663" y="30"/>
      <point x="463.946" y="30.9707"/>
      <point x="471.273" y="31.8623" type="curve" smooth="yes"/>
      <point x="484.891" y="34.835"/>
      <point x="491.201" y="43.1748"/>
      <point x="495.567" y="58.7461" type="curve"/>
      <point x="496.487" y="64.1621"/>
      <point x="496.849" y="72.21"/>
      <point x="496.849" y="76.5059" type="curve" smooth="yes"/>
      <point x="496.849" y="78.1943"/>
      <point x="496.733" y="80.1504"/>
      <point x="496.498" y="81.9834" type="curve" smooth="yes"/>
      <point x="460.56" y="291.724" type="line"/>
      <point x="459.979" y="294.013"/>
      <point x="459.782" y="294.599"/>
      <point x="459.651" y="295" type="curve"/>
      <point x="320.282" y="295" type="line" smooth="yes"/>
      <point x="318.386" y="295"/>
      <point x="318.371" y="294.722"/>
      <point x="314.816" y="290.156" type="curve"/>
      <point x="176.363" y="86.1045" type="line"/>
      <point x="165.752" y="70.0078"/>
      <point x="160.598" y="63.21"/>
      <point x="160.598" y="51.8047" type="curve" smooth="yes"/>
      <point x="160.598" y="45.1133"/>
      <point x="165.047" y="38.0879"/>
      <point x="174.786" y="32.8555" type="curve" smooth="yes"/>
      <point x="179.259" y="30.4531"/>
      <point x="185.413" y="30"/>
      <point x="192.435" y="30" type="curve" smooth="yes"/>
      <point x="200.881" y="30" type="line"/>
      <point x="200.881" y="30"/>
      <point x="201.239" y="27.9473"/>
      <point x="201.239" y="25.0059" type="curve" smooth="yes"/>
      <point x="201.239" y="21.9619"/>
      <point x="200.855" y="17.9639"/>
      <point x="199.292" y="14.3047" type="curve" smooth="yes"/>
      <point x="195.936" y="6.44727"/>
      <point x="185.9" y="0"/>
      <point x="185.9" y="0" type="curve"/>
      <point x="-3.09961" y="0" type="line"/>
      <point x="-3.09961" y="0"/>
      <point x="-3.89941" y="2.6875"/>
      <point x="-3.89941" y="6.43457" type="curve" smooth="yes"/>
      <point x="-3.89941" y="9.34082"/>
      <point x="-3.41797" y="12.8848"/>
      <point x="-1.70801" y="16.3047" type="curve" smooth="yes"/>
      <point x="2.29199" y="24.3047"/>
      <point x="9.90039" y="30"/>
      <point x="9.90039" y="30" type="curve"/>
      <point x="16.4346" y="30" type="line" smooth="yes"/>
      <point x="22.459" y="30"/>
      <point x="31.8369" y="30.377"/>
      <point x="38.0635" y="32.8457" type="curve" smooth="yes"/>
      <point x="53.4766" y="38.957"/>
      <point x="64.4863" y="58.3252"/>
      <point x="75.5088" y="75.0254" type="curve"/>
      <point x="482.139" y="709.146" type="line"/>
      <point x="483.167" y="709.921" type="line" smooth="yes"/>
      <point x="497.96" y="721.076"/>
      <point x="513.707" y="718.951"/>
      <point x="526.109" y="728.504" type="curve" smooth="yes"/>
      <point x="535.62" y="735.977" type="line"/>
      <point x="642.335" y="53.915" type="line" smooth="yes"/>
      <point x="644.261" y="44.4707"/>
      <point x="646.198" y="37.9775"/>
      <point x="651.799" y="33.8398" type="curve" smooth="yes"/>
      <point x="655.877" y="30.8262"/>
      <point x="667.007" y="30"/>
      <point x="673.435" y="30" type="curve" smooth="yes"/>
    </contour>
    <contour>
      <point x="427.767" y="485.947" type="line"/>
      <point x="347.787" y="358" type="line"/>
      <point x="449.435" y="358" type="line" smooth="yes"/>
      <point x="449.731" y="358"/>
      <point x="450" y="358.032"/>
      <point x="450.179" y="358.049" type="curve"/>
      <point x="449.883" y="360.365"/>
      <point x="449.508" y="362.988"/>
      <point x="449.508" y="362.988" type="curve"/>
    </contour>
  </outline>
</glyph>
<glyph name="B" format="1">
  <advance width="636"/>
  <unicode hex="0042"/>
  <outline>
    <contour>
      <point x="138.971" y="700" type="line"/>
      <point x="138.971" y="700"/>
      <point x="138.101" y="702.688"/>
      <point x="138.101" y="706.435" type="curve" smooth="yes"/>
      <point x="138.101" y="709.341"/>
      <point x="138.582" y="712.885"/>
      <point x="140.292" y="716.305" type="curve" smooth="yes"/>
      <point x="144.292" y="724.305"/>
      <point x="151.9" y="730"/>
      <point x="151.9" y="730" type="curve"/>
      <point x="183.556" y="730" type="line" smooth="yes"/>
      <point x="245.835" y="730"/>
      <point x="326.018" y="734"/>
      <point x="387.957" y="734" type="curve" smooth="yes"/>
      <point x="518.002" y="734"/>
      <point x="584.678" y="673.322"/>
      <point x="584.678" y="585.227" type="curve" smooth="yes"/>
      <point x="584.678" y="483.218"/>
      <point x="492.583" y="418.802"/>
      <point x="405.152" y="390.651" type="curve"/>
      <point x="469.882" y="375.898"/>
      <point x="550.793" y="323.447"/>
      <point x="550.793" y="235.921" type="curve" smooth="yes"/>
      <point x="550.793" y="68.1953"/>
      <point x="422.672" y="-2"/>
      <point x="283.577" y="-2" type="curve" smooth="yes"/>
      <point x="215.524" y="-2"/>
      <point x="156.282" y="0"/>
      <point x="60.9658" y="0" type="curve" smooth="yes"/>
      <point x="-20.0996" y="0" type="line"/>
      <point x="-20.0996" y="0"/>
      <point x="-20.8994" y="2.6875"/>
      <point x="-20.8994" y="6.43457" type="curve" smooth="yes"/>
      <point x="-20.8994" y="9.34082"/>
      <point x="-20.418" y="12.8848"/>
      <point x="-18.708" y="16.3047" type="curve" smooth="yes"/>
      <point x="-14.708" y="24.3047"/>
      <point x="-7.09961" y="30"/>
      <point x="-7.09961" y="30" type="curve"/>
      <point x="-4.03418" y="30" type="line" smooth="yes"/>
      <point x="4.08594" y="30"/>
      <point x="11.0723" y="30.9922"/>
      <point x="18.3945" y="32.7852" type="curve"/>
      <point x="34.793" y="36.167"/>
      <point x="44.6963" y="56.6172"/>
      <point x="47.1562" y="67.0566" type="curve"/>
      <point x="77.1729" y="182.71"/>
      <point x="99.1455" y="288.184"/>
      <point x="126.284" y="403.742" type="curve" smooth="yes"/>
      <point x="146.56" y="490.078"/>
      <point x="180.85" y="653.242"/>
      <point x="180.85" y="653.242" type="curve"/>
      <point x="181.648" y="656.801"/>
      <point x="185" y="673.499"/>
      <point x="185" y="677" type="curve" smooth="yes"/>
      <point x="185" y="689.967"/>
      <point x="180.611" y="696.006"/>
      <point x="173.133" y="698.346" type="curve"/>
      <point x="167.437" y="699.873"/>
      <point x="159.637" y="700"/>
      <point x="151.329" y="700" type="curve" smooth="yes"/>
    </contour>
    <contour>
      <point x="260.003" y="349.34" type="curve"/>
      <point x="193.172" y="66.2188" type="line" smooth="yes"/>
      <point x="192.654" y="63.5479"/>
      <point x="189.375" y="49.749"/>
      <point x="189.375" y="47.8389" type="curve" smooth="yes"/>
      <point x="189.375" y="40.8115"/>
      <point x="193.381" y="40"/>
      <point x="199.672" y="40" type="curve" smooth="yes"/>
      <point x="215.653" y="40"/>
      <point x="223.311" y="39"/>
      <point x="238.643" y="39" type="curve" smooth="yes"/>
      <point x="364.526" y="39"/>
      <point x="416.461" y="143.081"/>
      <point x="416.461" y="233.94" type="curve" smooth="yes"/>
      <point x="416.461" y="306.993"/>
      <point x="356.469" y="351"/>
      <point x="302.533" y="351" type="curve" smooth="yes"/>
      <point x="286.231" y="351"/>
      <point x="270.22" y="349.849"/>
    </contour>
    <contour>
      <point x="347.561" y="692.055" type="curve"/>
      <point x="338.288" y="691.031"/>
      <point x="335.853" y="689"/>
      <point x="333.417" y="680.647" type="curve" smooth="yes"/>
      <point x="295.873" y="517.655" type="line"/>
      <point x="271.638" y="412" type="line"/>
      <point x="297.314" y="412" type="line" smooth="yes"/>
      <point x="390.536" y="412"/>
      <point x="458.036" y="482.696"/>
      <point x="458.036" y="591.899" type="curve" smooth="yes"/>
      <point x="458.036" y="653.011"/>
      <point x="421.467" y="694"/>
      <point x="376.168" y="694" type="curve" smooth="yes"/>
      <point x="360.986" y="694"/>
      <point x="348.738" y="692.098"/>
    </contour>
  </outline>
</glyph>
<glyph name="C" format="1">
  <advance width="791"/>
  <unicode hex="0043"/>
  <outline>
    <contour>
      <point x="546.452" y="742" type="curve" smooth="yes"/>
      <point x="688.433" y="742"/>
      <point x="738.955" y="657"/>
      <point x="760.392" y="657" type="curve" smooth="yes"/>
      <point x="777.969" y="657"/>
      <point x="782.81" y="684"/>
      <point x="799.392" y="684" type="curve" smooth="yes"/>
      <point x="805.211" y="684"/>
      <point x="810.227" y="679.325"/>
      <point x="810.227" y="670.501" type="curve" smooth="yes"/>
      <point x="810.227" y="668.637"/>
      <point x="810.078" y="665.925"/>
      <point x="809.632" y="663.589" type="curve"/>
      <point x="766.312" y="462.139" type="line"/>
      <point x="764.765" y="455.265"/>
      <point x="758.135" y="450.732"/>
      <point x="750.786" y="450.732" type="curve" smooth="yes"/>
      <point x="745.865" y="450.732"/>
      <point x="738.392" y="456.616"/>
      <point x="738.392" y="466" type="curve" smooth="yes"/>
      <point x="738.392" y="565.635"/>
      <point x="662.836" y="691"/>
      <point x="523.783" y="691" type="curve" smooth="yes"/>
      <point x="324.003" y="691"/>
      <point x="223.698" y="432.79"/>
      <point x="223.698" y="237.338" type="curve" smooth="yes"/>
      <point x="223.698" y="77.2354"/>
      <point x="335.991" y="46"/>
      <point x="392.164" y="46" type="curve" smooth="yes"/>
      <point x="560.13" y="46"/>
      <point x="663.373" y="184.746"/>
      <point x="676" y="203" type="curve"/>
      <point x="712.461" y="182.655" type="line"/>
      <point x="708.635" y="175.823"/>
      <point x="634.586" y="-10"/>
      <point x="374.951" y="-10" type="curve" smooth="yes"/>
      <point x="250.068" y="-10"/>
      <point x="57.3896" y="37.2637"/>
      <point x="57.3896" y="241.982" type="curve" smooth="yes"/>
      <point x="57.3896" y="524.517"/>
      <point x="230.938" y="742"/>
    </contour>
  </outline>
</glyph>
<glyph name="D" format="1">
  <advance width="867"/>
  <unicode hex="0044"/>
  <outline>
    <contour>
      <point x="215.291" y="700" type="line"/>
      <point x="214.9" y="700"/>
      <point x="214.101" y="702.688"/>
      <point x="214.101" y="706.435" type="curve" smooth="yes"/>
      <point x="214.101" y="709.341"/>
      <point x="214.582" y="712.885"/>
      <point x="216.292" y="716.305" type="curve" smooth="yes"/>
      <point x="220.292" y="724.305"/>
      <point x="227.9" y="730"/>
      <point x="227.9" y="730" type="curve"/>
      <point x="401.358" y="730" type="line" smooth="yes"/>
      <point x="451.667" y="730"/>
      <point x="482.07" y="731"/>
      <point x="531.547" y="731" type="curve" smooth="yes"/>
      <point x="698.76" y="731"/>
      <point x="824.99" y="641.958"/>
      <point x="824.99" y="467.927" type="curve" smooth="yes"/>
      <point x="824.99" y="170.607"/>
      <point x="634.869" y="-3"/>
      <point x="367.412" y="-3" type="curve" smooth="yes"/>
      <point x="359.183" y="-3" type="line" smooth="yes"/>
      <point x="347.893" y="-3"/>
      <point x="326.304" y="-2.05371"/>
      <point x="324.992" y="-1.99609" type="curve"/>
      <point x="321.639" y="-1.9248"/>
      <point x="231.074" y="0"/>
      <point x="215.166" y="0" type="curve" smooth="yes"/>
      <point x="52.9004" y="0" type="line"/>
      <point x="52.9004" y="0"/>
      <point x="52.1006" y="2.6875"/>
      <point x="52.1006" y="6.43457" type="curve" smooth="yes"/>
      <point x="52.1006" y="9.34082"/>
      <point x="52.582" y="12.8848"/>
      <point x="54.292" y="16.3047" type="curve" smooth="yes"/>
      <point x="58.292" y="24.3047"/>
      <point x="65.9004" y="30"/>
      <point x="65.9004" y="30" type="curve"/>
      <point x="69.9658" y="30" type="line" smooth="yes"/>
      <point x="78.0859" y="30"/>
      <point x="85.0723" y="30.9922"/>
      <point x="92.3945" y="32.7852" type="curve"/>
      <point x="108.793" y="36.167"/>
      <point x="115.696" y="46.6172"/>
      <point x="118.156" y="57.0566" type="curve"/>
      <point x="147.181" y="172.741"/>
      <point x="167" y="268"/>
      <point x="198.897" y="402.797" type="curve" smooth="yes"/>
      <point x="224" y="509"/>
      <point x="236.395" y="574.76"/>
      <point x="257" y="666" type="curve"/>
      <point x="257.467" y="667.927"/>
      <point x="258.67" y="675.614"/>
      <point x="258.67" y="677.312" type="curve" smooth="yes"/>
      <point x="258.67" y="687.582"/>
      <point x="255.868" y="695.675"/>
      <point x="246.496" y="698.224" type="curve" smooth="yes"/>
      <point x="240.385" y="699.886"/>
      <point x="234" y="700"/>
      <point x="225.514" y="700" type="curve" smooth="yes"/>
    </contour>
    <contour>
      <point x="414.126" y="675.872" type="curve"/>
      <point x="411.056" y="660.779" type="line"/>
      <point x="361.593" y="454.931"/>
      <point x="273.873" y="55.3086"/>
      <point x="273.873" y="55.3086" type="curve"/>
      <point x="273.16" y="51.6934"/>
      <point x="272.752" y="48.4258"/>
      <point x="272.752" y="46.5869" type="curve" smooth="yes"/>
      <point x="272.752" y="44.8672"/>
      <point x="273.071" y="44.1289"/>
      <point x="273.071" y="44.127" type="curve"/>
      <point x="273.208" y="44.0371"/>
      <point x="275.409" y="43.3086"/>
      <point x="278.356" y="43.0029" type="curve"/>
      <point x="324.361" y="44" type="line"/>
      <point x="342.924" y="44" type="line" smooth="yes"/>
      <point x="565.946" y="44"/>
      <point x="668.703" y="260.384"/>
      <point x="668.703" y="480.383" type="curve" smooth="yes"/>
      <point x="668.703" y="626.278"/>
      <point x="581.014" y="682"/>
      <point x="463.256" y="682" type="curve" smooth="yes"/>
      <point x="421.444" y="682" type="line" smooth="yes"/>
      <point x="418.258" y="682"/>
      <point x="414.637" y="678.787"/>
    </contour>
  </outline>
</glyph>
<glyph name="E" format="1">
  <advance width="668"/>
  <unicode hex="0045"/>
  <outline>
    <contour>
      <point x="184.174" y="699.564" type="line"/>
      <point x="184.174" y="699.564"/>
      <point x="183.101" y="702.688"/>
      <point x="183.101" y="706.435" type="curve" smooth="yes"/>
      <point x="183.101" y="709.341"/>
      <point x="183.582" y="712.885"/>
      <point x="185.292" y="716.305" type="curve" smooth="yes"/>
      <point x="189.292" y="724.305"/>
      <point x="196.9" y="730"/>
      <point x="196.9" y="730" type="curve"/>
      <point x="655.062" y="730" type="line"/>
      <point x="633.307" y="565.543" type="line"/>
      <point x="610.941" y="567.498" type="line"/>
      <point x="611.165" y="574.232" type="line" smooth="yes"/>
      <point x="611.248" y="576.752"/>
      <point x="611.291" y="579.207"/>
      <point x="611.291" y="581.598" type="curve" smooth="yes"/>
      <point x="611.291" y="633.845"/>
      <point x="592.492" y="667.014"/>
      <point x="545.762" y="684.424" type="curve"/>
      <point x="518.771" y="693.819"/>
      <point x="504.069" y="695"/>
      <point x="458.44" y="695" type="curve" smooth="yes"/>
      <point x="439.018" y="695"/>
      <point x="421.103" y="694.061"/>
      <point x="401.448" y="692.117" type="curve"/>
      <point x="387.682" y="690.502"/>
      <point x="380.752" y="681.434"/>
      <point x="378.476" y="672.879" type="curve"/>
      <point x="318.979" y="415.262" type="line"/>
      <point x="347.564" y="413.264"/>
      <point x="376.654" y="411"/>
      <point x="404.578" y="411" type="curve" smooth="yes"/>
      <point x="440.163" y="411"/>
      <point x="456.929" y="411.374"/>
      <point x="486.782" y="416.909" type="curve" smooth="yes"/>
      <point x="502.054" y="419.741"/>
      <point x="510.512" y="426.15"/>
      <point x="516.693" y="438.901" type="curve" smooth="yes"/>
      <point x="521.446" y="449.195"/>
      <point x="524" y="459"/>
      <point x="526.61" y="470" type="curve"/>
      <point x="547.951" y="470" type="line"/>
      <point x="507.637" y="308" type="line"/>
      <point x="489.291" y="308" type="line"/>
      <point x="490.896" y="315.703"/>
      <point x="491.909" y="323.627"/>
      <point x="491.909" y="330.595" type="curve" smooth="yes"/>
      <point x="491.909" y="335.386"/>
      <point x="491.43" y="339.725"/>
      <point x="490.336" y="343.229" type="curve" smooth="yes"/>
      <point x="486.848" y="354.404"/>
      <point x="480.875" y="361.766"/>
      <point x="472.434" y="363.091" type="curve" smooth="yes"/>
      <point x="445.075" y="367.387"/>
      <point x="427.26" y="368"/>
      <point x="395.307" y="368" type="curve" smooth="yes"/>
      <point x="365.68" y="368"/>
      <point x="331.266" y="365.24"/>
      <point x="305.482" y="362.69" type="curve"/>
      <point x="235.882" y="59.9424" type="line"/>
      <point x="235.43" y="58.0908"/>
      <point x="235.21" y="56.2734"/>
      <point x="235.21" y="54.4062" type="curve" smooth="yes"/>
      <point x="235.21" y="45.8057"/>
      <point x="245.34" y="39.0049"/>
      <point x="255.375" y="37.8916" type="curve" smooth="yes"/>
      <point x="273.075" y="35.9277"/>
      <point x="275.833" y="35"/>
      <point x="293.194" y="35" type="curve" smooth="yes"/>
      <point x="353.364" y="35"/>
      <point x="382.727" y="36.0713"/>
      <point x="425.173" y="45.8008" type="curve"/>
      <point x="485.217" y="60.251"/>
      <point x="518.353" y="100.024"/>
      <point x="544.738" y="158.783" type="curve" smooth="yes"/>
      <point x="546.443" y="162.719" type="line"/>
      <point x="572.253" y="164.645" type="line"/>
      <point x="514.354" y="0" type="line"/>
      <point x="20.1953" y="0" type="line"/>
      <point x="20.1953" y="0"/>
      <point x="19.1006" y="2.6875"/>
      <point x="19.1006" y="6.43457" type="curve" smooth="yes"/>
      <point x="19.1006" y="9.34082"/>
      <point x="19.582" y="12.8848"/>
      <point x="21.292" y="16.3047" type="curve" smooth="yes"/>
      <point x="25.292" y="24.3047"/>
      <point x="32.9004" y="30"/>
      <point x="32.9004" y="30" type="curve"/>
      <point x="36.1611" y="29.4355" type="line" smooth="yes"/>
      <point x="46.166" y="29.4355"/>
      <point x="47.6455" y="29.4707"/>
      <point x="56.7529" y="31.2578" type="curve"/>
      <point x="72.8379" y="34.5801"/>
      <point x="81.9062" y="46.1436"/>
      <point x="84.3398" y="56.4902" type="curve" smooth="yes"/>
      <point x="84.415" y="56.8086" type="line"/>
      <point x="84.5195" y="57.1182" type="line" smooth="yes"/>
      <point x="90.1357" y="73.6494"/>
      <point x="134.261" y="250.382"/>
      <point x="170.66" y="411.663" type="curve" smooth="yes"/>
      <point x="198.757" y="536.155"/>
      <point x="220.858" y="636.321"/>
      <point x="225.891" y="661.079" type="curve" smooth="yes"/>
      <point x="229.657" y="679.851" type="line" smooth="yes"/>
      <point x="229.657" y="687.133"/>
      <point x="227.281" y="695.857"/>
      <point x="215.676" y="697.785" type="curve" smooth="yes"/>
      <point x="208.064" y="699.05"/>
      <point x="204.875" y="699.564"/>
      <point x="196.487" y="699.564" type="curve" smooth="yes"/>
    </contour>
  </outline>
</glyph>
<glyph name="F" format="1">
  <advance width="663"/>
  <unicode hex="0046"/>
  <outline>
    <contour>
      <point x="275.881" y="30" type="line"/>
      <point x="275.881" y="30"/>
      <point x="276.239" y="27.9473"/>
      <point x="276.239" y="25.0059" type="curve" smooth="yes"/>
      <point x="276.239" y="21.9619"/>
      <point x="275.855" y="17.9639"/>
      <point x="274.292" y="14.3047" type="curve" smooth="yes"/>
      <point x="270.936" y="6.44727"/>
      <point x="260.9" y="0"/>
      <point x="260.9" y="0" type="curve"/>
      <point x="18" y="0" type="line"/>
      <point x="18" y="0"/>
      <point x="17.1006" y="2.6875"/>
      <point x="17.1006" y="6.43457" type="curve" smooth="yes"/>
      <point x="17.1006" y="9.34082"/>
      <point x="17.582" y="12.8848"/>
      <point x="19.292" y="16.3047" type="curve" smooth="yes"/>
      <point x="23.292" y="24.3047"/>
      <point x="30.9004" y="30"/>
      <point x="30.9004" y="30" type="curve"/>
      <point x="35.9658" y="30" type="line" smooth="yes"/>
      <point x="44.0859" y="30"/>
      <point x="53.0723" y="30.9922"/>
      <point x="60.3945" y="32.7871" type="curve"/>
      <point x="77.0479" y="37.2246"/>
      <point x="85.752" y="55.8867"/>
      <point x="88.29" y="66.5762" type="curve" smooth="yes"/>
      <point x="94.0029" y="84.3105"/>
      <point x="131.196" y="241.565"/>
      <point x="168.082" y="397.241" type="curve" smooth="yes"/>
      <point x="199.253" y="528.799"/>
      <point x="227.34" y="661.555"/>
      <point x="227.367" y="661.676" type="curve"/>
      <point x="227.748" y="663.237"/>
      <point x="232.084" y="682.143"/>
      <point x="232.084" y="682.889" type="curve" smooth="yes"/>
      <point x="232.084" y="690.162"/>
      <point x="228.554" y="696.268"/>
      <point x="217.169" y="698.8" type="curve"/>
      <point x="208.952" y="700.526"/>
      <point x="208.118" y="700.588"/>
      <point x="197.748" y="700.588" type="curve" smooth="yes"/>
      <point x="182.449" y="700.588" type="line"/>
      <point x="182.449" y="700.588"/>
      <point x="181.101" y="702.688"/>
      <point x="181.101" y="706.435" type="curve" smooth="yes"/>
      <point x="181.101" y="709.341"/>
      <point x="181.582" y="712.885"/>
      <point x="183.292" y="716.305" type="curve" smooth="yes"/>
      <point x="187.292" y="724.305"/>
      <point x="194.9" y="730"/>
      <point x="194.9" y="730" type="curve"/>
      <point x="678.811" y="730" type="line"/>
      <point x="657.162" y="565.571" type="line"/>
      <point x="633.743" y="567.466" type="line"/>
      <point x="633.97" y="574.234" type="line" smooth="yes"/>
      <point x="634.065" y="577.105"/>
      <point x="634.114" y="579.907"/>
      <point x="634.114" y="582.636" type="curve" smooth="yes"/>
      <point x="634.114" y="635.01"/>
      <point x="617.532" y="670.828"/>
      <point x="570.075" y="684.26" type="curve"/>
      <point x="534.479" y="693.896"/>
      <point x="509.417" y="695"/>
      <point x="452.438" y="695" type="curve" smooth="yes"/>
      <point x="432.998" y="695"/>
      <point x="423.16" y="694.064"/>
      <point x="403.415" y="692.106" type="curve" smooth="yes"/>
      <point x="387.538" y="690.532"/>
      <point x="377.102" y="668.668"/>
      <point x="374.498" y="658.037" type="curve"/>
      <point x="314.98" y="396.326" type="line"/>
      <point x="350.663" y="394.097"/>
      <point x="370.805" y="392.926"/>
      <point x="407.927" y="392.926" type="curve" smooth="yes"/>
      <point x="453.962" y="392.926"/>
      <point x="483.471" y="394.199"/>
      <point x="499.395" y="418.902" type="curve" smooth="yes"/>
      <point x="505.534" y="428.428"/>
      <point x="509" y="437"/>
      <point x="513.293" y="452" type="curve"/>
      <point x="534.937" y="452" type="line"/>
      <point x="493.338" y="290" type="line"/>
      <point x="475.029" y="290" type="line"/>
      <point x="475.969" y="300.353"/>
      <point x="477.076" y="312.378"/>
      <point x="477.076" y="327.229" type="curve" smooth="yes"/>
      <point x="477.076" y="339.242"/>
      <point x="467.775" y="342.608"/>
      <point x="458.216" y="344.089" type="curve" smooth="yes"/>
      <point x="431.213" y="348.27"/>
      <point x="408.092" y="350"/>
      <point x="376.21" y="350" type="curve" smooth="yes"/>
      <point x="346.472" y="350"/>
      <point x="326.637" y="347.284"/>
      <point x="300.319" y="344.671" type="curve"/>
      <point x="278.179" y="248.196"/>
      <point x="259.65" y="164.109"/>
      <point x="235.165" y="66.9795" type="curve" smooth="yes"/>
      <point x="234.658" y="64.9697"/>
      <point x="233.472" y="58.2744"/>
      <point x="233.472" y="56.6201" type="curve" smooth="yes"/>
      <point x="233.472" y="49.8525"/>
      <point x="233.893" y="37.5322"/>
      <point x="243.243" y="33.4922" type="curve" smooth="yes"/>
      <point x="250.185" y="30.4932"/>
      <point x="256" y="30"/>
      <point x="266.788" y="30" type="curve" smooth="yes"/>
    </contour>
  </outline>
</glyph>
<glyph name="G" format="1">
  <advance width="805"/>
  <unicode hex="0047"/>
  <outline>
    <contour>
      <point x="745.811" y="284" type="line" smooth="yes"/>
      <point x="716.604" y="284"/>
      <point x="697.138" y="266.15"/>
      <point x="692.615" y="247.009" type="curve" smooth="yes"/>
      <point x="673.607" y="167.037" type="line"/>
      <point x="667.302" y="141.385"/>
      <point x="658.449" y="134.321"/>
      <point x="639.401" y="113.422" type="curve"/>
      <point x="588.632" y="58.2988"/>
      <point x="465.814" y="-10"/>
      <point x="333.39" y="-10" type="curve" smooth="yes"/>
      <point x="212.36" y="-10"/>
      <point x="38.0381" y="36.7383"/>
      <point x="38.0381" y="243.393" type="curve" smooth="yes"/>
      <point x="38.0381" y="525.32"/>
      <point x="224.058" y="742"/>
      <point x="518.856" y="742" type="curve" smooth="yes"/>
      <point x="660.834" y="742"/>
      <point x="701.374" y="657"/>
      <point x="722.811" y="657" type="curve" smooth="yes"/>
      <point x="741.369" y="657"/>
      <point x="742.353" y="684"/>
      <point x="762.811" y="684" type="curve" smooth="yes"/>
      <point x="771.384" y="684"/>
      <point x="776.481" y="676.648"/>
      <point x="776.481" y="669.294" type="curve" smooth="yes"/>
      <point x="776.481" y="668.157"/>
      <point x="776.422" y="667.371"/>
      <point x="776.201" y="665.998" type="curve"/>
      <point x="735" y="470" type="line" smooth="yes"/>
      <point x="733.543" y="462.968"/>
      <point x="729.292" y="453"/>
      <point x="719" y="453" type="curve" smooth="yes"/>
      <point x="712.397" y="453"/>
      <point x="702.811" y="459.885"/>
      <point x="702.811" y="468" type="curve" smooth="yes"/>
      <point x="702.811" y="567.635"/>
      <point x="639.255" y="691"/>
      <point x="500.188" y="691" type="curve" smooth="yes"/>
      <point x="321.604" y="691"/>
      <point x="201.694" y="435.552"/>
      <point x="201.694" y="241.036" type="curve" smooth="yes"/>
      <point x="201.694" y="97.5342"/>
      <point x="289.098" y="46"/>
      <point x="345.754" y="46" type="curve" smooth="yes"/>
      <point x="440.436" y="46"/>
      <point x="540" y="125"/>
      <point x="550.698" y="172.712" type="curve"/>
      <point x="566.244" y="247.226" type="line"/>
      <point x="566.717" y="249.159"/>
      <point x="567.918" y="258.815"/>
      <point x="567.918" y="260.502" type="curve" smooth="yes"/>
      <point x="567.918" y="276.165"/>
      <point x="552.742" y="284"/>
      <point x="534.041" y="284" type="curve" smooth="yes"/>
      <point x="525.351" y="284" type="line"/>
      <point x="531.146" y="309" type="line"/>
      <point x="758.776" y="309" type="line"/>
      <point x="751.276" y="284" type="line"/>
    </contour>
  </outline>
</glyph>
<glyph name="H" format="1">
  <advance width="858"/>
  <unicode hex="0048"/>
  <outline>
    <contour>
      <point x="459" y="0" type="line"/>
      <point x="458.9" y="0"/>
      <point x="458.101" y="2.6875"/>
      <point x="458.101" y="6.43457" type="curve" smooth="yes"/>
      <point x="458.101" y="9.34082"/>
      <point x="458.582" y="12.8848"/>
      <point x="460.292" y="16.3047" type="curve" smooth="yes"/>
      <point x="464.292" y="24.3047"/>
      <point x="471.9" y="30"/>
      <point x="471.9" y="30" type="curve"/>
      <point x="476.966" y="30" type="line" smooth="yes"/>
      <point x="485.062" y="30"/>
      <point x="494" y="31"/>
      <point x="500.357" y="32.7773" type="curve" smooth="yes"/>
      <point x="517.556" y="37.5859"/>
      <point x="526.809" y="56.1201"/>
      <point x="529.144" y="66.0352" type="curve" smooth="yes"/>
      <point x="598" y="365" type="line"/>
      <point x="597.737" y="365.359"/>
      <point x="596.67" y="366"/>
      <point x="595.882" y="366" type="curve"/>
      <point x="543.236" y="366.001"/>
      <point x="516.372" y="368"/>
      <point x="454.255" y="368" type="curve" smooth="yes"/>
      <point x="393.085" y="368"/>
      <point x="350.119" y="366.042"/>
      <point x="301.904" y="366.021" type="curve"/>
      <point x="300.722" y="365.491"/>
      <point x="299.075" y="363.076"/>
      <point x="298.68" y="362.096" type="curve"/>
      <point x="290.919" y="325.679"/>
      <point x="282.958" y="298.2"/>
      <point x="274.485" y="262.688" type="curve"/>
      <point x="256.806" y="192.198"/>
      <point x="246.727" y="144.318"/>
      <point x="229.827" y="74.1465" type="curve"/>
      <point x="228.559" y="68.8848"/>
      <point x="226.595" y="57.1074"/>
      <point x="226.595" y="55.8721" type="curve" smooth="yes"/>
      <point x="226.595" y="45.9746"/>
      <point x="228.205" y="37.4395"/>
      <point x="238.776" y="32.7275" type="curve" smooth="yes"/>
      <point x="244.812" y="30.0371"/>
      <point x="251.852" y="30"/>
      <point x="259.966" y="30" type="curve" smooth="yes"/>
      <point x="268.881" y="30" type="line"/>
      <point x="268.881" y="30"/>
      <point x="269.239" y="27.9473"/>
      <point x="269.239" y="25.0059" type="curve" smooth="yes"/>
      <point x="269.239" y="21.9619"/>
      <point x="268.855" y="17.9639"/>
      <point x="267.292" y="14.3047" type="curve" smooth="yes"/>
      <point x="263.936" y="6.44727"/>
      <point x="254.431" y="0"/>
      <point x="254.431" y="0" type="curve"/>
      <point x="10" y="0" type="line"/>
      <point x="10" y="0"/>
      <point x="9.10059" y="2.6875"/>
      <point x="9.10059" y="6.43457" type="curve" smooth="yes"/>
      <point x="9.10059" y="9.34082"/>
      <point x="9.58203" y="12.8848"/>
      <point x="11.292" y="16.3047" type="curve" smooth="yes"/>
      <point x="15.292" y="24.3047"/>
      <point x="22.9004" y="30"/>
      <point x="22.9004" y="30" type="curve"/>
      <point x="26.9658" y="30" type="line" smooth="yes"/>
      <point x="35.0859" y="30"/>
      <point x="42.0723" y="30.9922"/>
      <point x="49.3945" y="32.7852" type="curve"/>
      <point x="65.792" y="36.167"/>
      <point x="76.6973" y="56.6221"/>
      <point x="79.1543" y="67.0508" type="curve"/>
      <point x="108.182" y="183.725"/>
      <point x="133.148" y="289.175"/>
      <point x="160.141" y="405.707" type="curve" smooth="yes"/>
      <point x="181.15" y="495.865"/>
      <point x="198.105" y="573.762"/>
      <point x="217.127" y="663.977" type="curve"/>
      <point x="217.595" y="665.962"/>
      <point x="219.784" y="676.603"/>
      <point x="219.784" y="678.316" type="curve" smooth="yes"/>
      <point x="219.784" y="685.697"/>
      <point x="217.201" y="690.779"/>
      <point x="208.245" y="695.251" type="curve" smooth="yes"/>
      <point x="202.73" y="698.005"/>
      <point x="194.851" y="700"/>
      <point x="185.966" y="700" type="curve" smooth="yes"/>
      <point x="174.9" y="700" type="line"/>
      <point x="174.9" y="700"/>
      <point x="174.101" y="702.688"/>
      <point x="174.101" y="706.435" type="curve" smooth="yes"/>
      <point x="174.101" y="709.341"/>
      <point x="174.582" y="712.885"/>
      <point x="176.292" y="716.305" type="curve" smooth="yes"/>
      <point x="180.292" y="724.305"/>
      <point x="187.9" y="730"/>
      <point x="187.9" y="730" type="curve"/>
      <point x="439.077" y="730" type="line"/>
      <point x="439.077" y="730"/>
      <point x="440.239" y="727.947"/>
      <point x="440.239" y="725.006" type="curve" smooth="yes"/>
      <point x="440.239" y="721.962"/>
      <point x="439.855" y="718.964"/>
      <point x="438.292" y="715.305" type="curve" smooth="yes"/>
      <point x="434.936" y="707.447"/>
      <point x="424.9" y="701"/>
      <point x="424.9" y="701" type="curve"/>
      <point x="418.966" y="701" type="line" smooth="yes"/>
      <point x="411.472" y="701"/>
      <point x="403.733" y="700.302"/>
      <point x="394.536" y="698.247" type="curve" smooth="yes"/>
      <point x="380" y="695"/>
      <point x="370.285" y="678.477"/>
      <point x="366.798" y="664.156" type="curve"/>
      <point x="353.756" y="609.367"/>
      <point x="343.81" y="561.075"/>
      <point x="330.771" y="506.298" type="curve"/>
      <point x="323.87" y="479.376"/>
      <point x="318.626" y="455.116"/>
      <point x="312.919" y="430.95" type="curve"/>
      <point x="362.643" y="430.905"/>
      <point x="403.396" y="429"/>
      <point x="464.725" y="429" type="curve" smooth="yes"/>
      <point x="527.819" y="429"/>
      <point x="553.68" y="429.998"/>
      <point x="606.403" y="431" type="curve"/>
      <point x="612.083" y="431"/>
      <point x="612.583" y="432.757"/>
      <point x="613.069" y="433.877" type="curve"/>
      <point x="667.131" y="667.1" type="line"/>
      <point x="667.557" y="669.04"/>
      <point x="668.784" y="676.029"/>
      <point x="668.784" y="677.751" type="curve" smooth="yes"/>
      <point x="668.784" y="685.195"/>
      <point x="666.828" y="689.579"/>
      <point x="659.362" y="695.231" type="curve" smooth="yes"/>
      <point x="654.137" y="699.188"/>
      <point x="646" y="700"/>
      <point x="636.966" y="700" type="curve" smooth="yes"/>
      <point x="627.9" y="700" type="line"/>
      <point x="627.9" y="700"/>
      <point x="627.101" y="702.688"/>
      <point x="627.101" y="706.435" type="curve" smooth="yes"/>
      <point x="627.101" y="709.341"/>
      <point x="627.582" y="712.885"/>
      <point x="629.292" y="716.305" type="curve" smooth="yes"/>
      <point x="633.292" y="724.305"/>
      <point x="640.9" y="730"/>
      <point x="640.9" y="730" type="curve"/>
      <point x="888.931" y="730" type="line"/>
      <point x="888.931" y="730"/>
      <point x="890.239" y="727.947"/>
      <point x="890.239" y="725.006" type="curve" smooth="yes"/>
      <point x="890.239" y="721.962"/>
      <point x="889.855" y="717.964"/>
      <point x="888.292" y="714.305" type="curve" smooth="yes"/>
      <point x="884.936" y="706.447"/>
      <point x="874.9" y="700"/>
      <point x="874.9" y="700" type="curve"/>
      <point x="869.966" y="700" type="line" smooth="yes"/>
      <point x="861.868" y="700"/>
      <point x="853.811" y="699.996"/>
      <point x="846.574" y="698.224" type="curve"/>
      <point x="830.61" y="694.749"/>
      <point x="819.957" y="675.787"/>
      <point x="816.724" y="664.701" type="curve"/>
      <point x="792.818" y="572.988"/>
      <point x="775.771" y="490.736"/>
      <point x="753.785" y="398.717" type="curve"/>
      <point x="726.789" y="283.149"/>
      <point x="704.801" y="182.615"/>
      <point x="678.794" y="67" type="curve"/>
      <point x="678.438" y="65.4873"/>
      <point x="677.287" y="59.1543"/>
      <point x="677.287" y="57.8252" type="curve" smooth="yes"/>
      <point x="677.287" y="50.8662"/>
      <point x="679.553" y="37.0459"/>
      <point x="687.776" y="33.7266" type="curve" smooth="yes"/>
      <point x="695.511" y="30.6045"/>
      <point x="701.852" y="30"/>
      <point x="709.966" y="30" type="curve" smooth="yes"/>
      <point x="718.881" y="30" type="line"/>
      <point x="718.881" y="30"/>
      <point x="719.239" y="27.9473"/>
      <point x="719.239" y="25.0059" type="curve" smooth="yes"/>
      <point x="719.239" y="21.9619"/>
      <point x="718.855" y="17.9639"/>
      <point x="717.292" y="14.3047" type="curve" smooth="yes"/>
      <point x="713.936" y="6.44727"/>
      <point x="703.9" y="0"/>
      <point x="703.9" y="0" type="curve"/>
    </contour>
  </outline>
</glyph>
<glyph name="I" format="1">
  <advance width="407"/>
  <unicode hex="0049"/>
  <outline>
    <contour>
      <point x="262.077" y="31" type="line"/>
      <point x="262.077" y="31"/>
      <point x="263.239" y="27.9473"/>
      <point x="263.239" y="25.0059" type="curve" smooth="yes"/>
      <point x="263.239" y="21.9619"/>
      <point x="262.855" y="18.9639"/>
      <point x="261.292" y="15.3047" type="curve" smooth="yes"/>
      <point x="257.936" y="7.44727"/>
      <point x="247.9" y="0"/>
      <point x="247.9" y="0" type="curve"/>
      <point x="-0.0996094" y="0" type="line"/>
      <point x="-0.0996094" y="0"/>
      <point x="-0.899414" y="2.6875"/>
      <point x="-0.899414" y="6.43457" type="curve" smooth="yes"/>
      <point x="-0.899414" y="9.34082"/>
      <point x="-0.417969" y="12.8848"/>
      <point x="1.29199" y="16.3047" type="curve" smooth="yes"/>
      <point x="5.29199" y="24.3047"/>
      <point x="12.9004" y="30"/>
      <point x="12.9004" y="30" type="curve"/>
      <point x="17.9658" y="30" type="line" smooth="yes"/>
      <point x="26.0859" y="30"/>
      <point x="33.0996" y="30.8232"/>
      <point x="41.3945" y="33.7852" type="curve" smooth="yes"/>
      <point x="56" y="39"/>
      <point x="66.5293" y="52.8545"/>
      <point x="70.1543" y="67.0498" type="curve" smooth="yes"/>
      <point x="120.432" y="263.928"/>
      <point x="169.576" y="466.961"/>
      <point x="211.136" y="662.015" type="curve" smooth="yes"/>
      <point x="211.543" y="663.926"/>
      <point x="212.785" y="670.626"/>
      <point x="212.785" y="672.315" type="curve" smooth="yes"/>
      <point x="212.785" y="683.443"/>
      <point x="212" y="689"/>
      <point x="202.042" y="695.305" type="curve" smooth="yes"/>
      <point x="196.966" y="698.519"/>
      <point x="190.013" y="700"/>
      <point x="181.966" y="700" type="curve" smooth="yes"/>
      <point x="171.9" y="700" type="line"/>
      <point x="171.9" y="700"/>
      <point x="171.101" y="702.688"/>
      <point x="171.101" y="706.435" type="curve" smooth="yes"/>
      <point x="171.101" y="709.341"/>
      <point x="171.582" y="712.885"/>
      <point x="173.292" y="716.305" type="curve" smooth="yes"/>
      <point x="177.292" y="724.305"/>
      <point x="184.5" y="730"/>
      <point x="184.5" y="730" type="curve"/>
      <point x="418.931" y="730" type="line"/>
      <point x="418.931" y="730"/>
      <point x="420.239" y="726.947"/>
      <point x="420.239" y="724.006" type="curve" smooth="yes"/>
      <point x="420.239" y="720.962"/>
      <point x="419.855" y="717.964"/>
      <point x="418.292" y="714.305" type="curve" smooth="yes"/>
      <point x="414.936" y="706.447"/>
      <point x="404.9" y="700"/>
      <point x="404.9" y="700" type="curve"/>
      <point x="398.966" y="700" type="line" smooth="yes"/>
      <point x="395.296" y="700"/>
      <point x="390.85" y="699.47"/>
      <point x="383.182" y="697.146" type="curve" smooth="yes"/>
      <point x="369.433" y="692.978"/>
      <point x="359.34" y="674.95"/>
      <point x="356.771" y="664.889" type="curve" smooth="yes"/>
      <point x="309.32" y="478.964"/>
      <point x="256.552" y="252.546"/>
      <point x="216" y="69" type="curve" smooth="yes"/>
      <point x="214.855" y="63.8184"/>
      <point x="213.122" y="58.0332"/>
      <point x="213.122" y="52.3633" type="curve" smooth="yes"/>
      <point x="213.122" y="45.0703"/>
      <point x="215.833" y="37.6143"/>
      <point x="223.316" y="34.7266" type="curve" smooth="yes"/>
      <point x="229.025" y="32.5244"/>
      <point x="237.852" y="31"/>
      <point x="245.966" y="31" type="curve" smooth="yes"/>
    </contour>
  </outline>
</glyph>
<glyph name="J" format="1">
  <advance width="356"/>
  <unicode hex="004A"/>
  <outline>
    <contour>
      <point x="332.668" y="664.779" type="curve"/>
      <point x="317.669" y="604.736"/>
      <point x="298.735" y="520.055"/>
      <point x="276.689" y="422.847" type="curve" smooth="yes"/>
      <point x="236.581" y="245.994"/>
      <point x="191.247" y="60.6416"/>
      <point x="185.89" y="37.9873" type="curve"/>
      <point x="150.766" y="-99.2529"/>
      <point x="38.7998" y="-175"/>
      <point x="-172.91" y="-179.996" type="curve" smooth="yes"/>
      <point x="-182" y="-180.288" type="line"/>
      <point x="-171.029" y="-138.413" type="line"/>
      <point x="-167.07" y="-137.273" type="line" smooth="yes"/>
      <point x="-34.9912" y="-100.341"/>
      <point x="8.03418" y="-66.1289"/>
      <point x="47.2803" y="84.9102" type="curve"/>
      <point x="54.7471" y="112.347"/>
      <point x="105.341" y="318.154"/>
      <point x="138.687" y="467.432" type="curve" smooth="yes"/>
      <point x="156.961" y="549.239"/>
      <point x="170.032" y="606.821"/>
      <point x="182.032" y="661.905" type="curve" smooth="yes"/>
      <point x="182.439" y="663.816"/>
      <point x="183.682" y="670.517"/>
      <point x="183.682" y="672.206" type="curve" smooth="yes"/>
      <point x="183.682" y="683.334"/>
      <point x="182.896" y="688.891"/>
      <point x="172.938" y="695.195" type="curve" smooth="yes"/>
      <point x="167.862" y="698.409"/>
      <point x="160.909" y="699.891"/>
      <point x="152.862" y="699.891" type="curve" smooth="yes"/>
      <point x="142.797" y="699.891" type="line"/>
      <point x="142.797" y="699.891"/>
      <point x="141.997" y="702.578"/>
      <point x="141.997" y="706.325" type="curve" smooth="yes"/>
      <point x="141.997" y="709.231"/>
      <point x="142.479" y="712.775"/>
      <point x="144.188" y="716.195" type="curve" smooth="yes"/>
      <point x="148.188" y="724.195"/>
      <point x="155.396" y="729.891"/>
      <point x="155.396" y="729.891" type="curve"/>
      <point x="394.827" y="729.891" type="line"/>
      <point x="394.827" y="729.891"/>
      <point x="396.136" y="726.838"/>
      <point x="396.136" y="723.896" type="curve" smooth="yes"/>
      <point x="396.136" y="720.853"/>
      <point x="395.752" y="717.854"/>
      <point x="394.188" y="714.195" type="curve" smooth="yes"/>
      <point x="390.832" y="706.338"/>
      <point x="380.797" y="699.891"/>
      <point x="380.797" y="699.891" type="curve"/>
      <point x="374.862" y="699.891" type="line" smooth="yes"/>
      <point x="371.192" y="699.891"/>
      <point x="366.746" y="699.36"/>
      <point x="359.078" y="697.036" type="curve" smooth="yes"/>
      <point x="345.329" y="692.869"/>
      <point x="335.236" y="674.841"/>
    </contour>
  </outline>
</glyph>
<glyph name="K" format="1">
  <advance width="689"/>
  <unicode hex="004B"/>
  <outline>
    <contour>
      <point x="653.431" y="0" type="curve"/>
      <point x="415.531" y="0" type="line"/>
      <point x="415.531" y="0"/>
      <point x="414.101" y="2.6875"/>
      <point x="414.101" y="6.43457" type="curve" smooth="yes"/>
      <point x="414.101" y="9.34082"/>
      <point x="414.582" y="12.8848"/>
      <point x="416.292" y="16.3047" type="curve" smooth="yes"/>
      <point x="420.292" y="24.3047"/>
      <point x="427.5" y="30"/>
      <point x="427.5" y="30" type="curve"/>
      <point x="430.966" y="30" type="line" smooth="yes"/>
      <point x="437" y="30"/>
      <point x="446.247" y="30.8076"/>
      <point x="453.844" y="32.9111" type="curve" smooth="yes"/>
      <point x="465" y="36"/>
      <point x="473.902" y="47.125"/>
      <point x="473.902" y="60.1191" type="curve" smooth="yes"/>
      <point x="473.902" y="65.2207"/>
      <point x="472.208" y="74.1924"/>
      <point x="467.538" y="84.2207" type="curve" smooth="yes"/>
      <point x="423.562" y="178.658"/>
      <point x="389.455" y="243.345"/>
      <point x="342.063" y="336.708" type="curve"/>
      <point x="328.971" y="326.67"/>
      <point x="323.32" y="321.34"/>
      <point x="312" y="318" type="curve"/>
      <point x="247" y="74" type="line" smooth="yes"/>
      <point x="245.667" y="68.4307"/>
      <point x="243.098" y="59.4678"/>
      <point x="243.098" y="53.2031" type="curve" smooth="yes"/>
      <point x="243.098" y="45.3057"/>
      <point x="244.914" y="35.8789"/>
      <point x="253.228" y="32.8906" type="curve" smooth="yes"/>
      <point x="261.205" y="30.0225"/>
      <point x="269.472" y="30"/>
      <point x="275.966" y="30" type="curve" smooth="yes"/>
      <point x="284.931" y="30" type="line"/>
      <point x="284.931" y="30"/>
      <point x="286.239" y="26.9473"/>
      <point x="286.239" y="24.0059" type="curve" smooth="yes"/>
      <point x="286.239" y="20.9619"/>
      <point x="285.855" y="17.9639"/>
      <point x="284.292" y="14.3047" type="curve" smooth="yes"/>
      <point x="280.936" y="6.44727"/>
      <point x="270.9" y="0"/>
      <point x="270.9" y="0" type="curve"/>
      <point x="26.9004" y="0" type="line"/>
      <point x="26.9004" y="0"/>
      <point x="26.1006" y="2.6875"/>
      <point x="26.1006" y="6.43457" type="curve" smooth="yes"/>
      <point x="26.1006" y="9.34082"/>
      <point x="26.582" y="12.8848"/>
      <point x="28.292" y="16.3047" type="curve" smooth="yes"/>
      <point x="32.292" y="24.3047"/>
      <point x="39.5" y="30"/>
      <point x="39.5" y="30" type="curve"/>
      <point x="42.9658" y="30" type="line" smooth="yes"/>
      <point x="49.1523" y="30"/>
      <point x="57.4307" y="30.9688"/>
      <point x="64.8457" y="31.875" type="curve"/>
      <point x="81.7803" y="35.7295"/>
      <point x="91.6895" y="55.79"/>
      <point x="95.1426" y="67.0049" type="curve"/>
      <point x="125.18" y="182.738"/>
      <point x="149.132" y="288.126"/>
      <point x="176.138" y="403.732" type="curve" smooth="yes"/>
      <point x="197.15" y="494.885"/>
      <point x="216.103" y="574.768"/>
      <point x="235.125" y="665.969" type="curve"/>
      <point x="235.597" y="667.97"/>
      <point x="236.784" y="675.599"/>
      <point x="236.784" y="677.316" type="curve" smooth="yes"/>
      <point x="236.784" y="683.103"/>
      <point x="235.289" y="689.874"/>
      <point x="225.042" y="695.305" type="curve" smooth="yes"/>
      <point x="219.525" y="698.229"/>
      <point x="210.967" y="700"/>
      <point x="203.966" y="700" type="curve" smooth="yes"/>
      <point x="194.9" y="700" type="line"/>
      <point x="194.9" y="700"/>
      <point x="194.101" y="702.688"/>
      <point x="194.101" y="706.435" type="curve" smooth="yes"/>
      <point x="194.101" y="709.341"/>
      <point x="194.582" y="712.885"/>
      <point x="196.292" y="716.305" type="curve" smooth="yes"/>
      <point x="200.292" y="724.305"/>
      <point x="207.5" y="730"/>
      <point x="207.5" y="730" type="curve"/>
      <point x="453.4" y="730" type="line"/>
      <point x="453.4" y="730"/>
      <point x="455.239" y="726.947"/>
      <point x="455.239" y="724.006" type="curve" smooth="yes"/>
      <point x="455.239" y="720.962"/>
      <point x="454.855" y="717.964"/>
      <point x="453.292" y="714.305" type="curve" smooth="yes"/>
      <point x="449.936" y="706.447"/>
      <point x="439.9" y="700"/>
      <point x="439.9" y="700" type="curve"/>
      <point x="436.966" y="700" type="line" smooth="yes"/>
      <point x="429.886" y="700"/>
      <point x="420.027" y="698.797"/>
      <point x="411.536" y="696.177" type="curve" smooth="yes"/>
      <point x="398" y="692"/>
      <point x="387.132" y="674.591"/>
      <point x="384.786" y="664.428" type="curve" smooth="yes"/>
      <point x="329.784" y="430.431" type="line"/>
      <point x="346.078" y="438.228"/>
      <point x="359.85" y="449.415"/>
      <point x="386.828" y="474.755" type="curve"/>
      <point x="562.867" y="643.797" type="line"/>
      <point x="581.884" y="663.869"/>
      <point x="589.509" y="671.015"/>
      <point x="589.509" y="678.726" type="curve" smooth="yes"/>
      <point x="589.509" y="683.628"/>
      <point x="588.513" y="688.963"/>
      <point x="581.814" y="694.096" type="curve" smooth="yes"/>
      <point x="578.175" y="696.885"/>
      <point x="569.969" y="700"/>
      <point x="561.966" y="700" type="curve" smooth="yes"/>
      <point x="550.167" y="700" type="line"/>
      <point x="550.167" y="700"/>
      <point x="549.101" y="702.688"/>
      <point x="549.101" y="706.435" type="curve" smooth="yes"/>
      <point x="549.101" y="709.341"/>
      <point x="549.582" y="712.885"/>
      <point x="551.292" y="716.305" type="curve" smooth="yes"/>
      <point x="555.292" y="724.305"/>
      <point x="562.5" y="730"/>
      <point x="562.5" y="730" type="curve"/>
      <point x="758.931" y="730" type="line"/>
      <point x="758.931" y="730"/>
      <point x="760.239" y="726.947"/>
      <point x="760.239" y="724.006" type="curve" smooth="yes"/>
      <point x="760.239" y="720.962"/>
      <point x="759.855" y="717.964"/>
      <point x="758.292" y="714.305" type="curve" smooth="yes"/>
      <point x="754.936" y="706.447"/>
      <point x="744.9" y="700"/>
      <point x="744.9" y="700" type="curve"/>
      <point x="741.966" y="700" type="line" smooth="yes"/>
      <point x="735.585" y="700"/>
      <point x="724.202" y="699.122"/>
      <point x="715.411" y="696.209" type="curve"/>
      <point x="703.533" y="692.882"/>
      <point x="689.314" y="672.829"/>
      <point x="674.096" y="656.929" type="curve"/>
      <point x="437.262" y="415.624" type="line"/>
      <point x="459.299" y="374.777" type="line"/>
      <point x="539.27" y="241.62"/>
      <point x="593.343" y="119.254"/>
      <point x="619.405" y="59.3613" type="curve" smooth="yes"/>
      <point x="626.849" y="42.251"/>
      <point x="638" y="30"/>
      <point x="657.966" y="30" type="curve" smooth="yes"/>
      <point x="666.931" y="30" type="line"/>
      <point x="666.931" y="30"/>
      <point x="668.239" y="26.9473"/>
      <point x="668.239" y="24.0059" type="curve" smooth="yes"/>
      <point x="668.239" y="20.9619"/>
      <point x="667.855" y="17.9639"/>
      <point x="666.292" y="14.3047" type="curve" smooth="yes"/>
      <point x="662.936" y="6.44727"/>
      <point x="653.431" y="0"/>
    </contour>
  </outline>
</glyph>
<glyph name="L" format="1">
  <advance width="613"/>
  <unicode hex="004C"/>
  <outline>
    <contour>
      <point x="-1" y="0" type="line"/>
      <point x="-1" y="0"/>
      <point x="-1.89941" y="2.6875"/>
      <point x="-1.89941" y="6.43457" type="curve" smooth="yes"/>
      <point x="-1.89941" y="9.34082"/>
      <point x="-1.41797" y="12.8848"/>
      <point x="0.291992" y="16.3047" type="curve" smooth="yes"/>
      <point x="4.29199" y="24.3047"/>
      <point x="11.5" y="30"/>
      <point x="11.5" y="30" type="curve"/>
      <point x="21.9766" y="30.9668"/>
      <point x="27.0439" y="30.3662"/>
      <point x="36.5576" y="32.2324" type="curve" smooth="yes"/>
      <point x="52.6494" y="35.5537"/>
      <point x="61.7012" y="56.0654"/>
      <point x="64.1562" y="66.4922" type="curve"/>
      <point x="93.1719" y="182.241"/>
      <point x="119.683" y="287.835"/>
      <point x="146.829" y="403.473" type="curve" smooth="yes"/>
      <point x="168.507" y="495.814"/>
      <point x="186.117" y="575.736"/>
      <point x="206.133" y="666.982" type="curve"/>
      <point x="206.587" y="668.912"/>
      <point x="207.785" y="675.603"/>
      <point x="207.785" y="677.3" type="curve" smooth="yes"/>
      <point x="207.785" y="684.688"/>
      <point x="206.202" y="691.775"/>
      <point x="196.245" y="696.25" type="curve" smooth="yes"/>
      <point x="190.623" y="698.776"/>
      <point x="184.851" y="700"/>
      <point x="176.966" y="700" type="curve" smooth="yes"/>
      <point x="164.9" y="700" type="line"/>
      <point x="164.9" y="700"/>
      <point x="164.101" y="702.688"/>
      <point x="164.101" y="706.435" type="curve" smooth="yes"/>
      <point x="164.101" y="709.341"/>
      <point x="164.582" y="712.885"/>
      <point x="166.292" y="716.305" type="curve" smooth="yes"/>
      <point x="170.292" y="724.305"/>
      <point x="177.5" y="730"/>
      <point x="177.5" y="730" type="curve"/>
      <point x="422.931" y="730" type="line"/>
      <point x="422.931" y="730"/>
      <point x="424.239" y="726.947"/>
      <point x="424.239" y="724.006" type="curve" smooth="yes"/>
      <point x="424.239" y="720.962"/>
      <point x="423.855" y="717.964"/>
      <point x="422.292" y="714.305" type="curve" smooth="yes"/>
      <point x="418.936" y="706.447"/>
      <point x="408.9" y="700"/>
      <point x="408.9" y="700" type="curve"/>
      <point x="405.966" y="700" type="line" smooth="yes"/>
      <point x="394" y="700"/>
      <point x="386.678" y="699.326"/>
      <point x="379.116" y="696.396" type="curve" smooth="yes"/>
      <point x="366.099" y="691.351"/>
      <point x="356.127" y="673.909"/>
      <point x="353.775" y="663.932" type="curve"/>
      <point x="328.749" y="571.762"/>
      <point x="312.869" y="490.75"/>
      <point x="291.783" y="398.757" type="curve" smooth="yes"/>
      <point x="265.681" y="284.879"/>
      <point x="241.845" y="184.673"/>
      <point x="216.235" y="70.9912" type="curve"/>
      <point x="215.793" y="69.2949"/>
      <point x="212.603" y="54.7764"/>
      <point x="212.603" y="53.21" type="curve" smooth="yes"/>
      <point x="212.603" y="45.5176"/>
      <point x="216.955" y="39.1143"/>
      <point x="228.646" y="37.8936" type="curve" smooth="yes"/>
      <point x="248.519" y="35.9346"/>
      <point x="257.861" y="35"/>
      <point x="278.538" y="35" type="curve" smooth="yes"/>
      <point x="341.367" y="35"/>
      <point x="387.498" y="36.0635"/>
      <point x="432.636" y="45.8008" type="curve"/>
      <point x="493.107" y="60.251"/>
      <point x="523.08" y="100.024"/>
      <point x="548.543" y="158.783" type="curve" smooth="yes"/>
      <point x="550.248" y="162.719" type="line"/>
      <point x="577.058" y="164.645" type="line"/>
      <point x="520.932" y="0" type="line"/>
    </contour>
  </outline>
</glyph>
<glyph name="M" format="1">
  <advance width="890"/>
  <unicode hex="004D"/>
  <outline>
    <contour>
      <point x="948.791" y="730" type="line"/>
      <point x="948.791" y="730"/>
      <point x="950.239" y="726.947"/>
      <point x="950.239" y="724.006" type="curve" smooth="yes"/>
      <point x="950.239" y="720.962"/>
      <point x="949.855" y="717.964"/>
      <point x="948.292" y="714.305" type="curve" smooth="yes"/>
      <point x="944.936" y="706.447"/>
      <point x="934.9" y="700"/>
      <point x="934.9" y="700" type="curve"/>
      <point x="930.356" y="700" type="line" smooth="yes"/>
      <point x="922.38" y="700"/>
      <point x="914.268" y="698.005"/>
      <point x="905.782" y="696.18" type="curve" smooth="yes"/>
      <point x="891" y="693"/>
      <point x="882.576" y="678.102"/>
      <point x="879.17" y="664.921" type="curve" smooth="yes"/>
      <point x="863.502" y="604.292"/>
      <point x="859" y="564"/>
      <point x="842.18" y="492.769" type="curve" smooth="yes"/>
      <point x="803" y="321"/>
      <point x="779.17" y="214.876"/>
      <point x="743.238" y="69.2461" type="curve"/>
      <point x="743.238" y="69.2461"/>
      <point x="741.611" y="57.332"/>
      <point x="741.611" y="55.3115" type="curve" smooth="yes"/>
      <point x="741.611" y="48.3418"/>
      <point x="742.73" y="37.7734"/>
      <point x="753.054" y="33.7539" type="curve" smooth="yes"/>
      <point x="759.981" y="31.0566"/>
      <point x="769.337" y="30"/>
      <point x="777.356" y="30" type="curve" smooth="yes"/>
      <point x="782.931" y="30" type="line"/>
      <point x="782.931" y="30"/>
      <point x="784.239" y="26.9473"/>
      <point x="784.239" y="24.0059" type="curve" smooth="yes"/>
      <point x="784.239" y="20.9619"/>
      <point x="783.855" y="17.9639"/>
      <point x="782.292" y="14.3047" type="curve" smooth="yes"/>
      <point x="778.936" y="6.44727"/>
      <point x="768.821" y="0"/>
      <point x="768.821" y="0" type="curve"/>
      <point x="530.391" y="0" type="line"/>
      <point x="530.391" y="0"/>
      <point x="529.101" y="2.6875"/>
      <point x="529.101" y="6.43457" type="curve" smooth="yes"/>
      <point x="529.101" y="9.34082"/>
      <point x="529.582" y="12.8848"/>
      <point x="531.292" y="16.3047" type="curve" smooth="yes"/>
      <point x="535.292" y="24.3047"/>
      <point x="542.5" y="30"/>
      <point x="542.5" y="30" type="curve"/>
      <point x="545.356" y="30" type="line" smooth="yes"/>
      <point x="553.477" y="30"/>
      <point x="560.798" y="30.4766"/>
      <point x="568.785" y="32.8232" type="curve" smooth="yes"/>
      <point x="583" y="37"/>
      <point x="596.084" y="56.9521"/>
      <point x="598.55" y="67.6357" type="curve"/>
      <point x="614.553" y="131.648"/>
      <point x="627.756" y="185.668"/>
      <point x="643.541" y="249.599" type="curve" smooth="yes"/>
      <point x="663.548" y="330.628"/>
      <point x="673.026" y="364.914"/>
      <point x="692.665" y="446.934" type="curve"/>
      <point x="700.066" y="477.018"/>
      <point x="705.453" y="508.813"/>
      <point x="711.828" y="536.377" type="curve"/>
      <point x="430.173" y="149.016" type="line"/>
      <point x="427.021" y="144.464"/>
      <point x="413.374" y="127"/>
      <point x="400.541" y="127" type="curve" smooth="yes"/>
      <point x="389.71" y="127"/>
      <point x="374.608" y="141.338"/>
      <point x="373.038" y="149.571" type="curve" smooth="yes"/>
      <point x="373.038" y="149.571"/>
      <point x="294.088" y="449.831"/>
      <point x="270" y="555" type="curve"/>
      <point x="156.217" y="69.5645" type="line"/>
      <point x="155.733" y="66.5596"/>
      <point x="154.003" y="56.375"/>
      <point x="153.979" y="56.0947" type="curve"/>
      <point x="154.245" y="46.9268"/>
      <point x="154.716" y="39.5117"/>
      <point x="165.167" y="33.7627" type="curve" smooth="yes"/>
      <point x="171.267" y="30.4072"/>
      <point x="180.242" y="30"/>
      <point x="188.356" y="30" type="curve" smooth="yes"/>
      <point x="196.61" y="30" type="line"/>
      <point x="196.61" y="30"/>
      <point x="198.239" y="26.9473"/>
      <point x="198.239" y="24.0059" type="curve" smooth="yes"/>
      <point x="198.239" y="20.9619"/>
      <point x="197.855" y="17.9639"/>
      <point x="196.292" y="14.3047" type="curve" smooth="yes"/>
      <point x="192.936" y="6.44727"/>
      <point x="182.9" y="0"/>
      <point x="182.9" y="0" type="curve"/>
      <point x="-8.60938" y="0" type="line"/>
      <point x="-8.60938" y="0"/>
      <point x="-9.89941" y="2.6875"/>
      <point x="-9.89941" y="6.43457" type="curve" smooth="yes"/>
      <point x="-9.89941" y="9.34082"/>
      <point x="-9.41797" y="12.8848"/>
      <point x="-7.70801" y="16.3047" type="curve" smooth="yes"/>
      <point x="-3.70801" y="24.3047"/>
      <point x="3.5" y="30"/>
      <point x="3.5" y="30" type="curve"/>
      <point x="7.35645" y="30" type="line" smooth="yes"/>
      <point x="15.4766" y="30"/>
      <point x="23.3604" y="30.4922"/>
      <point x="32.7852" y="32.7852" type="curve" smooth="yes"/>
      <point x="46" y="36"/>
      <point x="57.1182" y="58.1289"/>
      <point x="59.6289" y="70.3066" type="curve"/>
      <point x="114.543" y="273.736"/>
      <point x="149.584" y="456.649"/>
      <point x="199.573" y="663.288" type="curve"/>
      <point x="200.404" y="666.435"/>
      <point x="202.182" y="676.479"/>
      <point x="202.182" y="677.597" type="curve" smooth="yes"/>
      <point x="202.182" y="696.056"/>
      <point x="188" y="700"/>
      <point x="168.356" y="700" type="curve" smooth="yes"/>
      <point x="159.9" y="700" type="line"/>
      <point x="159.9" y="700"/>
      <point x="159.101" y="702.688"/>
      <point x="159.101" y="706.435" type="curve" smooth="yes"/>
      <point x="159.101" y="709.341"/>
      <point x="159.582" y="712.885"/>
      <point x="161.292" y="716.305" type="curve" smooth="yes"/>
      <point x="165.292" y="724.305"/>
      <point x="172.5" y="730"/>
      <point x="172.5" y="730" type="curve"/>
      <point x="353.957" y="730" type="line"/>
      <point x="456.467" y="332.085" type="line"/>
      <point x="747.692" y="730" type="line"/>
    </contour>
  </outline>
</glyph>
<glyph name="N" format="1">
  <advance width="844"/>
  <unicode hex="004E"/>
  <outline>
    <contour>
      <point x="696.9" y="700" type="line"/>
      <point x="696.9" y="700"/>
      <point x="696.101" y="702.688"/>
      <point x="696.101" y="706.435" type="curve" smooth="yes"/>
      <point x="696.101" y="709.341"/>
      <point x="696.582" y="712.885"/>
      <point x="698.292" y="716.305" type="curve" smooth="yes"/>
      <point x="702.292" y="724.305"/>
      <point x="709.5" y="730"/>
      <point x="709.5" y="730" type="curve"/>
      <point x="897.4" y="730" type="line"/>
      <point x="897.4" y="730"/>
      <point x="899.239" y="726.947"/>
      <point x="899.239" y="724.006" type="curve" smooth="yes"/>
      <point x="899.239" y="720.962"/>
      <point x="898.855" y="717.964"/>
      <point x="897.292" y="714.305" type="curve" smooth="yes"/>
      <point x="893.936" y="706.447"/>
      <point x="883.9" y="700"/>
      <point x="883.9" y="700" type="curve"/>
      <point x="879.966" y="700" type="line" smooth="yes"/>
      <point x="872.034" y="700"/>
      <point x="863.432" y="699.267"/>
      <point x="856.568" y="697.222" type="curve" smooth="yes"/>
      <point x="841.709" y="692.795"/>
      <point x="831.992" y="676.877"/>
      <point x="828.724" y="665.663" type="curve"/>
      <point x="804.81" y="573.852"/>
      <point x="782.384" y="490.869"/>
      <point x="758.785" y="398.502" type="curve" smooth="yes"/>
      <point x="725.479" y="268.137"/>
      <point x="690.531" y="136.996"/>
      <point x="657.563" y="5.68359" type="curve" smooth="yes"/>
      <point x="655.179" y="-3.81445"/>
      <point x="646.527" y="-9"/>
      <point x="639.118" y="-9" type="curve" smooth="yes"/>
      <point x="626.82" y="-9"/>
      <point x="622.535" y="3.46484"/>
      <point x="622.535" y="3.46484" type="curve"/>
      <point x="497.468" y="207.394"/>
      <point x="408.029" y="343.072"/>
      <point x="284.816" y="545.537" type="curve"/>
      <point x="272.967" y="494.833"/>
      <point x="249.517" y="400.056"/>
      <point x="237.782" y="350.41" type="curve"/>
      <point x="196.793" y="170.456" type="line"/>
      <point x="188.817" y="134.564"/>
      <point x="178.688" y="98.8877"/>
      <point x="170.88" y="63.8457" type="curve"/>
      <point x="170.787" y="63.002"/>
      <point x="169.548" y="56.3574"/>
      <point x="169.548" y="53.6621" type="curve" smooth="yes"/>
      <point x="169.548" y="46.6465"/>
      <point x="170.521" y="35.3262"/>
      <point x="179.776" y="32.7627" type="curve" smooth="yes"/>
      <point x="185.596" y="31.1504"/>
      <point x="193.906" y="30"/>
      <point x="201.966" y="30" type="curve" smooth="yes"/>
      <point x="210.931" y="30" type="line"/>
      <point x="210.931" y="30"/>
      <point x="212.239" y="26.9473"/>
      <point x="212.239" y="24.0059" type="curve" smooth="yes"/>
      <point x="212.239" y="20.9619"/>
      <point x="211.855" y="17.9639"/>
      <point x="210.292" y="14.3047" type="curve" smooth="yes"/>
      <point x="206.936" y="6.44727"/>
      <point x="196.9" y="0"/>
      <point x="196.9" y="0" type="curve"/>
      <point x="-5" y="0" type="line"/>
      <point x="-5" y="0"/>
      <point x="-5.89941" y="2.6875"/>
      <point x="-5.89941" y="6.43457" type="curve" smooth="yes"/>
      <point x="-5.89941" y="9.34082"/>
      <point x="-5.41797" y="12.8848"/>
      <point x="-3.70801" y="16.3047" type="curve" smooth="yes"/>
      <point x="0.291992" y="24.3047"/>
      <point x="7.5" y="30"/>
      <point x="7.5" y="30" type="curve"/>
      <point x="10.9658" y="30" type="line" smooth="yes"/>
      <point x="19.0859" y="30"/>
      <point x="25.6846" y="30.7031"/>
      <point x="33.3945" y="32.7852" type="curve" smooth="yes"/>
      <point x="49" y="37"/>
      <point x="60.6367" y="58.3037"/>
      <point x="64.1514" y="69.9746" type="curve"/>
      <point x="64.1514" y="69.9746"/>
      <point x="113.826" y="267.271"/>
      <point x="144.141" y="399.832" type="curve" smooth="yes"/>
      <point x="168.716" y="507.297"/>
      <point x="202.09" y="663.87"/>
      <point x="202.09" y="663.87" type="curve"/>
      <point x="202.09" y="663.87"/>
      <point x="204.878" y="675.633"/>
      <point x="204.878" y="677.351" type="curve" smooth="yes"/>
      <point x="204.878" y="686.393"/>
      <point x="202.625" y="689.378"/>
      <point x="194.042" y="695.305" type="curve" smooth="yes"/>
      <point x="188.46" y="699.159"/>
      <point x="179.984" y="700"/>
      <point x="171.966" y="700" type="curve" smooth="yes"/>
      <point x="163.9" y="700" type="line"/>
      <point x="163.9" y="700"/>
      <point x="163.101" y="702.688"/>
      <point x="163.101" y="706.435" type="curve" smooth="yes"/>
      <point x="163.101" y="709.341"/>
      <point x="163.582" y="712.885"/>
      <point x="165.292" y="716.305" type="curve" smooth="yes"/>
      <point x="169.292" y="724.305"/>
      <point x="176.5" y="730"/>
      <point x="176.5" y="730" type="curve"/>
      <point x="316.933" y="730" type="line"/>
      <point x="619.346" y="247.48" type="line"/>
      <point x="737.091" y="666.34" type="line"/>
      <point x="737.091" y="666.34"/>
      <point x="738.785" y="673.808"/>
      <point x="738.785" y="675.309" type="curve" smooth="yes"/>
      <point x="738.785" y="682.943"/>
      <point x="737.639" y="691.533"/>
      <point x="727.042" y="696.27" type="curve" smooth="yes"/>
      <point x="721.664" y="698.673"/>
      <point x="713.984" y="700"/>
      <point x="705.966" y="700" type="curve" smooth="yes"/>
    </contour>
  </outline>
</glyph>
<glyph name="O" format="1">
  <advance width="805"/>
  <unicode hex="004F"/>
  <outline>
    <contour>
      <point x="38.1074" y="241.868" type="curve" smooth="yes"/>
      <point x="38.1074" y="544.682"/>
      <point x="215.053" y="734"/>
      <point x="501.898" y="734" type="curve" smooth="yes"/>
      <point x="672.144" y="734"/>
      <point x="781.174" y="643.687"/>
      <point x="781.174" y="473.903" type="curve" smooth="yes"/>
      <point x="781.174" y="180.783"/>
      <point x="552.188" y="-11"/>
      <point x="322.474" y="-11" type="curve" smooth="yes"/>
      <point x="207.599" y="-11"/>
      <point x="38.1074" y="37.0938"/>
    </contour>
    <contour>
      <point x="481.275" y="685" type="curve" smooth="yes"/>
      <point x="266.873" y="685"/>
      <point x="200.054" y="373.399"/>
      <point x="200.054" y="234.335" type="curve" smooth="yes"/>
      <point x="200.054" y="72.167"/>
      <point x="283.831" y="41"/>
      <point x="337.941" y="41" type="curve" smooth="yes"/>
      <point x="438.058" y="41"/>
      <point x="628.391" y="210.418"/>
      <point x="628.391" y="494.999" type="curve" smooth="yes"/>
      <point x="628.391" y="604.614"/>
      <point x="590.007" y="685"/>
    </contour>
  </outline>
</glyph>
<glyph name="P" format="1">
  <advance width="662"/>
  <unicode hex="0050"/>
  <outline>
    <contour>
      <point x="180.9" y="700" type="line"/>
      <point x="180.9" y="700"/>
      <point x="180.101" y="702.688"/>
      <point x="180.101" y="706.435" type="curve" smooth="yes"/>
      <point x="180.101" y="709.341"/>
      <point x="180.582" y="712.885"/>
      <point x="182.292" y="716.305" type="curve" smooth="yes"/>
      <point x="186.292" y="724.305"/>
      <point x="193.5" y="730"/>
      <point x="193.5" y="730" type="curve"/>
      <point x="219.566" y="730" type="line" smooth="yes"/>
      <point x="281.746" y="730"/>
      <point x="383.235" y="732"/>
      <point x="444.691" y="732" type="curve" smooth="yes"/>
      <point x="568.512" y="732"/>
      <point x="679.562" y="687.309"/>
      <point x="679.562" y="567.904" type="curve" smooth="yes"/>
      <point x="679.562" y="369.967"/>
      <point x="504.547" y="267"/>
      <point x="367.331" y="267" type="curve" smooth="yes"/>
      <point x="355.465" y="267"/>
      <point x="343.802" y="267.03"/>
      <point x="333.361" y="269.035" type="curve" smooth="yes"/>
      <point x="323.362" y="270.955"/>
      <point x="313.825" y="285.435"/>
      <point x="313.825" y="296.676" type="curve" smooth="yes"/>
      <point x="313.825" y="310.155"/>
      <point x="324.769" y="328"/>
      <point x="339.279" y="328" type="curve" smooth="yes"/>
      <point x="443.993" y="328"/>
      <point x="537.987" y="391.885"/>
      <point x="537.987" y="565.353" type="curve" smooth="yes"/>
      <point x="537.987" y="639.186"/>
      <point x="486.01" y="690"/>
      <point x="411.173" y="690" type="curve" smooth="yes"/>
      <point x="374.377" y="690" type="line"/>
      <point x="349.515" y="590.433"/>
      <point x="329.64" y="493.705"/>
      <point x="307.661" y="394.678" type="curve" smooth="yes"/>
      <point x="282.41" y="280.905"/>
      <point x="258.635" y="176.67"/>
      <point x="230.641" y="62.0146" type="curve"/>
      <point x="230.214" y="60.2676"/>
      <point x="229.04" y="54.7969"/>
      <point x="229.04" y="53.3057" type="curve" smooth="yes"/>
      <point x="229.04" y="47.8525"/>
      <point x="229.856" y="37.1602"/>
      <point x="240.124" y="32.7256" type="curve" smooth="yes"/>
      <point x="246.27" y="30.0713"/>
      <point x="254.737" y="30"/>
      <point x="263.138" y="30" type="curve" smooth="yes"/>
      <point x="269.931" y="30" type="line"/>
      <point x="269.931" y="30"/>
      <point x="271.239" y="26.9473"/>
      <point x="271.239" y="24.0059" type="curve" smooth="yes"/>
      <point x="271.239" y="20.9619"/>
      <point x="270.855" y="17.9639"/>
      <point x="269.292" y="14.3047" type="curve" smooth="yes"/>
      <point x="265.936" y="6.44727"/>
      <point x="255.9" y="0"/>
      <point x="255.9" y="0" type="curve"/>
      <point x="11.9004" y="0" type="line"/>
      <point x="11.9004" y="0"/>
      <point x="11.1006" y="2.6875"/>
      <point x="11.1006" y="6.43457" type="curve" smooth="yes"/>
      <point x="11.1006" y="9.34082"/>
      <point x="11.582" y="12.8848"/>
      <point x="13.292" y="16.3047" type="curve" smooth="yes"/>
      <point x="17.292" y="24.3047"/>
      <point x="24.5" y="30"/>
      <point x="24.5" y="30" type="curve"/>
      <point x="27.4346" y="30" type="line" smooth="yes"/>
      <point x="35.5312" y="30"/>
      <point x="42.6484" y="30.0186"/>
      <point x="49.8643" y="31.7852" type="curve"/>
      <point x="66.0879" y="35.1309"/>
      <point x="79.0957" y="56.3203"/>
      <point x="81.625" y="67.0566" type="curve"/>
      <point x="110.632" y="182.67"/>
      <point x="130.753" y="267.289"/>
      <point x="161.567" y="401.788" type="curve" smooth="yes"/>
      <point x="185.087" y="504.445"/>
      <point x="218.846" y="654.221"/>
      <point x="218.846" y="654.221" type="curve"/>
      <point x="219.65" y="657.824"/>
      <point x="223.196" y="673.217"/>
      <point x="223.196" y="677.05" type="curve" smooth="yes"/>
      <point x="223.196" y="687.232"/>
      <point x="220.212" y="692.322"/>
      <point x="212.222" y="697.346" type="curve" smooth="yes"/>
      <point x="208" y="700"/>
      <point x="197.784" y="700"/>
      <point x="189.515" y="700" type="curve" smooth="yes"/>
    </contour>
  </outline>
</glyph>
<glyph name="R" format="1">
  <advance width="719"/>
  <unicode hex="0052"/>
  <outline>
    <contour>
      <point x="162.9" y="700" type="line"/>
      <point x="162.9" y="700"/>
      <point x="162.101" y="702.688"/>
      <point x="162.101" y="706.435" type="curve" smooth="yes"/>
      <point x="162.101" y="709.341"/>
      <point x="162.582" y="712.885"/>
      <point x="164.292" y="716.305" type="curve" smooth="yes"/>
      <point x="168.292" y="724.305"/>
      <point x="175.5" y="730"/>
      <point x="175.5" y="730" type="curve"/>
      <point x="203.158" y="730" type="line" smooth="yes"/>
      <point x="265.182" y="730"/>
      <point x="366.669" y="734"/>
      <point x="428.286" y="734" type="curve" smooth="yes"/>
      <point x="550.604" y="734"/>
      <point x="645.604" y="691.567"/>
      <point x="645.604" y="588.395" type="curve" smooth="yes"/>
      <point x="645.604" y="459.519"/>
      <point x="563.148" y="392.076"/>
      <point x="449.186" y="366.2" type="curve"/>
      <point x="526.819" y="350.636"/>
      <point x="598.225" y="301.362"/>
      <point x="598.225" y="234.171" type="curve" smooth="yes"/>
      <point x="598.225" y="231.372"/>
      <point x="598.134" y="228.548"/>
      <point x="597.952" y="225.698" type="curve" smooth="yes"/>
      <point x="594.35" y="169.303"/>
      <point x="587.628" y="148.368"/>
      <point x="584.951" y="107.252" type="curve" smooth="yes"/>
      <point x="584.637" y="102.414"/>
      <point x="584.485" y="97.9492"/>
      <point x="584.485" y="93.832" type="curve" smooth="yes"/>
      <point x="584.485" y="58.8545"/>
      <point x="594.41" y="31.9287"/>
      <point x="617.688" y="31.9287" type="curve" smooth="yes"/>
      <point x="629.099" y="31.9287"/>
      <point x="645.489" y="35.5889"/>
      <point x="650.835" y="38.2607" type="curve"/>
      <point x="654.265" y="9.38867" type="line" smooth="yes"/>
      <point x="630.817" y="1.23242"/>
      <point x="575.786" y="-4.91602"/>
      <point x="536.973" y="-5" type="curve"/>
      <point x="473.219" y="-5"/>
      <point x="435.584" y="35.5996"/>
      <point x="435.584" y="78.417" type="curve" smooth="yes"/>
      <point x="435.584" y="80.0449"/>
      <point x="435.616" y="82.5645"/>
      <point x="435.694" y="84.3047" type="curve" smooth="yes"/>
      <point x="437.785" y="130.47"/>
      <point x="442.688" y="198.965"/>
      <point x="446.188" y="233.677" type="curve" smooth="yes"/>
      <point x="446.543" y="237.183"/>
      <point x="447.715" y="248.549"/>
      <point x="447.715" y="251.783" type="curve" smooth="yes"/>
      <point x="447.715" y="317.847"/>
      <point x="390.625" y="343.593"/>
      <point x="281.491" y="352.555" type="curve"/>
      <point x="212.188" y="62.4609" type="line" smooth="yes"/>
      <point x="211.832" y="60.9385"/>
      <point x="209.661" y="52.5127"/>
      <point x="209.661" y="51.1982" type="curve" smooth="yes"/>
      <point x="209.661" y="44.1016"/>
      <point x="211.136" y="36.5586"/>
      <point x="222.754" y="32.7627" type="curve" smooth="yes"/>
      <point x="228.937" y="30.7432"/>
      <point x="236.3" y="30"/>
      <point x="244.931" y="30" type="curve"/>
      <point x="244.931" y="30"/>
      <point x="246.239" y="26.9473"/>
      <point x="246.239" y="24.0059" type="curve" smooth="yes"/>
      <point x="246.239" y="20.9619"/>
      <point x="245.855" y="17.9639"/>
      <point x="244.292" y="14.3047" type="curve" smooth="yes"/>
      <point x="240.936" y="6.44727"/>
      <point x="230.9" y="0"/>
      <point x="230.9" y="0" type="curve"/>
      <point x="-7.09961" y="0" type="line"/>
      <point x="-7.09961" y="0"/>
      <point x="-7.89941" y="2.6875"/>
      <point x="-7.89941" y="6.43457" type="curve" smooth="yes"/>
      <point x="-7.89941" y="9.34082"/>
      <point x="-7.41797" y="12.8848"/>
      <point x="-5.70801" y="16.3047" type="curve" smooth="yes"/>
      <point x="-1.70801" y="24.3047"/>
      <point x="5.5" y="30"/>
      <point x="5.5" y="30" type="curve"/>
      <point x="10.9658" y="30" type="line" smooth="yes"/>
      <point x="19.0859" y="30"/>
      <point x="30.6357" y="31.8037"/>
      <point x="36.3945" y="33.7852" type="curve" smooth="yes"/>
      <point x="49.5557" y="38.3125"/>
      <point x="60.6973" y="56.6221"/>
      <point x="63.1543" y="67.0508" type="curve"/>
      <point x="93.1807" y="183.721"/>
      <point x="118.394" y="288.892"/>
      <point x="145.196" y="405.701" type="curve" smooth="yes"/>
      <point x="164.98" y="491.923"/>
      <point x="181.739" y="566.057"/>
      <point x="200.427" y="652.191" type="curve"/>
      <point x="201.246" y="655.864"/>
      <point x="205.648" y="673.501"/>
      <point x="205.648" y="678.032" type="curve" smooth="yes"/>
      <point x="205.648" y="689.727"/>
      <point x="199.974" y="693.562"/>
      <point x="193.306" y="696.213" type="curve" smooth="yes"/>
      <point x="187.032" y="698.708"/>
      <point x="180.166" y="700"/>
      <point x="172.067" y="700" type="curve" smooth="yes"/>
    </contour>
    <contour>
      <point x="296.413" y="422.788" type="curve" smooth="yes"/>
      <point x="294.234" y="413.103"/>
      <point x="292.11" y="403.942"/>
      <point x="290.084" y="395.081" type="curve"/>
      <point x="299.124" y="395.05"/>
      <point x="306.818" y="395"/>
      <point x="315.301" y="395" type="curve" smooth="yes"/>
      <point x="419.565" y="395"/>
      <point x="505.969" y="454.325"/>
      <point x="505.969" y="591.837" type="curve" smooth="yes"/>
      <point x="505.969" y="666.392"/>
      <point x="459.224" y="700"/>
      <point x="379.767" y="700" type="curve" smooth="yes"/>
      <point x="360.018" y="700" type="line"/>
      <point x="334.138" y="600.743"/>
      <point x="318.579" y="521.32"/>
    </contour>
  </outline>
</glyph>
<glyph name="S" format="1">
  <advance width="598"/>
  <unicode hex="0053"/>
  <outline>
    <contour>
      <point x="108.861" y="181.627" type="curve" smooth="yes"/>
      <point x="108.861" y="139.073"/>
      <point x="156.296" y="40"/>
      <point x="233.639" y="40" type="curve" smooth="yes"/>
      <point x="332.52" y="40"/>
      <point x="383.903" y="127.686"/>
      <point x="383.903" y="200.549" type="curve" smooth="yes"/>
      <point x="383.903" y="252.198"/>
      <point x="331.898" y="317.314"/>
      <point x="271.637" y="365.164" type="curve" smooth="yes"/>
      <point x="208.815" y="415.046"/>
      <point x="131.27" y="453.823"/>
      <point x="131.27" y="535.593" type="curve" smooth="yes"/>
      <point x="131.27" y="655.252"/>
      <point x="261.556" y="742"/>
      <point x="426.188" y="742" type="curve" smooth="yes"/>
      <point x="514.705" y="742"/>
      <point x="591.034" y="715.725"/>
      <point x="591.034" y="688.427" type="curve" smooth="yes"/>
      <point x="591.034" y="687.436"/>
      <point x="591.171" y="686.549"/>
      <point x="590.719" y="684.509" type="curve"/>
      <point x="587.732" y="670.576"/>
      <point x="557.025" y="593"/>
      <point x="538.879" y="593" type="curve" smooth="yes"/>
      <point x="510.228" y="593"/>
      <point x="487.413" y="696"/>
      <point x="413.213" y="696" type="curve" smooth="yes"/>
      <point x="345.538" y="696"/>
      <point x="285.839" y="624.69"/>
      <point x="285.839" y="558.649" type="curve" smooth="yes"/>
      <point x="285.839" y="507.937"/>
      <point x="338.015" y="479.572"/>
      <point x="392.77" y="435.629" type="curve" smooth="yes"/>
      <point x="466.069" y="376.802"/>
      <point x="536.221" y="320.464"/>
      <point x="536.221" y="243.134" type="curve" smooth="yes"/>
      <point x="536.221" y="140.841"/>
      <point x="472.84" y="75.7861"/>
      <point x="416.645" y="37.4102" type="curve" smooth="yes"/>
      <point x="371.699" y="6.53125"/>
      <point x="299.526" y="-10"/>
      <point x="212.106" y="-10" type="curve" smooth="yes"/>
      <point x="62.0791" y="-10"/>
      <point x="11.0117" y="61.6621"/>
      <point x="11.0117" y="109.759" type="curve" smooth="yes"/>
      <point x="11.0117" y="113.158"/>
      <point x="11.334" y="116.357"/>
      <point x="12.0596" y="119.579" type="curve"/>
      <point x="17.624" y="142.949"/>
      <point x="75.1436" y="211"/>
      <point x="97.8789" y="211" type="curve" smooth="yes"/>
      <point x="98.1416" y="211"/>
      <point x="110.075" y="210.845"/>
      <point x="110.075" y="201.402" type="curve" smooth="yes"/>
      <point x="110.075" y="199.831"/>
      <point x="110.016" y="200.182"/>
      <point x="109.652" y="197.564" type="curve"/>
      <point x="109.281" y="194.149"/>
      <point x="108.861" y="187.104"/>
    </contour>
  </outline>
</glyph>
<glyph name="T" format="1">
  <advance width="693"/>
  <unicode hex="0054"/>
  <outline>
    <contour>
      <point x="371.931" y="30" type="line"/>
      <point x="371.931" y="30"/>
      <point x="373.239" y="26.9473"/>
      <point x="373.239" y="24.0059" type="curve" smooth="yes"/>
      <point x="373.239" y="20.9619"/>
      <point x="372.855" y="17.9639"/>
      <point x="371.292" y="14.3047" type="curve" smooth="yes"/>
      <point x="367.936" y="6.44727"/>
      <point x="357.9" y="0"/>
      <point x="357.9" y="0" type="curve"/>
      <point x="112.9" y="0" type="line"/>
      <point x="112.9" y="0"/>
      <point x="112.101" y="2.6875"/>
      <point x="112.101" y="6.43457" type="curve" smooth="yes"/>
      <point x="112.101" y="9.34082"/>
      <point x="112.582" y="12.8848"/>
      <point x="114.292" y="16.3047" type="curve" smooth="yes"/>
      <point x="118.292" y="24.3047"/>
      <point x="125.5" y="30"/>
      <point x="125.5" y="30" type="curve"/>
      <point x="130.052" y="30" type="line" smooth="yes"/>
      <point x="138" y="30"/>
      <point x="148.682" y="31.4668"/>
      <point x="156.9" y="35.6045" type="curve" smooth="yes"/>
      <point x="169.673" y="42.0342"/>
      <point x="176.889" y="46.084"/>
      <point x="179.243" y="56.0762" type="curve"/>
      <point x="202.25" y="147.188"/>
      <point x="224.246" y="239.232"/>
      <point x="246.227" y="330.233" type="curve"/>
      <point x="322.398" y="663.881" type="line"/>
      <point x="323.182" y="667.58"/>
      <point x="326.021" y="679"/>
      <point x="326.021" y="682.332" type="curve" smooth="yes"/>
      <point x="326.021" y="690.067"/>
      <point x="320.772" y="693.365"/>
      <point x="316.709" y="694.132" type="curve"/>
      <point x="311.848" y="694.896"/>
      <point x="302.359" y="695"/>
      <point x="288.966" y="695" type="curve" smooth="yes"/>
      <point x="261.212" y="695"/>
      <point x="225.614" y="691.993"/>
      <point x="196.301" y="687.112" type="curve" smooth="yes"/>
      <point x="155.764" y="679.391"/>
      <point x="116" y="618"/>
      <point x="108.755" y="590" type="curve"/>
      <point x="81" y="590" type="line"/>
      <point x="130.619" y="728.787" type="line" smooth="yes"/>
      <point x="132.998" y="733.571"/>
      <point x="137.549" y="736"/>
      <point x="142.052" y="736" type="curve" smooth="yes"/>
      <point x="149.188" y="736"/>
      <point x="161.857" y="734"/>
      <point x="168.154" y="734" type="curve"/>
      <point x="202.385" y="732.993"/>
      <point x="318.601" y="730"/>
      <point x="435.729" y="730" type="curve"/>
      <point x="539.463" y="731"/>
      <point x="579.228" y="731.993"/>
      <point x="663.927" y="735" type="curve"/>
      <point x="666.974" y="735"/>
      <point x="689.979" y="737"/>
      <point x="697.052" y="737" type="curve" smooth="yes"/>
      <point x="699.972" y="737"/>
      <point x="713.18" y="735.201"/>
      <point x="713.18" y="727.972" type="curve" smooth="yes"/>
      <point x="713.18" y="724.999"/>
      <point x="712.225" y="721.821"/>
      <point x="711.829" y="720.25" type="curve"/>
      <point x="678" y="590" type="line"/>
      <point x="652.753" y="589.505" type="line"/>
      <point x="654.285" y="597.915"/>
      <point x="660.271" y="622.366"/>
      <point x="660.271" y="645.008" type="curve" smooth="yes"/>
      <point x="660.271" y="673.52"/>
      <point x="656.464" y="685.945"/>
      <point x="640.339" y="689.212" type="curve" smooth="yes"/>
      <point x="617.165" y="693.906"/>
      <point x="608.832" y="695"/>
      <point x="556.865" y="695" type="curve" smooth="yes"/>
      <point x="540.562" y="695"/>
      <point x="517.904" y="694"/>
      <point x="499.984" y="694" type="curve" smooth="yes"/>
      <point x="481.446" y="694"/>
      <point x="474.62" y="671.23"/>
      <point x="471.852" y="659.906" type="curve"/>
      <point x="442.768" y="545.204"/>
      <point x="422.923" y="461.961"/>
      <point x="393.312" y="327.143" type="curve" smooth="yes"/>
      <point x="370" y="221"/>
      <point x="359" y="176"/>
      <point x="332.884" y="68.9922" type="curve" smooth="yes"/>
      <point x="332.367" y="66.875"/>
      <point x="331.232" y="59.377"/>
      <point x="331.232" y="57.6807" type="curve" smooth="yes"/>
      <point x="331.232" y="50.1621"/>
      <point x="331.874" y="39.8008"/>
      <point x="339.975" y="34.6953" type="curve" smooth="yes"/>
      <point x="344.951" y="31.5586"/>
      <point x="355.032" y="30"/>
      <point x="363.052" y="30" type="curve" smooth="yes"/>
    </contour>
  </outline>
</glyph>
<glyph name="U" format="1">
  <advance width="804"/>
  <unicode hex="0055"/>
  <outline>
    <contour>
      <point x="834.932" y="730" type="line"/>
      <point x="835.931" y="730"/>
      <point x="837.239" y="726.947"/>
      <point x="837.239" y="724.006" type="curve" smooth="yes"/>
      <point x="837.239" y="720.962"/>
      <point x="836.855" y="717.964"/>
      <point x="835.292" y="714.305" type="curve" smooth="yes"/>
      <point x="831.936" y="706.447"/>
      <point x="821.9" y="700"/>
      <point x="821.9" y="700" type="curve"/>
      <point x="816.966" y="700" type="line" smooth="yes"/>
      <point x="809" y="700"/>
      <point x="803.811" y="699.996"/>
      <point x="796.574" y="698.222" type="curve" smooth="yes"/>
      <point x="779.769" y="694.558"/>
      <point x="768.982" y="678.59"/>
      <point x="765.729" y="665.663" type="curve" smooth="yes"/>
      <point x="759.377" y="640.427"/>
      <point x="737.133" y="541.394"/>
      <point x="716.785" y="454.206" type="curve" smooth="yes"/>
      <point x="697.784" y="372.787"/>
      <point x="685.814" y="313.471"/>
      <point x="677" y="279" type="curve" smooth="yes"/>
      <point x="615.879" y="39.9678"/>
      <point x="510.748" y="-9.65527"/>
      <point x="330.362" y="-9.65527" type="curve" smooth="yes"/>
      <point x="192.6" y="-9.65527"/>
      <point x="52.5527" y="37.7686"/>
      <point x="52.5527" y="206.39" type="curve" smooth="yes"/>
      <point x="52.5527" y="232.952"/>
      <point x="60.0186" y="262.327"/>
      <point x="67.54" y="294.982" type="curve" smooth="yes"/>
      <point x="151.162" y="665.132" type="line" smooth="yes"/>
      <point x="151.748" y="667.705"/>
      <point x="153.082" y="676.897"/>
      <point x="153.082" y="679.021" type="curve" smooth="yes"/>
      <point x="153.082" y="687.965"/>
      <point x="148.312" y="693.619"/>
      <point x="141.364" y="696.221" type="curve" smooth="yes"/>
      <point x="136.28" y="698.125"/>
      <point x="128" y="700"/>
      <point x="120.966" y="700" type="curve" smooth="yes"/>
      <point x="110.9" y="700" type="line"/>
      <point x="110.9" y="700"/>
      <point x="110.101" y="702.688"/>
      <point x="110.101" y="706.435" type="curve" smooth="yes"/>
      <point x="110.101" y="709.341"/>
      <point x="110.582" y="712.885"/>
      <point x="112.292" y="716.305" type="curve" smooth="yes"/>
      <point x="116.292" y="724.305"/>
      <point x="123.5" y="730"/>
      <point x="123.5" y="730" type="curve"/>
      <point x="374.932" y="730" type="line"/>
      <point x="374.932" y="730"/>
      <point x="377.239" y="726.947"/>
      <point x="377.239" y="724.006" type="curve" smooth="yes"/>
      <point x="377.239" y="720.962"/>
      <point x="376.855" y="717.964"/>
      <point x="375.292" y="714.305" type="curve" smooth="yes"/>
      <point x="371.936" y="706.447"/>
      <point x="361.9" y="700"/>
      <point x="361.9" y="700" type="curve"/>
      <point x="357.966" y="700" type="line" smooth="yes"/>
      <point x="350" y="700"/>
      <point x="342.59" y="699.069"/>
      <point x="333.569" y="696.224" type="curve" smooth="yes"/>
      <point x="317.167" y="691.049"/>
      <point x="308.54" y="676.086"/>
      <point x="304.966" y="662.73" type="curve" smooth="yes"/>
      <point x="302.374" y="654.496"/>
      <point x="302.103" y="652.131"/>
      <point x="299.782" y="642.41" type="curve" smooth="yes"/>
      <point x="281.774" y="566.968"/>
      <point x="226.217" y="319.125"/>
      <point x="226.158" y="318.899" type="curve" smooth="yes"/>
      <point x="214.132" y="267.599"/>
      <point x="208.634" y="228.088"/>
      <point x="208.634" y="192.963" type="curve" smooth="yes"/>
      <point x="208.634" y="97.0967"/>
      <point x="258.29" y="45.3447"/>
      <point x="338.637" y="45.3447" type="curve" smooth="yes"/>
      <point x="456.461" y="45.3447"/>
      <point x="540.278" y="119.834"/>
      <point x="587.494" y="308.358" type="curve" smooth="yes"/>
      <point x="595.097" y="338.713"/>
      <point x="662.913" y="635.788"/>
      <point x="670.167" y="666.093" type="curve" smooth="yes"/>
      <point x="670.772" y="668.622"/>
      <point x="672.062" y="677.267"/>
      <point x="672.062" y="678.861" type="curve" smooth="yes"/>
      <point x="672.062" y="685.078"/>
      <point x="667.563" y="691.102"/>
      <point x="660.043" y="695.305" type="curve" smooth="yes"/>
      <point x="653.079" y="699.197"/>
      <point x="654" y="700"/>
      <point x="645.966" y="700" type="curve" smooth="yes"/>
      <point x="628.9" y="700" type="line"/>
      <point x="628.9" y="700"/>
      <point x="628.101" y="702.688"/>
      <point x="628.101" y="706.435" type="curve" smooth="yes"/>
      <point x="628.101" y="709.341"/>
      <point x="628.582" y="712.885"/>
      <point x="630.292" y="716.305" type="curve" smooth="yes"/>
      <point x="634.292" y="724.305"/>
      <point x="641.5" y="730"/>
      <point x="641.5" y="730" type="curve"/>
    </contour>
  </outline>
</glyph>
<glyph name="V" format="1">
  <advance width="671"/>
  <unicode hex="0056"/>
  <outline>
    <contour>
      <point x="786.931" y="730" type="line"/>
      <point x="786.931" y="730"/>
      <point x="788.239" y="726.947"/>
      <point x="788.239" y="724.006" type="curve" smooth="yes"/>
      <point x="788.239" y="720.962"/>
      <point x="787.855" y="717.964"/>
      <point x="786.292" y="714.305" type="curve" smooth="yes"/>
      <point x="782.936" y="706.447"/>
      <point x="772.9" y="700"/>
      <point x="772.9" y="700" type="curve"/>
      <point x="767.966" y="700" type="line" smooth="yes"/>
      <point x="733.728" y="700"/>
      <point x="729.828" y="681.767"/>
      <point x="712.861" y="656.928" type="curve"/>
      <point x="572.376" y="436.383"/>
      <point x="437.96" y="220.886"/>
      <point x="298.827" y="5.3457" type="curve" smooth="yes"/>
      <point x="295.752" y="0.486328"/>
      <point x="285.29" y="-10"/>
      <point x="274.25" y="-10" type="curve" smooth="yes"/>
      <point x="262.989" y="-10"/>
      <point x="253.794" y="0.230469"/>
      <point x="252.812" y="7.68652" type="curve"/>
      <point x="250.78" y="20.21"/>
      <point x="160.023" y="474.334"/>
      <point x="135.048" y="644.813" type="curve"/>
      <point x="134.067" y="650.583"/>
      <point x="133.042" y="659.589"/>
      <point x="132.044" y="664.479" type="curve" smooth="yes"/>
      <point x="128.94" y="679.686"/>
      <point x="128.593" y="689.349"/>
      <point x="122.528" y="694.185" type="curve" smooth="yes"/>
      <point x="117.479" y="698.211"/>
      <point x="109.623" y="700"/>
      <point x="102.966" y="700" type="curve" smooth="yes"/>
      <point x="92.9004" y="700" type="line"/>
      <point x="92.9004" y="700"/>
      <point x="92.1006" y="702.688"/>
      <point x="92.1006" y="706.435" type="curve" smooth="yes"/>
      <point x="92.1006" y="709.341"/>
      <point x="92.582" y="712.885"/>
      <point x="94.292" y="716.305" type="curve" smooth="yes"/>
      <point x="98.292" y="724.305"/>
      <point x="104.866" y="730"/>
      <point x="104.866" y="730" type="curve"/>
      <point x="347" y="730" type="line"/>
      <point x="347" y="730"/>
      <point x="349.239" y="726.947"/>
      <point x="349.239" y="724.006" type="curve" smooth="yes"/>
      <point x="349.239" y="720.962"/>
      <point x="348.855" y="717.964"/>
      <point x="347.292" y="714.305" type="curve" smooth="yes"/>
      <point x="343.936" y="706.447"/>
      <point x="333.9" y="700"/>
      <point x="333.9" y="700" type="curve"/>
      <point x="330.23" y="700" type="line" smooth="yes"/>
      <point x="323.124" y="700"/>
      <point x="310.992" y="698.498"/>
      <point x="304.012" y="696.18" type="curve" smooth="yes"/>
      <point x="287.702" y="690.763"/>
      <point x="276.755" y="683.488"/>
      <point x="276.755" y="665.137" type="curve" smooth="yes"/>
      <point x="276.755" y="662.384"/>
      <point x="277.986" y="651.353"/>
      <point x="278.495" y="648.024" type="curve" smooth="yes"/>
      <point x="350.218" y="249.077" type="line"/>
      <point x="619.635" y="645.724" type="line"/>
      <point x="630.755" y="662.455"/>
      <point x="633.802" y="669.115"/>
      <point x="633.802" y="680.947" type="curve" smooth="yes"/>
      <point x="633.802" y="691.556"/>
      <point x="624.588" y="700"/>
      <point x="602.919" y="700" type="curve" smooth="yes"/>
      <point x="592.9" y="700" type="line"/>
      <point x="592.9" y="700"/>
      <point x="592.101" y="702.688"/>
      <point x="592.101" y="706.435" type="curve" smooth="yes"/>
      <point x="592.101" y="709.341"/>
      <point x="592.582" y="712.885"/>
      <point x="594.292" y="716.305" type="curve" smooth="yes"/>
      <point x="598.292" y="724.305"/>
      <point x="605.5" y="730"/>
      <point x="605.5" y="730" type="curve"/>
    </contour>
  </outline>
</glyph>
<glyph name="W" format="1">
  <advance width="1050"/>
  <unicode hex="0057"/>
  <outline>
    <contour>
      <point x="1120" y="730" type="line"/>
      <point x="1120" y="730"/>
      <point x="1122.24" y="726.947"/>
      <point x="1122.24" y="724.006" type="curve" smooth="yes"/>
      <point x="1122.24" y="720.962"/>
      <point x="1121.86" y="717.964"/>
      <point x="1120.29" y="714.305" type="curve" smooth="yes"/>
      <point x="1116.94" y="706.447"/>
      <point x="1106.9" y="700"/>
      <point x="1106.9" y="700" type="curve"/>
      <point x="1100.97" y="700" type="line" smooth="yes"/>
      <point x="1093.58" y="700"/>
      <point x="1084.17" y="698.501"/>
      <point x="1076.72" y="696.277" type="curve" smooth="yes"/>
      <point x="1061.72" y="691.804"/>
      <point x="1053.22" y="671.926"/>
      <point x="1042.99" y="655.131" type="curve" smooth="yes"/>
      <point x="907.727" y="433.047"/>
      <point x="753.59" y="234.633"/>
      <point x="615.058" y="10.4307" type="curve" smooth="yes"/>
      <point x="610.043" y="2.31445"/>
      <point x="599.816" y="-10"/>
      <point x="586.637" y="-10" type="curve" smooth="yes"/>
      <point x="577.176" y="-10"/>
      <point x="567.571" y="-0.28125"/>
      <point x="566.38" y="9.07129" type="curve"/>
      <point x="565.588" y="14.501"/>
      <point x="541.136" y="120.45"/>
      <point x="515" y="284" type="curve"/>
      <point x="329.387" y="24.3037" type="line"/>
      <point x="322.22" y="13.2607"/>
      <point x="318.296" y="6.51562"/>
      <point x="318.296" y="6.51562" type="curve" smooth="yes"/>
      <point x="318.177" y="6.3125" type="line"/>
      <point x="318.044" y="6.11719" type="line" smooth="yes"/>
      <point x="312.25" y="-2.4043"/>
      <point x="302.531" y="-9"/>
      <point x="293.844" y="-9" type="curve" smooth="yes"/>
      <point x="283.851" y="-9"/>
      <point x="271.869" y="1.63184"/>
      <point x="270.39" y="12.7988" type="curve" smooth="yes"/>
      <point x="258.377" y="103.475"/>
      <point x="146.243" y="601.651"/>
      <point x="134.102" y="661.193" type="curve" smooth="yes"/>
      <point x="130.013" y="681.243"/>
      <point x="128.376" y="692.377"/>
      <point x="122.083" y="696.291" type="curve" smooth="yes"/>
      <point x="118.634" y="698.437"/>
      <point x="114.037" y="700"/>
      <point x="105.966" y="700" type="curve" smooth="yes"/>
      <point x="96.9004" y="700" type="line"/>
      <point x="96.9004" y="700"/>
      <point x="96.1006" y="702.688"/>
      <point x="96.1006" y="706.435" type="curve" smooth="yes"/>
      <point x="96.1006" y="709.341"/>
      <point x="96.582" y="712.885"/>
      <point x="98.292" y="716.305" type="curve" smooth="yes"/>
      <point x="102.292" y="724.305"/>
      <point x="108.866" y="730"/>
      <point x="108.5" y="730" type="curve"/>
      <point x="179.349" y="730"/>
      <point x="280.197" y="730"/>
      <point x="351.046" y="730" type="curve"/>
      <point x="351" y="730"/>
      <point x="353.239" y="726.947"/>
      <point x="353.239" y="724.006" type="curve" smooth="yes"/>
      <point x="353.239" y="720.962"/>
      <point x="352.855" y="717.964"/>
      <point x="351.292" y="714.305" type="curve" smooth="yes"/>
      <point x="347.936" y="706.447"/>
      <point x="337.9" y="700"/>
      <point x="337.9" y="700" type="curve"/>
      <point x="333.383" y="700" type="line" smooth="yes"/>
      <point x="302.721" y="700"/>
      <point x="282.942" y="689.312"/>
      <point x="282.942" y="659.772" type="curve" smooth="yes"/>
      <point x="282.942" y="659.146"/>
      <point x="284.014" y="648.337"/>
      <point x="284.317" y="645.958" type="curve"/>
      <point x="366.002" y="251.842" type="line"/>
      <point x="490.711" y="413.479" type="line"/>
      <point x="471.154" y="534.603"/>
      <point x="450.098" y="609.438"/>
      <point x="441" y="663" type="curve"/>
      <point x="436" y="687"/>
      <point x="431.158" y="700"/>
      <point x="413.54" y="700" type="curve" smooth="yes"/>
      <point x="401.396" y="700" type="line"/>
      <point x="400.9" y="700"/>
      <point x="400.101" y="702.688"/>
      <point x="400.101" y="706.435" type="curve" smooth="yes"/>
      <point x="400.101" y="709.341"/>
      <point x="400.582" y="712.885"/>
      <point x="402.292" y="716.305" type="curve" smooth="yes"/>
      <point x="406.292" y="724.305"/>
      <point x="412.866" y="730"/>
      <point x="412.866" y="730" type="curve"/>
      <point x="626.339" y="730" type="line"/>
      <point x="627" y="730"/>
      <point x="629.239" y="726.947"/>
      <point x="629.239" y="724.006" type="curve" smooth="yes"/>
      <point x="629.239" y="720.962"/>
      <point x="628.855" y="717.964"/>
      <point x="627.292" y="714.305" type="curve" smooth="yes"/>
      <point x="623.936" y="706.447"/>
      <point x="613.9" y="700"/>
      <point x="613.9" y="700" type="curve"/>
      <point x="608.676" y="700" type="line" smooth="yes"/>
      <point x="576" y="700"/>
      <point x="556.005" y="684.304"/>
      <point x="556.005" y="661.645" type="curve" smooth="yes"/>
      <point x="556.005" y="661.547"/>
      <point x="556.439" y="657.251"/>
      <point x="556.626" y="656.116" type="curve" smooth="yes"/>
      <point x="586.215" y="519.512" type="line"/>
      <point x="690.395" y="644.797" type="line"/>
      <point x="699.995" y="658.915"/>
      <point x="704.516" y="666.96"/>
      <point x="704.516" y="678.104" type="curve" smooth="yes"/>
      <point x="704.516" y="687.27"/>
      <point x="694.621" y="700"/>
      <point x="675.935" y="700" type="curve" smooth="yes"/>
      <point x="665.9" y="700" type="line"/>
      <point x="665.9" y="700"/>
      <point x="665.101" y="702.688"/>
      <point x="665.101" y="706.435" type="curve" smooth="yes"/>
      <point x="665.101" y="709.341"/>
      <point x="665.582" y="712.885"/>
      <point x="667.292" y="716.305" type="curve" smooth="yes"/>
      <point x="671.292" y="724.305"/>
      <point x="677.866" y="730"/>
      <point x="677.866" y="730" type="curve"/>
      <point x="859.835" y="730" type="line"/>
      <point x="860" y="730"/>
      <point x="862.239" y="726.947"/>
      <point x="862.239" y="724.006" type="curve" smooth="yes"/>
      <point x="862.239" y="720.962"/>
      <point x="861.855" y="717.964"/>
      <point x="860.292" y="714.305" type="curve" smooth="yes"/>
      <point x="856.936" y="706.447"/>
      <point x="846.9" y="700"/>
      <point x="846.9" y="700" type="curve"/>
      <point x="841.611" y="700" type="line" smooth="yes"/>
      <point x="833.984" y="700"/>
      <point x="826.973" y="699.092"/>
      <point x="820.766" y="696.181" type="curve" smooth="yes"/>
      <point x="803.595" y="688.128"/>
      <point x="797.104" y="675.762"/>
      <point x="785.466" y="657.162" type="curve"/>
      <point x="609" y="411" type="line"/>
      <point x="647.53" y="206.038" type="line"/>
      <point x="950.747" y="642.606" type="line" smooth="yes"/>
      <point x="960.831" y="659.053"/>
      <point x="966.802" y="666.472"/>
      <point x="966.802" y="677.84" type="curve" smooth="yes"/>
      <point x="966.802" y="686.795"/>
      <point x="956.005" y="700"/>
      <point x="934.348" y="700" type="curve" smooth="yes"/>
      <point x="924.9" y="700" type="line"/>
      <point x="924.9" y="700"/>
      <point x="924.101" y="702.688"/>
      <point x="924.101" y="706.435" type="curve" smooth="yes"/>
      <point x="924.101" y="709.341"/>
      <point x="924.582" y="712.885"/>
      <point x="926.292" y="716.305" type="curve" smooth="yes"/>
      <point x="930.292" y="724.305"/>
      <point x="936.866" y="730"/>
      <point x="936.866" y="730" type="curve"/>
    </contour>
  </outline>
</glyph>
<glyph name="X" format="1">
  <advance width="692"/>
  <unicode hex="0058"/>
  <outline>
    <contour>
      <point x="618.431" y="0" type="curve"/>
      <point x="368" y="0" type="line"/>
      <point x="367.9" y="0"/>
      <point x="367.101" y="2.6875"/>
      <point x="367.101" y="6.43457" type="curve" smooth="yes"/>
      <point x="367.101" y="9.34082"/>
      <point x="367.582" y="12.8848"/>
      <point x="369.292" y="16.3047" type="curve" smooth="yes"/>
      <point x="373.292" y="24.3047"/>
      <point x="379.866" y="30"/>
      <point x="379.866" y="30" type="curve"/>
      <point x="385.966" y="30" type="line" smooth="yes"/>
      <point x="408" y="30"/>
      <point x="425.732" y="41.4072"/>
      <point x="425.732" y="59.209" type="curve" smooth="yes"/>
      <point x="425.732" y="65.3848"/>
      <point x="423.966" y="74.585"/>
      <point x="420.402" y="84.5635" type="curve"/>
      <point x="327.876" y="287.858" type="line"/>
      <point x="130.104" y="86.2461" type="line"/>
      <point x="115.184" y="68.3301"/>
      <point x="104.506" y="55.8193"/>
      <point x="101.738" y="50.2295" type="curve" smooth="yes"/>
      <point x="99.958" y="46.6338"/>
      <point x="99.0898" y="43.5391"/>
      <point x="99.0898" y="40.9238" type="curve" smooth="yes"/>
      <point x="99.0898" y="33.3008"/>
      <point x="106.461" y="29.75"/>
      <point x="120.091" y="29.75" type="curve" smooth="yes"/>
      <point x="123.114" y="29.75"/>
      <point x="126.67" y="30"/>
      <point x="130.966" y="30" type="curve" smooth="yes"/>
      <point x="141" y="30" type="line"/>
      <point x="141" y="30"/>
      <point x="143.239" y="26.9473"/>
      <point x="143.239" y="24.0059" type="curve" smooth="yes"/>
      <point x="143.239" y="20.9619"/>
      <point x="142.855" y="17.9639"/>
      <point x="141.292" y="14.3047" type="curve" smooth="yes"/>
      <point x="137.936" y="6.44727"/>
      <point x="127.9" y="0"/>
      <point x="127.9" y="0" type="curve"/>
      <point x="-80.0996" y="0" type="line"/>
      <point x="-80.0996" y="0"/>
      <point x="-80.8994" y="2.6875"/>
      <point x="-80.8994" y="6.43457" type="curve" smooth="yes"/>
      <point x="-80.8994" y="9.34082"/>
      <point x="-80.418" y="12.8848"/>
      <point x="-78.708" y="16.3047" type="curve" smooth="yes"/>
      <point x="-74.708" y="24.3047"/>
      <point x="-68.1338" y="30"/>
      <point x="-68.1338" y="30" type="curve"/>
      <point x="-63.0342" y="30" type="line" smooth="yes"/>
      <point x="-27.9844" y="30"/>
      <point x="-19.9277" y="49.2881"/>
      <point x="2.80664" y="73.042" type="curve"/>
      <point x="280.896" y="367.46" type="line"/>
      <point x="229.961" y="497.595"/>
      <point x="177.768" y="620.694"/>
      <point x="152" y="677" type="curve"/>
      <point x="145.059" y="693.317"/>
      <point x="137.876" y="700"/>
      <point x="111.966" y="700" type="curve" smooth="yes"/>
      <point x="104.9" y="700" type="line"/>
      <point x="104.9" y="700"/>
      <point x="104.101" y="702.688"/>
      <point x="104.101" y="706.435" type="curve" smooth="yes"/>
      <point x="104.101" y="709.341"/>
      <point x="104.582" y="712.885"/>
      <point x="106.292" y="716.305" type="curve" smooth="yes"/>
      <point x="110.292" y="724.305"/>
      <point x="116.866" y="730"/>
      <point x="116.866" y="730" type="curve"/>
      <point x="369" y="730" type="line"/>
      <point x="369" y="730"/>
      <point x="371.239" y="726.947"/>
      <point x="371.239" y="724.006" type="curve" smooth="yes"/>
      <point x="371.239" y="720.962"/>
      <point x="370.855" y="717.964"/>
      <point x="369.292" y="714.305" type="curve" smooth="yes"/>
      <point x="365.936" y="706.447"/>
      <point x="355.9" y="700"/>
      <point x="356.431" y="700" type="curve"/>
      <point x="350.966" y="700" type="line" smooth="yes"/>
      <point x="323.595" y="700"/>
      <point x="308.77" y="687.362"/>
      <point x="308.77" y="666.755" type="curve" smooth="yes"/>
      <point x="308.77" y="662.033"/>
      <point x="312.496" y="653.086"/>
      <point x="315.473" y="645.58" type="curve" smooth="yes"/>
      <point x="392.536" y="464.006" type="line"/>
      <point x="578.775" y="642.697" type="line"/>
      <point x="597.625" y="663.642"/>
      <point x="605.275" y="669.682"/>
      <point x="605.275" y="680.925" type="curve" smooth="yes"/>
      <point x="605.275" y="686.442"/>
      <point x="596.811" y="700"/>
      <point x="577.966" y="700" type="curve" smooth="yes"/>
      <point x="566.9" y="700" type="line"/>
      <point x="566.9" y="700"/>
      <point x="566.101" y="702.688"/>
      <point x="566.101" y="706.435" type="curve" smooth="yes"/>
      <point x="566.101" y="709.341"/>
      <point x="566.582" y="712.885"/>
      <point x="568.292" y="716.305" type="curve" smooth="yes"/>
      <point x="572.292" y="724.305"/>
      <point x="578.866" y="730"/>
      <point x="578.866" y="730" type="curve"/>
      <point x="781" y="730" type="line"/>
      <point x="781" y="730"/>
      <point x="783.239" y="726.947"/>
      <point x="783.239" y="724.006" type="curve" smooth="yes"/>
      <point x="783.239" y="720.962"/>
      <point x="782.855" y="717.964"/>
      <point x="781.292" y="714.305" type="curve" smooth="yes"/>
      <point x="777.936" y="706.447"/>
      <point x="767.9" y="700"/>
      <point x="767.9" y="700" type="curve"/>
      <point x="762.966" y="700" type="line" smooth="yes"/>
      <point x="727.879" y="700"/>
      <point x="715.911" y="679.723"/>
      <point x="694.117" y="656.951" type="curve"/>
      <point x="430.353" y="385.765" type="line"/>
      <point x="436.219" y="371.079" type="line"/>
      <point x="499.499" y="234.978"/>
      <point x="557.53" y="117.836"/>
      <point x="584.397" y="58.3789" type="curve"/>
      <point x="591.915" y="40.707"/>
      <point x="598.72" y="30"/>
      <point x="622.966" y="30" type="curve" smooth="yes"/>
      <point x="631" y="30" type="line"/>
      <point x="631" y="30"/>
      <point x="633.239" y="26.9473"/>
      <point x="633.239" y="24.0059" type="curve" smooth="yes"/>
      <point x="633.239" y="20.9619"/>
      <point x="632.855" y="17.9639"/>
      <point x="631.292" y="14.3047" type="curve" smooth="yes"/>
      <point x="627.936" y="6.44727"/>
      <point x="617.9" y="0"/>
    </contour>
  </outline>
</glyph>
<glyph name="Y" format="1">
  <advance width="693"/>
  <unicode hex="0059"/>
  <outline>
    <contour>
      <point x="775.931" y="730" type="line"/>
      <point x="776" y="730"/>
      <point x="778.239" y="726.947"/>
      <point x="778.239" y="724.006" type="curve" smooth="yes"/>
      <point x="778.239" y="720.962"/>
      <point x="777.855" y="717.964"/>
      <point x="776.292" y="714.305" type="curve" smooth="yes"/>
      <point x="772.936" y="706.447"/>
      <point x="762.9" y="700"/>
      <point x="762.9" y="700" type="curve"/>
      <point x="755.966" y="700" type="line" smooth="yes"/>
      <point x="724.868" y="700"/>
      <point x="709.799" y="680.884"/>
      <point x="700.229" y="669.807" type="curve"/>
      <point x="437.284" y="391.95" type="line"/>
      <point x="424.563" y="346.952"/>
      <point x="416.243" y="302.264"/>
      <point x="405.676" y="256.682" type="curve" smooth="yes"/>
      <point x="389.993" y="189.036"/>
      <point x="379.764" y="146.349"/>
      <point x="362.841" y="79.0654" type="curve"/>
      <point x="362.841" y="79.0654"/>
      <point x="358.146" y="62.5723"/>
      <point x="358.146" y="56.6006" type="curve" smooth="yes"/>
      <point x="358.146" y="41.6777"/>
      <point x="368.697" y="30"/>
      <point x="390.187" y="30" type="curve" smooth="yes"/>
      <point x="399" y="30" type="line"/>
      <point x="399" y="30"/>
      <point x="401.239" y="26.9473"/>
      <point x="401.239" y="24.0059" type="curve" smooth="yes"/>
      <point x="401.239" y="20.9619"/>
      <point x="400.855" y="17.9639"/>
      <point x="399.292" y="14.3047" type="curve" smooth="yes"/>
      <point x="395.936" y="6.44727"/>
      <point x="386.742" y="0"/>
      <point x="386.742" y="0" type="curve"/>
      <point x="125" y="0" type="line"/>
      <point x="124.9" y="0"/>
      <point x="124.101" y="2.6875"/>
      <point x="124.101" y="6.43457" type="curve" smooth="yes"/>
      <point x="124.101" y="9.34082"/>
      <point x="124.582" y="12.8848"/>
      <point x="126.292" y="16.3047" type="curve" smooth="yes"/>
      <point x="130.292" y="24.3047"/>
      <point x="136.866" y="30"/>
      <point x="136.866" y="30" type="curve"/>
      <point x="142.966" y="30" type="line" smooth="yes"/>
      <point x="151.086" y="30"/>
      <point x="159.04" y="30.9932"/>
      <point x="167.395" y="33.7852" type="curve" smooth="yes"/>
      <point x="183" y="39"/>
      <point x="192.713" y="56.6875"/>
      <point x="195.153" y="67.0479" type="curve" smooth="yes"/>
      <point x="212.195" y="135.781"/>
      <point x="227.168" y="193.263"/>
      <point x="243.147" y="260.764" type="curve" smooth="yes"/>
      <point x="252.905" y="301.862"/>
      <point x="263.185" y="345.393"/>
      <point x="271.724" y="384.931" type="curve"/>
      <point x="223.597" y="508.672"/>
      <point x="172.438" y="626.969"/>
      <point x="147.547" y="680.61" type="curve"/>
      <point x="140.5" y="697.177"/>
      <point x="135.604" y="700"/>
      <point x="111.966" y="700" type="curve" smooth="yes"/>
      <point x="103.9" y="700" type="line"/>
      <point x="103.9" y="700"/>
      <point x="103.101" y="702.688"/>
      <point x="103.101" y="706.435" type="curve" smooth="yes"/>
      <point x="103.101" y="709.341"/>
      <point x="103.582" y="712.885"/>
      <point x="105.292" y="716.305" type="curve" smooth="yes"/>
      <point x="109.292" y="724.305"/>
      <point x="115.866" y="730"/>
      <point x="115.5" y="730" type="curve"/>
      <point x="362.4" y="730" type="line"/>
      <point x="363" y="730"/>
      <point x="365.239" y="726.947"/>
      <point x="365.239" y="724.006" type="curve" smooth="yes"/>
      <point x="365.239" y="720.962"/>
      <point x="364.855" y="717.964"/>
      <point x="363.292" y="714.305" type="curve" smooth="yes"/>
      <point x="359.936" y="706.447"/>
      <point x="349.9" y="700"/>
      <point x="349.9" y="700" type="curve"/>
      <point x="343.966" y="700" type="line" smooth="yes"/>
      <point x="320.172" y="700"/>
      <point x="305.199" y="685.212"/>
      <point x="305.199" y="667.791" type="curve" smooth="yes"/>
      <point x="305.199" y="662.626"/>
      <point x="306.973" y="655.392"/>
      <point x="310.521" y="645.455" type="curve"/>
      <point x="399.613" y="459.013" type="line"/>
      <point x="578.801" y="641.725" type="line" smooth="yes"/>
      <point x="596.683" y="661.271"/>
      <point x="608.554" y="673.879"/>
      <point x="608.554" y="682.007" type="curve" smooth="yes"/>
      <point x="608.554" y="692.407"/>
      <point x="597.742" y="700"/>
      <point x="576.966" y="700" type="curve" smooth="yes"/>
      <point x="567.9" y="700" type="line"/>
      <point x="567.9" y="700"/>
      <point x="567.101" y="702.688"/>
      <point x="567.101" y="706.435" type="curve" smooth="yes"/>
      <point x="567.101" y="709.341"/>
      <point x="567.582" y="712.885"/>
      <point x="569.292" y="716.305" type="curve" smooth="yes"/>
      <point x="573.292" y="724.305"/>
      <point x="579.866" y="730"/>
      <point x="579.866" y="730" type="curve"/>
    </contour>
  </outline>
</glyph>
<glyph name="Z" format="1">
  <advance width="773"/>
  <unicode hex="005A"/>
  <outline>
    <contour>
      <point x="758.697" y="671.641" type="curve" smooth="yes"/>
      <point x="235.072" y="49.0195" type="line"/>
      <point x="266.75" y="45.0605"/>
      <point x="312.001" y="43"/>
      <point x="348.862" y="43" type="curve" smooth="yes"/>
      <point x="391.105" y="43"/>
      <point x="461.633" y="43.0596"/>
      <point x="510.252" y="49.9297" type="curve" smooth="yes"/>
      <point x="574.742" y="58.7168"/>
      <point x="613.318" y="108.241"/>
      <point x="642.43" y="176.744" type="curve"/>
      <point x="666.759" y="178.593" type="line"/>
      <point x="595.97" y="0" type="line"/>
      <point x="64.3701" y="0" type="line" smooth="yes"/>
      <point x="56.7207" y="0"/>
      <point x="37.3701" y="3.43555"/>
      <point x="37.3701" y="23.5254" type="curve" smooth="yes"/>
      <point x="37.3701" y="33.2324"/>
      <point x="44.9111" y="44.5439"/>
      <point x="48.9541" y="49.498" type="curve"/>
      <point x="592.928" y="686.734" type="line"/>
      <point x="565.47" y="687.907"/>
      <point x="512.187" y="690"/>
      <point x="471.749" y="690" type="curve" smooth="yes"/>
      <point x="415.042" y="690"/>
      <point x="391.212" y="688.956"/>
      <point x="350.907" y="680.169" type="curve" smooth="yes"/>
      <point x="281.615" y="665.138"/>
      <point x="244.031" y="627.67"/>
      <point x="216.005" y="567.295" type="curve"/>
      <point x="194.351" y="565.25" type="line"/>
      <point x="265.659" y="726.883" type="line" smooth="yes"/>
      <point x="269.297" y="732.172"/>
      <point x="276.621" y="734"/>
      <point x="282.99" y="734" type="curve" smooth="yes"/>
      <point x="294.359" y="734"/>
      <point x="312.356" y="730"/>
      <point x="317" y="730" type="curve" smooth="yes"/>
      <point x="774.393" y="730" type="line"/>
      <point x="774.393" y="730"/>
      <point x="775.202" y="720.745"/>
      <point x="775.37" y="716.117" type="curve" smooth="yes"/>
      <point x="775.37" y="700.814"/>
      <point x="769.326" y="683.547"/>
    </contour>
  </outline>
</glyph>
<glyph name="bracketleft" format="1">
  <advance width="478"/>
  <unicode hex="005B"/>
  <outline>
    <contour>
      <point x="313.704" y="706.95" type="line"/>
      <point x="138.671" y="-59.9502" type="line"/>
      <point x="245.88" y="-59.9502" type="line" smooth="yes"/>
      <point x="257.459" y="-59.9502"/>
      <point x="258.094" y="-73.0762"/>
      <point x="258.094" y="-78.6455" type="curve" smooth="yes"/>
      <point x="258.094" y="-92.1465"/>
      <point x="253.255" y="-110.15"/>
      <point x="237.38" y="-110.15" type="curve" smooth="yes"/>
      <point x="56.7305" y="-110.15" type="line" smooth="yes"/>
      <point x="44.3799" y="-110.15"/>
      <point x="35.0771" y="-103.211"/>
      <point x="35.0771" y="-90.3564" type="curve" smooth="yes"/>
      <point x="35.0771" y="-87.29"/>
      <point x="35.4824" y="-84.1982"/>
      <point x="36.2471" y="-80.6289" type="curve"/>
      <point x="222.097" y="723.672" type="line"/>
      <point x="225.859" y="741.228"/>
      <point x="238.011" y="750.15"/>
      <point x="256.23" y="750.15" type="curve" smooth="yes"/>
      <point x="432.68" y="750.15" type="line" smooth="yes"/>
      <point x="443.642" y="750.15"/>
      <point x="444.142" y="738.052"/>
      <point x="444.142" y="733.502" type="curve" smooth="yes"/>
      <point x="444.142" y="721.158"/>
      <point x="441.785" y="706.95"/>
      <point x="425.18" y="706.95" type="curve" smooth="yes"/>
    </contour>
  </outline>
</glyph>
<glyph name="bracketright" format="1">
  <advance width="481"/>
  <unicode hex="005D"/>
  <outline>
    <contour>
      <point x="341.984" y="705.95" type="line"/>
      <point x="233.737" y="705.95" type="line" smooth="yes"/>
      <point x="222.232" y="705.95"/>
      <point x="221.815" y="719.202"/>
      <point x="221.815" y="724.382" type="curve" smooth="yes"/>
      <point x="221.815" y="736.761"/>
      <point x="223.082" y="750.15"/>
      <point x="240.237" y="750.15" type="curve" smooth="yes"/>
      <point x="417.737" y="750.15" type="line" smooth="yes"/>
      <point x="432.114" y="750.15"/>
      <point x="443.46" y="743.776"/>
      <point x="443.46" y="729.399" type="curve" smooth="yes"/>
      <point x="443.46" y="726.585"/>
      <point x="443.1" y="723.8"/>
      <point x="442.421" y="720.629" type="curve"/>
      <point x="256.57" y="-83.6719" type="line"/>
      <point x="252.881" y="-100.892"/>
      <point x="241.242" y="-110.15"/>
      <point x="225.588" y="-110.15" type="curve" smooth="yes"/>
      <point x="44.9375" y="-110.15" type="line" smooth="yes"/>
      <point x="33.4316" y="-110.15"/>
      <point x="33.0156" y="-96.8975"/>
      <point x="33.0156" y="-91.7168" type="curve" smooth="yes"/>
      <point x="33.0156" y="-79.3369"/>
      <point x="36.2832" y="-59.9502"/>
      <point x="53.4375" y="-59.9502" type="curve" smooth="yes"/>
      <point x="164.921" y="-59.9502" type="line"/>
    </contour>
  </outline>
</glyph>
<glyph name="asciicircum" format="1">
  <advance width="498"/>
  <unicode hex="005E"/>
  <outline>
    <contour>
      <point x="461.37" y="581.724" type="line" smooth="yes"/>
      <point x="454.126" y="568.443"/>
      <point x="433.019" y="551.027"/>
      <point x="422.239" y="547.435" type="curve" smooth="yes"/>
      <point x="418.312" y="546.125" type="line"/>
      <point x="293.27" y="641.789" type="line"/>
      <point x="115.459" y="546.368" type="line"/>
      <point x="112.261" y="547.435" type="line" smooth="yes"/>
      <point x="100.072" y="551.497"/>
      <point x="82.7754" y="571.927"/>
      <point x="82.7754" y="585.075" type="curve" smooth="yes"/>
      <point x="82.7754" y="588.279" type="line"/>
      <point x="316.313" y="781.285" type="line"/>
      <point x="463.449" y="585.535" type="line"/>
    </contour>
  </outline>
</glyph>
<glyph name="underscore" format="1">
  <advance width="449"/>
  <unicode hex="005F"/>
  <outline>
    <contour>
      <point x="77.2715" y="-11" type="line" smooth="yes"/>
      <point x="66.2061" y="-11"/>
      <point x="62.8154" y="10.6797"/>
      <point x="62.8154" y="15.9854" type="curve" smooth="yes"/>
      <point x="62.8154" y="27.9277"/>
      <point x="69.2715" y="65"/>
      <point x="86.7217" y="65" type="curve" smooth="yes"/>
      <point x="364.121" y="65" type="line" smooth="yes"/>
      <point x="375.232" y="65"/>
      <point x="378.335" y="42.8516"/>
      <point x="378.335" y="37.4404" type="curve" smooth="yes"/>
      <point x="378.335" y="25.6289"/>
      <point x="371.551" y="-11"/>
      <point x="354.671" y="-11" type="curve" smooth="yes"/>
    </contour>
  </outline>
</glyph>
<glyph name="grave" format="1">
  <advance width="303"/>
  <unicode hex="0060"/>
  <outline>
    <contour>
      <point x="213.833" y="528.676" type="line" smooth="yes"/>
      <point x="172.236" y="564.186"/>
      <point x="84.9453" y="647.029"/>
      <point x="73.5537" y="664.117" type="curve" smooth="yes"/>
      <point x="68.6699" y="671.442"/>
      <point x="66" y="680.024"/>
      <point x="66" y="689.172" type="curve" smooth="yes"/>
      <point x="66" y="722.774"/>
      <point x="96.6924" y="751"/>
      <point x="125.378" y="751" type="curve" smooth="yes"/>
      <point x="138.011" y="751"/>
      <point x="150.617" y="746.26"/>
      <point x="158.202" y="734.883" type="curve" smooth="yes"/>
      <point x="169.401" y="718.084"/>
      <point x="218.66" y="602.116"/>
      <point x="240.824" y="549.728" type="curve" smooth="yes"/>
      <point x="242.874" y="544.884" type="line"/>
      <point x="218.268" y="524.891" type="line"/>
    </contour>
  </outline>
</glyph>
<glyph name="a" format="1">
  <advance width="625"/>
  <unicode hex="0061"/>
  <outline>
    <contour>
      <point x="507.256" y="52.5371" type="curve"/>
      <point x="507.256" y="21.835" type="line"/>
      <point x="482.203" y="5.65332"/>
      <point x="450.297" y="-7.27539"/>
      <point x="422.446" y="-7.27539" type="curve" smooth="yes"/>
      <point x="378.599" y="-7.27539"/>
      <point x="348.051" y="11.8076"/>
      <point x="345.301" y="28.5898" type="curve"/>
      <point x="306.704" y="3.90918"/>
      <point x="275.325" y="-10.4248"/>
      <point x="225.945" y="-10.4248" type="curve" smooth="yes"/>
      <point x="100.496" y="-10.4248"/>
      <point x="34.2217" y="52.9668"/>
      <point x="34.2217" y="166.87" type="curve" smooth="yes"/>
      <point x="34.2217" y="377.188"/>
      <point x="165.98" y="511.425"/>
      <point x="350.353" y="511.425" type="curve" smooth="yes"/>
      <point x="389.702" y="511.425"/>
      <point x="425.243" y="503.098"/>
      <point x="454.613" y="474.852" type="curve"/>
      <point x="456.954" y="485.384" type="line"/>
      <point x="461.647" y="486.137" type="line" smooth="yes"/>
      <point x="489.358" y="490.581"/>
      <point x="555.347" y="496.212"/>
      <point x="582.081" y="503.09" type="curve"/>
      <point x="479.826" y="60.4814" type="line" smooth="yes"/>
      <point x="476.042" y="44.5205" type="line"/>
      <point x="486.262" y="47.0684"/>
      <point x="496.93" y="49.7969"/>
    </contour>
    <contour>
      <point x="352" y="83" type="curve"/>
      <point x="419" y="362" type="line"/>
      <point x="419.373" y="368.484"/>
      <point x="424.539" y="387.396"/>
      <point x="424.539" y="393.235" type="curve" smooth="yes"/>
      <point x="424.539" y="439.095"/>
      <point x="395.391" y="471.375"/>
      <point x="352.947" y="471.375" type="curve" smooth="yes"/>
      <point x="266.621" y="471.375"/>
      <point x="179.577" y="319.807"/>
      <point x="179.577" y="169.765" type="curve" smooth="yes"/>
      <point x="179.577" y="131.276"/>
      <point x="201.372" y="48.0752"/>
      <point x="263.382" y="48.0752" type="curve" smooth="yes"/>
      <point x="308.192" y="48.0752"/>
      <point x="345.255" y="69.708"/>
    </contour>
  </outline>
</glyph>
<glyph name="b" format="1">
  <advance width="619"/>
  <unicode hex="0062"/>
  <outline>
    <contour>
      <point x="341.346" y="745.498" type="curve" smooth="yes"/>
      <point x="277.874" y="480.834" type="line"/>
      <point x="310.974" y="501.122"/>
      <point x="332.788" y="511.9"/>
      <point x="386.319" y="511.9" type="curve" smooth="yes"/>
      <point x="483.86" y="511.9"/>
      <point x="572.312" y="480.563"/>
      <point x="572.312" y="329.054" type="curve" smooth="yes"/>
      <point x="572.312" y="124.735"/>
      <point x="484.102" y="-9.9502"/>
      <point x="270.794" y="-9.9502" type="curve" smooth="yes"/>
      <point x="233.442" y="-9.9502"/>
      <point x="193.903" y="-0.825195"/>
      <point x="163.668" y="22.7725" type="curve"/>
      <point x="137.562" y="3.89062"/>
      <point x="73.2852" y="-3.65039"/>
      <point x="6.42676" y="-3.65039" type="curve" smooth="yes"/>
      <point x="-2.2002" y="-3.65039" type="line"/>
      <point x="5.94727" y="29.623" type="line"/>
      <point x="11.627" y="29.623" type="line" smooth="yes"/>
      <point x="31.5479" y="29.623"/>
      <point x="44.0449" y="46.0703"/>
      <point x="46.6064" y="56.9453" type="curve" smooth="yes"/>
      <point x="190.895" y="677.578" type="line" smooth="yes"/>
      <point x="191.977" y="682.011"/>
      <point x="194.562" y="693.323"/>
      <point x="194.562" y="697.165" type="curve" smooth="yes"/>
      <point x="194.562" y="705.987"/>
      <point x="192.419" y="712.472"/>
      <point x="187.816" y="715.488" type="curve" smooth="yes"/>
      <point x="184.914" y="717.391"/>
      <point x="177.693" y="718.95"/>
      <point x="168.851" y="718.95" type="curve" smooth="yes"/>
      <point x="159.565" y="718.95" type="line"/>
      <point x="164.972" y="745.254" type="line"/>
      <point x="319.367" y="770.701" type="line" smooth="yes"/>
      <point x="321.318" y="771.208"/>
      <point x="327.186" y="774"/>
      <point x="332.398" y="774" type="curve" smooth="yes"/>
      <point x="335.929" y="774"/>
      <point x="343.897" y="770.192"/>
      <point x="343.897" y="760.41" type="curve" smooth="yes"/>
      <point x="343.897" y="755.986"/>
      <point x="342.88" y="751.8"/>
    </contour>
    <contour>
      <point x="266" y="429" type="curve"/>
      <point x="188" y="104" type="line" smooth="yes"/>
      <point x="187.546" y="102.109"/>
      <point x="187.502" y="97.2637"/>
      <point x="187.502" y="93.8682" type="curve" smooth="yes"/>
      <point x="187.502" y="60.0664"/>
      <point x="226.387" y="35.1504"/>
      <point x="272.521" y="35.1504" type="curve" smooth="yes"/>
      <point x="383.276" y="35.1504"/>
      <point x="435.996" y="204.238"/>
      <point x="435.996" y="328.887" type="curve" smooth="yes"/>
      <point x="435.996" y="405.891"/>
      <point x="405.327" y="471.4"/>
      <point x="357.052" y="471.4" type="curve" smooth="yes"/>
      <point x="321.197" y="471.4"/>
      <point x="302.628" y="456.823"/>
    </contour>
  </outline>
</glyph>
<glyph name="c" format="1">
  <advance width="542"/>
  <unicode hex="0063"/>
  <outline>
    <contour>
      <point x="363.126" y="511.425" type="curve" smooth="yes"/>
      <point x="426.292" y="511.425"/>
      <point x="485.956" y="490.004"/>
      <point x="524.178" y="417.226" type="curve" smooth="yes"/>
      <point x="525.799" y="414.138"/>
      <point x="527.71" y="410.977"/>
      <point x="527.71" y="406.657" type="curve" smooth="yes"/>
      <point x="527.71" y="381.821"/>
      <point x="479.677" y="360.875"/>
      <point x="463.048" y="360.875" type="curve" smooth="yes"/>
      <point x="394.816" y="360.875"/>
      <point x="419.072" y="474.325"/>
      <point x="353.64" y="474.325" type="curve" smooth="yes"/>
      <point x="280.338" y="474.325"/>
      <point x="176.371" y="332.743"/>
      <point x="176.371" y="195.656" type="curve" smooth="yes"/>
      <point x="176.371" y="122.196"/>
      <point x="220.448" y="47.6748"/>
      <point x="289.962" y="47.6748" type="curve" smooth="yes"/>
      <point x="331.373" y="47.6748"/>
      <point x="392.601" y="63.6504"/>
      <point x="440.691" y="101.139" type="curve"/>
      <point x="457.208" y="72.3486" type="line"/>
      <point x="390.063" y="11.6934"/>
      <point x="349.004" y="-10.4248"/>
      <point x="248.38" y="-10.4248" type="curve" smooth="yes"/>
      <point x="137.47" y="-10.4248"/>
      <point x="23.6279" y="38.0186"/>
      <point x="23.6279" y="174.27" type="curve" smooth="yes"/>
      <point x="23.6279" y="381.378"/>
      <point x="183.362" y="511.425"/>
    </contour>
  </outline>
</glyph>
<glyph name="d" format="1">
  <advance width="658"/>
  <unicode hex="0064"/>
  <outline>
    <contour>
      <point x="517.466" y="59.5801" type="line"/>
      <point x="517.466" y="22.5596" type="line"/>
      <point x="485.07" y="7.9043"/>
      <point x="469.67" y="-6.7998"/>
      <point x="422.184" y="-6.7998" type="curve" smooth="yes"/>
      <point x="391.264" y="-6.7998"/>
      <point x="336.294" y="10.6992"/>
      <point x="336.294" y="23.2354" type="curve" smooth="yes"/>
      <point x="336.294" y="23.2354"/>
      <point x="287.04" y="-9.9502"/>
      <point x="239.223" y="-9.9502" type="curve" smooth="yes"/>
      <point x="118.479" y="-9.9502"/>
      <point x="40.2793" y="61.5879"/>
      <point x="40.2793" y="171.988" type="curve" smooth="yes"/>
      <point x="40.2793" y="393.97"/>
      <point x="153.479" y="511.9"/>
      <point x="336.389" y="511.9" type="curve" smooth="yes"/>
      <point x="365.37" y="511.9"/>
      <point x="411.465" y="503.636"/>
      <point x="442.21" y="475.252" type="curve"/>
      <point x="488.817" y="671.632" type="line"/>
      <point x="490.423" y="678.054"/>
      <point x="493.119" y="686.343"/>
      <point x="493.119" y="693.812" type="curve" smooth="yes"/>
      <point x="493.119" y="700.366"/>
      <point x="492.751" y="708.142"/>
      <point x="489.095" y="711.639" type="curve" smooth="yes"/>
      <point x="483.752" y="716.75"/>
      <point x="473.622" y="719.101"/>
      <point x="466.802" y="719.101" type="curve" smooth="yes"/>
      <point x="458.585" y="719.101" type="line"/>
      <point x="463.96" y="744.472" type="line"/>
      <point x="501.499" y="753.923"/>
      <point x="599.609" y="762.804"/>
      <point x="636.678" y="772.726" type="curve" smooth="yes"/>
      <point x="637.421" y="772.958"/>
      <point x="639.761" y="774.15"/>
      <point x="643.225" y="774.15" type="curve" smooth="yes"/>
      <point x="651.236" y="774.15"/>
      <point x="654.062" y="766.616"/>
      <point x="654.062" y="762.415" type="curve" smooth="yes"/>
      <point x="654.062" y="757.738"/>
      <point x="652.61" y="752.53"/>
      <point x="651.13" y="746.608" type="curve"/>
      <point x="491.791" y="69.6436" type="line"/>
      <point x="487.719" y="52.4678" type="line"/>
    </contour>
    <contour>
      <point x="352" y="89" type="curve"/>
      <point x="418" y="368" type="line"/>
      <point x="419.367" y="375.102"/>
      <point x="422.518" y="390.247"/>
      <point x="422.518" y="396.291" type="curve" smooth="yes"/>
      <point x="422.518" y="437.248"/>
      <point x="403.014" y="475.85"/>
      <point x="361.083" y="475.85" type="curve" smooth="yes"/>
      <point x="259.85" y="475.85"/>
      <point x="186.592" y="318.977"/>
      <point x="186.592" y="175.941" type="curve" smooth="yes"/>
      <point x="186.592" y="118.53"/>
      <point x="208.483" y="35.5498"/>
      <point x="270.416" y="35.5498" type="curve" smooth="yes"/>
      <point x="330.608" y="35.5498"/>
      <point x="345.011" y="72.3447"/>
    </contour>
  </outline>
</glyph>
<glyph name="e" format="1">
  <advance width="572"/>
  <unicode hex="0065"/>
  <outline>
    <contour>
      <point x="540.616" y="417.644" type="curve" smooth="yes"/>
      <point x="540.616" y="247.021"/>
      <point x="268.218" y="240.302"/>
      <point x="183.851" y="221.783" type="curve"/>
      <point x="181.535" y="207.759"/>
      <point x="180.383" y="187.097"/>
      <point x="180.383" y="173.983" type="curve" smooth="yes"/>
      <point x="180.383" y="115.862"/>
      <point x="231.287" y="47.2002"/>
      <point x="295.99" y="47.2002" type="curve" smooth="yes"/>
      <point x="347.364" y="47.2002"/>
      <point x="407.451" y="64.8389"/>
      <point x="464.931" y="103.958" type="curve"/>
      <point x="467.66" y="96.8535"/>
      <point x="480.845" y="83.2422"/>
      <point x="480.845" y="74.4854" type="curve" smooth="yes"/>
      <point x="480.845" y="72.1357"/>
      <point x="480.269" y="70.1924"/>
      <point x="478.813" y="68.959" type="curve" smooth="yes"/>
      <point x="415.78" y="15.5322"/>
      <point x="382.147" y="-10.4502"/>
      <point x="258.815" y="-10.4502" type="curve" smooth="yes"/>
      <point x="146.472" y="-10.4502"/>
      <point x="26.6162" y="48.7646"/>
      <point x="26.6162" y="165.73" type="curve" smooth="yes"/>
      <point x="26.6162" y="396.784"/>
      <point x="174.237" y="512.45"/>
      <point x="360.999" y="512.45" type="curve" smooth="yes"/>
      <point x="456.094" y="512.45"/>
      <point x="540.616" y="486.993"/>
    </contour>
    <contour>
      <point x="331.799" y="470.866" type="curve" smooth="yes"/>
      <point x="276.679" y="470.866"/>
      <point x="204.985" y="395.893"/>
      <point x="178.658" y="274.613" type="curve"/>
      <point x="266.739" y="292.837"/>
      <point x="395.336" y="338.188"/>
      <point x="395.336" y="409.685" type="curve" smooth="yes"/>
      <point x="395.336" y="449.355"/>
      <point x="372.001" y="470.866"/>
    </contour>
  </outline>
</glyph>
<glyph name="f" format="1">
  <advance width="542"/>
  <unicode hex="0066"/>
  <outline>
    <contour>
      <point x="404.007" y="484.899" type="curve" smooth="yes"/>
      <point x="404.007" y="477.925"/>
      <point x="392.596" y="448.948"/>
      <point x="390" y="444" type="curve" smooth="yes"/>
      <point x="386.181" y="437.063" type="line"/>
      <point x="381.468" y="437.063" type="line" smooth="yes"/>
      <point x="375.899" y="437.063"/>
      <point x="322.714" y="440.798"/>
      <point x="284.059" y="441.155" type="curve"/>
      <point x="182.749" y="16.6807" type="line" smooth="yes"/>
      <point x="152.55" y="-113.777"/>
      <point x="68.6875" y="-179.2"/>
      <point x="-67.4502" y="-179.2" type="curve" smooth="yes"/>
      <point x="-116.66" y="-179.2"/>
      <point x="-184.853" y="-158.871"/>
      <point x="-211.646" y="-109.752" type="curve"/>
      <point x="-211.646" y="-109.752"/>
      <point x="-215.013" y="-98.9775"/>
      <point x="-215.013" y="-96.6182" type="curve" smooth="yes"/>
      <point x="-215.013" y="-77.9561"/>
      <point x="-179.56" y="-51.8496"/>
      <point x="-154.75" y="-51.8496" type="curve" smooth="yes"/>
      <point x="-92.6309" y="-51.8496"/>
      <point x="-130.513" y="-141.05"/>
      <point x="-69.8848" y="-141.05" type="curve" smooth="yes"/>
      <point x="-18.6221" y="-141.05"/>
      <point x="21.2324" y="-78.9805"/>
      <point x="43.0303" y="24.125" type="curve" smooth="yes"/>
      <point x="138.121" y="440.808" type="line"/>
      <point x="114.453" y="440.043"/>
      <point x="105.259" y="436.942"/>
      <point x="105.165" y="436.928" type="curve" smooth="yes"/>
      <point x="92.3438" y="434.916" type="line"/>
      <point x="112.4" y="497.561" type="line"/>
      <point x="151.882" y="497.561" type="line"/>
      <point x="153.668" y="504.469"/>
      <point x="156.554" y="515.831"/>
      <point x="159.558" y="528.693" type="curve" smooth="yes"/>
      <point x="161.815" y="538.568"/>
      <point x="165.029" y="548.917"/>
      <point x="167.194" y="557.333" type="curve"/>
      <point x="214.352" y="718.222"/>
      <point x="288.688" y="768.825"/>
      <point x="447.418" y="768.825" type="curve" smooth="yes"/>
      <point x="506.097" y="768.825"/>
      <point x="552.133" y="753.033"/>
      <point x="577.194" y="700.774" type="curve"/>
      <point x="580.299" y="695.022"/>
      <point x="581.107" y="690.452"/>
      <point x="581.107" y="687.188" type="curve" smooth="yes"/>
      <point x="581.107" y="663.235"/>
      <point x="543.674" y="639.125"/>
      <point x="528.518" y="639.125" type="curve" smooth="yes"/>
      <point x="467.876" y="639.125"/>
      <point x="477.88" y="732.775"/>
      <point x="437.854" y="732.775" type="curve" smooth="yes"/>
      <point x="385.974" y="732.775"/>
      <point x="335.921" y="666.279"/>
      <point x="307.078" y="547.616" type="curve" smooth="yes"/>
      <point x="295.772" y="501.99" type="line"/>
      <point x="373.66" y="501.99" type="line" smooth="yes"/>
      <point x="390.135" y="501.99"/>
      <point x="404.007" y="497.937"/>
    </contour>
  </outline>
</glyph>
<glyph name="g" format="1">
  <advance width="632"/>
  <unicode hex="0067"/>
  <outline>
    <contour>
      <point x="193.166" y="-231.4" type="curve" smooth="yes"/>
      <point x="279.46" y="-231.4"/>
      <point x="361.614" y="-174.095"/>
      <point x="361.614" y="-109.335" type="curve" smooth="yes"/>
      <point x="361.614" y="-71.4746"/>
      <point x="299.376" y="-47.9971"/>
      <point x="246.248" y="-40.3848" type="curve"/>
      <point x="177.639" y="-65.5537"/>
      <point x="109.261" y="-104.075"/>
      <point x="109.261" y="-165.913" type="curve" smooth="yes"/>
      <point x="109.261" y="-209.377"/>
      <point x="140.17" y="-231.4"/>
    </contour>
    <contour>
      <point x="241.766" y="249.908" type="curve" smooth="yes"/>
      <point x="241.766" y="188.441"/>
      <point x="255.081" y="136.8"/>
      <point x="285.572" y="136.8" type="curve" smooth="yes"/>
      <point x="366.071" y="136.8"/>
      <point x="403.859" y="265.962"/>
      <point x="403.859" y="375.751" type="curve" smooth="yes"/>
      <point x="403.859" y="433.856"/>
      <point x="390.646" y="467.2"/>
      <point x="352.704" y="467.2" type="curve" smooth="yes"/>
      <point x="284.872" y="467.2"/>
      <point x="241.766" y="351.437"/>
    </contour>
    <contour>
      <point x="495.086" y="-60.3281" type="curve" smooth="yes"/>
      <point x="495.086" y="-202.842"/>
      <point x="320.582" y="-271.65"/>
      <point x="173.596" y="-271.65" type="curve" smooth="yes"/>
      <point x="58.1592" y="-271.65"/>
      <point x="-30.1611" y="-254.417"/>
      <point x="-30.1611" y="-180.487" type="curve" smooth="yes"/>
      <point x="-30.1611" y="-83.6943"/>
      <point x="82.9131" y="-52.6943"/>
      <point x="158.799" y="-30.707" type="curve"/>
      <point x="139.253" y="-28.457"/>
      <point x="122.801" y="-25.5742"/>
      <point x="109.584" y="-22.2393" type="curve"/>
      <point x="85.3486" y="-16.7148"/>
      <point x="63.04" y="1.61523"/>
      <point x="63.04" y="24.7061" type="curve" smooth="yes"/>
      <point x="63.04" y="69.1846"/>
      <point x="176.725" y="93.3682"/>
      <point x="222.357" y="106.225" type="curve"/>
      <point x="169.58" y="121.164"/>
      <point x="95.8613" y="164.925"/>
      <point x="95.8613" y="246.746" type="curve" smooth="yes"/>
      <point x="95.8613" y="409.14"/>
      <point x="219.229" y="511.65"/>
      <point x="366.318" y="511.65" type="curve" smooth="yes"/>
      <point x="423.142" y="511.65"/>
      <point x="466.792" y="501.15"/>
      <point x="491.829" y="476.864" type="curve"/>
      <point x="525.047" y="497.014"/>
      <point x="560.625" y="506.5"/>
      <point x="597.336" y="506.5" type="curve" smooth="yes"/>
      <point x="609.008" y="506.5"/>
      <point x="614.375" y="496.336"/>
      <point x="614.375" y="487.185" type="curve" smooth="yes"/>
      <point x="614.375" y="442.045"/>
      <point x="560.05" y="435.302"/>
      <point x="530.972" y="435.302" type="curve" smooth="yes"/>
      <point x="527.965" y="435.302"/>
      <point x="520.295" y="435.705"/>
      <point x="518" y="436" type="curve"/>
      <point x="527" y="418"/>
      <point x="537.333" y="388.027"/>
      <point x="537.333" y="363.354" type="curve" smooth="yes"/>
      <point x="537.333" y="138.681"/>
      <point x="359.972" y="110.385"/>
      <point x="241.947" y="57.4541" type="curve" smooth="yes"/>
      <point x="235.674" y="54.6406"/>
      <point x="230.786" y="49.0938"/>
      <point x="230.786" y="45.5918" type="curve" smooth="yes"/>
      <point x="230.786" y="41.377"/>
      <point x="234.838" y="36.9043"/>
      <point x="243.777" y="34.6338" type="curve" smooth="yes"/>
      <point x="247.948" y="33.5752"/>
      <point x="270.172" y="31.0947"/>
      <point x="283.796" y="29.8848" type="curve" smooth="yes"/>
      <point x="309.812" y="27.5752"/>
      <point x="322.252" y="27.4414"/>
      <point x="351.89" y="25.6738" type="curve" smooth="yes"/>
      <point x="434.229" y="20.7637"/>
      <point x="495.086" y="5.27051"/>
    </contour>
  </outline>
</glyph>
